<?xml version="1.0" encoding="UTF-8" standalone="no"?>
<svg
   width="1484.0531"
   height="1484.0531"
   viewBox="-500 -500 1484.0531 1484.0531"
   fill="none"
   version="1.1"
   id="svg30"
   sodipodi:docname="BuyMeACoffee.svg"
   inkscape:version="1.2.1 (9c6d41e410, 2022-07-14)"
   xmlns:inkscape="http://www.inkscape.org/namespaces/inkscape"
   xmlns:sodipodi="http://sodipodi.sourceforge.net/DTD/sodipodi-0.dtd"
   xmlns="http://www.w3.org/2000/svg"
   xmlns:svg="http://www.w3.org/2000/svg">
  <defs
     id="defs34">
    <inkscape:path-effect
       effect="fillet_chamfer"
       id="path-effect1156"
       is_visible="true"
       lpeversion="1"
       nodesatellites_param="F,0,0,1,0,400,0,1 @ F,0,0,1,0,400,0,1 @ F,0,0,1,0,400,0,1 @ F,0,0,1,0,400,0,1"
       unit="pc"
       method="auto"
       mode="F"
       radius="25"
       chamfer_steps="1"
       flexible="false"
       use_knot_distance="true"
       apply_no_radius="true"
       apply_with_radius="true"
       only_selected="false"
       hide_knots="false" />
  </defs>
  <sodipodi:namedview
     id="namedview32"
     pagecolor="#ffffff"
     bordercolor="#000000"
     borderopacity="0.25"
     inkscape:showpageshadow="2"
     inkscape:pageopacity="0.0"
     inkscape:pagecheckerboard="0"
     inkscape:deskcolor="#d1d1d1"
     showgrid="false"
     inkscape:zoom="0.40148554"
     inkscape:cx="459.54333"
     inkscape:cy="595.28919"
     inkscape:window-width="2496"
     inkscape:window-height="1417"
     inkscape:window-x="56"
     inkscape:window-y="-8"
     inkscape:window-maximized="1"
     inkscape:current-layer="svg30" />
  <path
     style="display:inline;fill:#ffdd00;fill-opacity:1;stroke:#ffffff;stroke-width:0.840318;stroke-opacity:0"
     id="rect317"
     width="1483.2128"
     height="1483.2128"
     x="-499.57983"
     y="-499.57983"
     inkscape:path-effect="#path-effect1156"
     d="M -99.579834,-499.57983 H 583.63293 a 400,400 45 0 1 400,399.999996 V 583.63293 a 400,400 135 0 1 -400,400 H -99.579834 a 400,400 45 0 1 -399.999996,-400 V -99.579834 A 400,400 135 0 1 -99.579834,-499.57983 Z"
     sodipodi:type="rect" />
  <path
     d="m 591.13553,-99.955464 -0.878,-0.515996 -2.03,-0.619 c 0.817,0.689 1.839,1.089 2.908,1.134996 z"
     fill="#0d0c22"
     id="path2" />
  <path
     d="m 603.92253,-8.5824637 -0.98,0.275 z"
     fill="#0d0c22"
     id="path4" />
  <path
     d="m 591.51053,-100.09646 c -0.125,-0.016 -0.247,-0.045 -0.366,-0.087 -0.007,0.081 -0.007,0.163 0,0.243996 0.134,-0.018 0.261,-0.072 0.366,-0.156996 z"
     fill="#0d0c22"
     id="path6" />
  <path
     d="m 591.13953,-99.944464 h 0.131 v -0.082 z"
     fill="#0d0c22"
     id="path8" />
  <path
     d="m 603.13753,-8.7474637 1.48,-0.843 0.551,-0.31 0.499,-0.5330003 c -0.939,0.404 -1.795,0.9760003 -2.53,1.6860003 z"
     fill="#0d0c22"
     id="path10" />
  <path
     d="m 593.69553,-97.958464 -1.446,-1.377 -0.98,-0.533 c 0.527,0.93 1.398,1.616 2.426,1.91 z"
     fill="#0d0c22"
     id="path12" />
  <path
     d="m 230.04553,788.70653 c -1.155,0.5 -2.167,1.28 -2.943,2.27 l 0.912,-0.58 c 0.62,-0.57 1.497,-1.24 2.031,-1.69 z"
     fill="#0d0c22"
     id="path14" />
  <path
     d="m 441.21353,747.15653 c 0,-1.3 -0.636,-1.06 -0.482,3.58 0,-0.37 0.155,-0.75 0.224,-1.11 0.086,-0.83 0.155,-1.64 0.258,-2.47 z"
     fill="#0d0c22"
     id="path16" />
  <path
     d="m 419.31053,788.70653 c -1.155,0.5 -2.166,1.28 -2.942,2.27 l 0.912,-0.58 c 0.619,-0.57 1.497,-1.24 2.03,-1.69 z"
     fill="#0d0c22"
     id="path18" />
  <path
     d="m 81.330533,798.58653 c -0.877,-0.76 -1.95,-1.26 -3.097,-1.45 0.929,0.45 1.858,0.9 2.477,1.24 z"
     fill="#0d0c22"
     id="path20" />
  <path
     d="m 47.867536,766.53653 c -0.137,-1.35 -0.553,-2.66 -1.222,-3.85 0.474,1.23 0.87,2.5 1.187,3.78 z"
     fill="#0d0c22"
     id="path22" />
  <path
     d="m 272.64953,193.36253 c -45.941,19.667 -98.077,41.966 -165.647,41.966 -28.265997,-0.056 -56.395997,-3.934 -83.622994,-11.528 l 46.732997,479.806 c 1.654,20.05 10.79,38.75 25.593,52.38 14.802997,13.63 34.190997,21.19 54.312997,21.19 0,0 66.262,3.44 88.373,3.44 23.796,0 95.151,-3.44 95.151,-3.44 20.12,0 39.503,-7.57 54.303,-21.2 14.8,-13.63 23.933,-32.32 25.587,-52.37 l 50.053,-530.204 c -22.368,-7.639 -44.943,-12.715 -70.391,-12.715 -44.014,-0.017 -79.477,15.142 -120.445,32.675 z"
     fill="#ffdd00"
     id="path24"
     style="fill:#ffffff" />
  <path
     d="m -121.28496,-11.341464 0.7914,0.74 0.5163,0.31 c -0.3975,-0.395 -0.8359,-0.747 -1.3077,-1.05 z"
     fill="#0d0c22"
     id="path26" />
  <path
     d="m 679.59353,-55.624464 -7.037,-35.497 c -6.315,-31.848996 -20.648,-61.943006 -53.34,-73.454006 -10.479,-3.683 -22.369,-5.265 -30.404,-12.888 -8.035,-7.622 -10.41,-19.46 -12.268,-30.438 -3.442,-20.149 -6.676,-40.315 -10.204,-60.429 -3.045,-17.293 -5.454,-36.7187 -13.386,-52.583 -10.324,-21.3016 -31.746,-33.7591 -53.048,-42.001 -10.915,-4.0746 -22.054,-7.5215 -33.363,-10.3238 -53.22,-14.0405 -109.175,-19.20243 -163.926,-22.14473 -65.716,-3.62624 -131.608,-2.5337 -197.169,3.26921 -48.796997,4.43926 -100.1929937,9.80772 -146.563994,26.68722 -16.948,6.1771 -34.413,13.593 -47.3,26.6872 -15.813196,16.088 -20.975096,40.9685 -9.43,61.0309 8.208,14.247 22.111,24.313 36.857,30.972 19.207,8.58 39.266,15.109 59.8440003,19.478 57.2969967,12.664 116.6419937,17.636 175.1779937,19.753 64.88,2.618 129.863,0.496 194.433,-6.35 15.968,-1.755 31.907,-3.86 47.817,-6.314 18.738,-2.874 30.765,-27.376 25.242,-44.445 -6.608,-20.406 -24.365,-28.321 -44.444,-25.241 -2.96,0.464 -5.902,0.894 -8.862,1.324 l -2.133,0.31 c -6.803,0.861 -13.605,1.663 -20.407,2.409 -14.052,1.514 -28.138,2.753 -42.259,3.717 -31.626,2.202 -63.337,3.217 -95.031,3.269 -31.144,0 -62.305,-0.878 -93.38,-2.925 -14.178,-0.929 -28.322,-2.111 -42.430997,-3.545 -6.418,-0.671 -12.819,-1.376 -19.219,-2.168 l -6.092,-0.774 -1.324,-0.189 -6.315,-0.912 c -12.904997,-1.945 -25.809997,-4.181 -38.576997,-6.883 -1.288,-0.286 -2.441,-1.002 -3.267,-2.0317 -0.826,-1.0292 -1.276,-2.3094 -1.276,-3.629 0,-1.3197 0.45,-2.5999 1.276,-3.6291 0.826,-1.0293 1.979,-1.746 3.267,-2.0319 h 0.241 c 11.064,-2.3572 22.213,-4.3704 33.396997,-6.1255 3.729,-0.585 7.468,-1.1585 11.219,-1.7206 h 0.103 c 7.003,-0.4646 14.041,-1.7207 21.009,-2.5466 60.629997,-6.3064 121.619997,-8.4565 182.543997,-6.4352 29.577,0.8604 59.138,2.5982 88.578,5.5921 6.332,0.6539 12.63,1.3422 18.927,2.1164 2.409,0.2926 4.835,0.6366 7.262,0.9292 l 4.886,0.7054 c 14.247,2.1222 28.419,4.6974 42.517,7.7258 20.889,4.5425 47.714,6.0222 57.005,28.9067 2.96,7.261 4.302,15.331 5.936,22.953 l 2.082,9.722 c 0.055,0.174 0.095,0.353 0.121,0.533 4.921,22.942 9.848,45.884 14.78,68.826 0.362,1.695 0.37,3.446 0.025,5.144 -0.345,1.699 -1.036,3.307 -2.031,4.727 -0.994,1.419 -2.271,2.618 -3.749,3.522 -1.479,0.904 -3.127,1.493 -4.844,1.732 h -0.138 l -3.011,0.413 -2.976,0.395 c -9.43,1.228 -18.87,2.375 -28.322,3.442 -18.618,2.122 -37.264,3.957 -55.938,5.506 -37.109,3.08501 -74.292,5.11001 -111.55,6.07401 -18.984,0.504 -37.963,0.74 -56.936,0.705 -75.519,-0.059 -150.972997,-4.449 -225.988994,-13.14601 -8.1219997,-0.963 -16.24299971,-1.996 -24.3649997,-3.045 6.298,0.809 -4.5770003,-0.62 -6.7790003,-0.929 -5.162,-0.723 -10.324,-1.474 -15.486,-2.254 -17.327,-2.599 -34.55,-5.799 -51.843,-8.604 -20.905596,-3.441 -40.899496,-1.72 -59.809396,8.604 -15.52211,8.494 -28.08511,21.51901 -36.01301,37.33801 -8.1559,16.862 -10.582,35.220996 -14.22974,53.339996 -3.64777,18.118 -9.32591,37.613 -7.17511,56.213 4.62853,40.143 32.69225,72.765997 73.05856,80.061997 37.974696,6.882 76.155696,12.457 114.439696,17.206 150.389994,18.419 302.322994,20.621997 453.183994,6.573 12.285,-1.147 24.553,-2.397 36.804,-3.751 3.827,-0.42 7.699,0.02 11.333,1.29 3.634,1.27 6.938,3.337 9.67,6.049 2.732,2.712 4.822,6.001 6.118,9.625 1.297,3.624997 1.766,7.493997 1.373,11.322997 l -3.82,37.132 c -7.697,75.031 -15.394,150.057 -23.091,225.077 -8.029,78.783 -16.111,157.56 -24.244,236.326 -2.294,22.19 -4.588,44.37 -6.882,66.54 -2.203,21.84 -2.512,44.36 -6.659,65.94 -6.539,33.93 -29.509,54.77 -63.027,62.39 -30.708,6.99 -62.078,10.66 -93.569,10.94 -34.912,0.19 -69.806,-1.36 -104.718,-1.17 -37.27,0.21 -82.917997,-3.23 -111.686997,-30.97 -25.276997,-24.36 -28.769997,-62.51 -32.210997,-95.5 -4.588,-43.67 -9.136,-87.331 -13.645,-130.989 l -25.2929997,-242.766 -16.3630003,-157.077 c -0.276,-2.598 -0.551,-5.162 -0.809,-7.778 -1.962,-18.737 -15.228,-37.079 -36.134,-36.133 -17.894,0.791 -38.232,16.002 -36.133,36.133 l 12.13,116.454 25.087,240.89 c 7.147,68.424 14.276,136.856 21.388,205.306 1.377,13.11 2.667,26.26 4.112,39.37 7.864,71.65 62.58,110.26 130.338994,121.13 39.575,6.37 80.113,7.68 120.273,8.33 51.482,0.83 103.48,2.81 154.118,-6.52 75.038,-13.77 131.337,-63.87 139.372,-141.59 2.295,-22.44 4.589,-44.88 6.883,-67.33 7.628,-74.241 15.245,-148.487 22.85,-222.739 l 24.881,-242.61 11.408,-111.187997 c 0.568,-5.514 2.896,-10.698 6.64,-14.785 3.743,-4.087 8.703,-6.861 14.145,-7.911 21.456,-4.181 41.967,-11.322 57.229,-27.650997 24.295,-25.998 29.13,-59.895 20.544,-94.067 z m -807.13689,23.986 c 0.3269,-0.155 -0.2753,2.649 -0.5334,3.957 -0.0516,-1.979 0.0516,-3.734 0.5334,-3.957 z m 2.082,16.105 c 0.1721,-0.121 0.6882,0.568 1.2216,1.394 -0.8087,-0.758 -1.3248,-1.325 -1.2388,-1.394 z m 2.0476,2.701 c 0.7399,1.256 1.1356,2.048 0,0 z m 4.1123,3.3380003 h 0.1032 c 0,0.121 0.1893,0.241 0.2581,0.362 -0.1141,-0.133 -0.2408,-0.254 -0.3785,-0.362 z m 720.12399,-4.9900003 c -7.708,7.3300003 -19.323,10.7370003 -30.8,12.4410003 -128.704,19.0989997 -259.283,28.7689997 -389.399,24.5019997 -93.120997,-3.183 -185.2609937,-13.5249997 -277.452994,-26.5499997 -9.033796,-1.273 -18.824296,-2.925 -25.035796,-9.5840003 -11.7004,-12.561 -5.9534,-37.854 -2.9079,-53.03 2.7875,-13.903 8.1215,-32.434 24.6569,-34.412996 25.809796,-3.028 55.782796,7.862996 81.317796,11.734996 30.742,4.691 61.599,8.448 92.569997,11.27 132.179997,12.045 266.579997,10.169 398.174997,-7.45 23.985,-3.224 47.885,-6.969 71.699,-11.236 21.216,-3.802996 44.737,-10.942996 57.556,11.029 8.792,14.97 9.962,34.998 8.603,51.912 -0.419,7.369 -3.639,14.3 -8.999,19.374 z"
     fill="#0d0c22"
     id="path28" />
</svg>
