<?xml version="1.0" encoding="UTF-8" standalone="no"?>
<!-- Created with Inkscape (http://www.inkscape.org/) -->

<svg
   width="512"
   height="512"
   viewBox="0 0 135.46666 135.46667"
   version="1.1"
   id="svg5"
   inkscape:version="1.2.2 (b0a8486541, 2022-12-01)"
   sodipodi:docname="maestro.svg"
   inkscape:export-filename="maestro.png"
   inkscape:export-xdpi="96"
   inkscape:export-ydpi="96"
   xmlns:inkscape="http://www.inkscape.org/namespaces/inkscape"
   xmlns:sodipodi="http://sodipodi.sourceforge.net/DTD/sodipodi-0.dtd"
   xmlns="http://www.w3.org/2000/svg"
   xmlns:svg="http://www.w3.org/2000/svg">
  <sodipodi:namedview
     id="namedview7"
     pagecolor="#505050"
     bordercolor="#eeeeee"
     borderopacity="1"
     inkscape:showpageshadow="0"
     inkscape:pageopacity="0"
     inkscape:pagecheckerboard="true"
     inkscape:deskcolor="#505050"
     inkscape:document-units="px"
     showgrid="false"
     showguides="true"
     inkscape:zoom="0.53309222"
     inkscape:cx="-19.696404"
     inkscape:cy="344.21812"
     inkscape:window-width="1920"
     inkscape:window-height="1080"
     inkscape:window-x="0"
     inkscape:window-y="0"
     inkscape:window-maximized="0"
     inkscape:current-layer="layer1" />
  <defs
     id="defs2" />
  <g
     inkscape:groupmode="layer"
     id="layer2"
     inkscape:label="background">
    <rect
       style="fill:#050613;fill-opacity:1;stroke-width:0.264583"
       id="rect3700"
       width="135.46666"
       height="135.46666"
       x="0"
       y="0"
       ry="28.533756" />
  </g>
  <g
     inkscape:label="Layer 1"
     inkscape:groupmode="layer"
     id="layer1">
    <text
       xml:space="preserve"
       style="font-size:3.175px;white-space:pre;inline-size:4.68731;display:inline;fill:#f9f9f9;stroke-width:0.264583"
       x="28.57056"
       y="31.102507"
       id="text317" />
    <text
       xml:space="preserve"
       style="font-style:normal;font-variant:normal;font-weight:normal;font-stretch:normal;font-size:158.75px;font-family:'DejaVuSansMono Nerd Font';-inkscape-font-specification:'DejaVuSansMono Nerd Font';display:none;fill:#f9f9f9;stroke-width:0.264583"
       x="20.023064"
       y="125.59801"
       id="text371"><tspan
         sodipodi:role="line"
         id="tspan369"
         style="font-style:normal;font-variant:normal;font-weight:normal;font-stretch:normal;font-size:158.75px;font-family:'DejaVuSansMono Nerd Font';-inkscape-font-specification:'DejaVuSansMono Nerd Font';stroke-width:0.264583"
         x="20.023064"
         y="125.59801">M</tspan></text>
    <circle
       style="display:none;fill:#f9f9f9;stroke-width:0.264583"
       id="path426"
       cx="26.689323"
       cy="108.06826"
       r="17.443089" />
    <circle
       style="display:none;fill:#f9f9f9;stroke-width:0.264583"
       id="circle428"
       cx="94.858833"
       cy="108.15492"
       r="17.443089" />
    <path
       id="path625"
       style="display:inline;fill:#861fc7;fill-opacity:1;stroke-width:0.264583"
       d="m 41.373209,10.541494 c -1.642881,-1.7271 -5.243171,1.335956 -5.239366,3.556269 l 0.132976,77.594698 c -2.949642,-0.718139 -2.897401,-0.869119 -5.437362,-0.869119 -8.08522,0 -17.443088,5.478373 -17.443088,17.443088 0,10.29404 8.875743,17.64168 17.443088,17.52975 9.203797,-0.12025 14.467805,-9.78491 14.40628,-17.52975 l -0.04004,-84.759833 c -7.74e-4,-1.637733 1.720925,1.046704 2.472016,1.863665 5.532365,6.017545 20.015033,21.770379 22.360423,24.266596 0,0 2.007004,1.71258 3.811553,0.18196 1.99497,-1.692136 23.988326,-20.417782 28.887201,-24.59261 2.10983,-1.797999 2.43576,-2.085889 2.41548,0.481604 -0.0427,5.40209 0.38586,66.470298 0.38586,66.470298 -3.50195,-1.268106 -3.15267,-1.268106 -6.529264,-1.268106 -10.616951,0 -17.443087,6.877904 -17.443087,17.443086 0,10.95569 8.257466,17.44293 16.825133,17.44309 10.485168,-0.11665 15.290648,-9.36365 15.107598,-17.44309 -0.68912,-30.416033 -0.33369,-90.827155 -0.57114,-94.988505 -0.17552,-3.075958 -2.6756,-4.4332717 -3.91549,-3.297778 -3.13214,2.868426 -31.858913,27.815303 -34.846961,30.41105 -1.16423,1.011378 -2.596448,1.153125 -4.016976,-0.308091 C 67.366768,37.319114 43.230901,12.494416 41.373209,10.541494 Z"
       sodipodi:nodetypes="sscssscsssssscsscssssss" />
  </g>
</svg>
