<?xml version="1.0" encoding="utf-8"?>
<!-- Generator: Adobe Illustrator 23.0.2, SVG Export Plug-In . SVG Version: 6.00 Build 0)  -->
<svg version="1.1" id="Layer_1" xmlns="http://www.w3.org/2000/svg" xmlns:xlink="http://www.w3.org/1999/xlink" x="0px" y="0px"
	 viewBox="0 0 2048 2048" style="enable-background:new 0 0 2048 2048;" xml:space="preserve">
<style type="text/css">
	.st0{fill:#6D8F99;}
	.st1{fill:#5B7880;}
	.st2{fill:#496066;}
</style>
<g>
	<circle class="st0" cx="1024" cy="1024" r="462.9"/>
	<path class="st1" d="M1024,1357.63c-89.12,0-172.9-34.7-235.91-97.72c-63.02-63.01-97.72-146.8-97.72-235.91
		s34.7-172.9,97.72-235.91c63.01-63.02,146.8-97.72,235.91-97.72s172.9,34.7,235.91,97.72c63.02,63.01,97.72,146.8,97.72,235.91
		s-34.7,172.9-97.72,235.91C1196.9,1322.93,1113.12,1357.63,1024,1357.63z"/>
	<path class="st2" d="M1024,1228.36c-54.59,0-105.91-21.26-144.51-59.86c-38.6-38.6-59.86-89.92-59.86-144.51
		c0-54.59,21.26-105.91,59.86-144.51c38.6-38.6,89.92-59.86,144.51-59.86c54.59,0,105.91,21.26,144.5,59.86
		c38.6,38.6,59.86,89.92,59.86,144.51c0,54.59-21.26,105.91-59.86,144.5C1129.91,1207.1,1078.59,1228.36,1024,1228.36z"/>
	<g>
		<path class="st0" d="M1097.92,620.75c-6.69,0-13.28-3.1-17.49-8.94c-6.96-9.65-4.78-23.12,4.87-30.08
			c53.13-38.32,111.62-67.16,173.85-85.7c49.72-14.82,101.89-23.12,155.07-24.69c90.73-2.66,152.78,15.12,155.37,15.88
			c11.42,3.34,17.97,15.3,14.64,26.72c-3.34,11.42-15.3,17.98-26.72,14.64c-0.56-0.16-59.3-16.83-143.63-14.12
			c-77.19,2.48-192.48,22.23-303.37,102.22C1106.7,619.43,1102.29,620.75,1097.92,620.75z"/>
	</g>
	<g>
		<path class="st0" d="M775.9,692.96c-1.14,0-2.3-0.09-3.47-0.28c-11.75-1.9-19.73-12.96-17.83-24.71
			c10.47-64.68,31.44-126.43,62.32-183.55c24.68-45.64,55.7-88.41,92.2-127.12c62.27-66.05,118.73-97.34,121.1-98.64
			c10.44-5.71,23.53-1.89,29.25,8.55c5.72,10.44,1.89,23.53-8.55,29.25c-0.51,0.28-53.84,30.03-111.55,91.58
			c-52.83,56.34-120.38,151.84-142.23,286.83C795.43,685.43,786.28,692.96,775.9,692.96z"/>
	</g>
	<g>
		<path class="st0" d="M599.22,971.64c-6.69,0-13.28-3.1-17.49-8.94c-38.32-53.13-67.16-111.62-85.7-173.85
			c-14.82-49.72-23.12-101.89-24.69-155.07c-2.67-90.73,15.12-152.78,15.88-155.37c3.34-11.42,15.3-17.98,26.72-14.64
			c11.41,3.33,17.97,15.28,14.65,26.69l0,0c-0.17,0.58-16.84,59.33-14.13,143.66c2.48,77.19,22.23,192.48,102.22,303.37
			c6.96,9.65,4.78,23.12-4.87,30.08C608,970.32,603.59,971.64,599.22,971.64z"/>
	</g>
	<g>
		<path class="st0" d="M671.44,1293.68c-1.14,0-2.3-0.09-3.47-0.28c-64.68-10.47-126.43-31.44-183.55-62.32
			c-45.64-24.68-88.41-55.7-127.12-92.2c-66.05-62.27-97.34-118.73-98.64-121.1c-5.72-10.44-1.89-23.53,8.55-29.25
			c10.43-5.71,23.51-1.9,29.23,8.52l0,0c0.29,0.53,30.04,53.86,91.6,111.58c56.34,52.83,151.84,120.38,286.83,142.23
			c11.75,1.9,19.73,12.96,17.83,24.71C690.97,1286.15,681.82,1293.68,671.44,1293.68z"/>
	</g>
	<g>
		<path class="st0" d="M615.25,1576.93c-80.56,0-134.42-15.45-136.84-16.15c-11.42-3.34-17.98-15.3-14.64-26.72
			c3.33-11.41,15.28-17.97,26.69-14.65l0,0c0.58,0.17,59.32,16.84,143.66,14.13c77.19-2.48,192.48-22.23,303.37-102.22
			c9.65-6.96,23.12-4.78,30.08,4.87c6.96,9.65,4.78,23.12-4.87,30.08c-53.13,38.32-111.62,67.16-173.85,85.7
			c-49.72,14.82-101.89,23.12-155.07,24.69C627.46,1576.84,621.28,1576.93,615.25,1576.93z"/>
	</g>
	<g>
		<path class="st0" d="M1007.44,1792c-7.62,0-15-4.05-18.92-11.2c-5.71-10.43-1.9-23.51,8.52-29.23l0,0
			c0.53-0.29,53.86-30.04,111.58-91.6c52.83-56.34,120.38-151.84,142.23-286.83c1.9-11.75,12.98-19.72,24.71-17.83
			c11.75,1.9,19.73,12.96,17.83,24.71c-10.47,64.68-31.44,126.43-62.32,183.55c-24.68,45.64-55.7,88.41-92.2,127.12
			c-62.27,66.05-118.73,97.34-121.1,98.64C1014.49,1791.15,1010.94,1792,1007.44,1792z"/>
	</g>
	<g>
		<path class="st0" d="M1540.1,1585.1c-2,0-4.03-0.28-6.05-0.87c-11.42-3.34-17.97-15.3-14.64-26.72
			c0.16-0.55,16.84-59.3,14.12-143.63c-2.48-77.19-22.23-192.48-102.22-303.37c-6.96-9.65-4.78-23.12,4.87-30.08
			c9.65-6.96,23.12-4.78,30.08,4.87c38.32,53.13,67.16,111.62,85.7,173.85c14.82,49.72,23.12,101.89,24.69,155.07
			c2.67,90.73-15.12,152.78-15.88,155.37C1558.03,1578.99,1549.43,1585.1,1540.1,1585.1z"/>
	</g>
	<g>
		<path class="st0" d="M1770.47,1062.12c-7.62,0-15-4.05-18.92-11.2c-0.28-0.51-30.03-53.84-91.58-111.55
			c-56.34-52.83-151.84-120.38-286.83-142.23c-11.75-1.9-19.73-12.96-17.83-24.71c1.9-11.75,12.97-19.73,24.71-17.83
			c64.68,10.47,126.43,31.44,183.55,62.32c45.64,24.68,88.41,55.7,127.12,92.2c66.05,62.27,97.34,118.73,98.64,121.1
			c5.72,10.44,1.89,23.53-8.55,29.25C1777.52,1061.27,1773.97,1062.12,1770.47,1062.12z"/>
	</g>
</g>
</svg>
