<?xml version="1.0" encoding="utf-8"?>
<!-- Generator: Adobe Illustrator 23.0.2, SVG Export Plug-In . SVG Version: 6.00 Build 0)  -->
<svg version="1.1" id="Layer_1" xmlns="http://www.w3.org/2000/svg" xmlns:xlink="http://www.w3.org/1999/xlink" x="0px" y="0px"
	 viewBox="0 0 2048 2048" style="enable-background:new 0 0 2048 2048;" xml:space="preserve">
<style type="text/css">
	.st0{fill:#FF725C;}
	.st1{fill:#72C5FF;}
	.st2{fill:#FFE783;}
	.st3{fill:#84E69F;}
</style>
<g>
	<circle class="st0" cx="1024" cy="1024" r="86.45"/>
	<path class="st1" d="M1024,1792c-43.62,0-84.83-22.73-122.5-67.57c-33.4-39.75-63.14-95.95-88.4-167.03
		c-50.77-142.88-78.73-332.31-78.73-533.4c0-201.1,27.96-390.53,78.73-533.4c25.26-71.08,55-127.28,88.4-167.03
		C939.17,278.73,980.38,256,1024,256c43.62,0,84.83,22.73,122.5,67.57c33.4,39.75,63.14,95.95,88.4,167.03
		c50.77,142.88,78.73,332.31,78.73,533.4s-27.96,390.53-78.73,533.4c-25.26,71.08-55,127.28-88.4,167.03
		C1108.83,1769.27,1067.62,1792,1024,1792z M1024,307.86c-27.48,0-56.48,17.46-83.87,50.49c-28.61,34.5-55.63,86.23-78.15,149.61
		C813.13,645.4,786.24,828.67,786.24,1024c0,195.33,26.9,378.6,75.74,516.04c22.52,63.37,49.54,115.11,78.15,149.61
		c27.39,33.03,56.39,50.49,83.87,50.49c27.48,0,56.48-17.46,83.87-50.49c28.61-34.5,55.63-86.23,78.15-149.61
		c48.84-137.44,75.74-320.71,75.74-516.04c0-195.33-26.9-378.6-75.74-516.04c-22.52-63.37-49.54-115.11-78.15-149.61
		C1080.48,325.32,1051.48,307.86,1024,307.86z"/>
	<path class="st2" d="M545.42,1497.43c-19.71,0-38.36-1.31-55.43-3.9c-57.89-8.79-98.77-32.12-121.5-69.35
		c-22.73-37.23-24.8-84.25-6.16-139.76c16.53-49.22,49-103.89,96.5-162.48c95.49-117.78,242.6-240.35,414.24-345.14
		c171.64-104.78,347.89-179.63,496.29-210.74c49.02-10.28,93.83-15.49,133.2-15.49c19.71,0,38.36,1.31,55.42,3.9
		c57.89,8.79,98.77,32.12,121.5,69.35c22.73,37.23,24.8,84.25,6.16,139.76c-16.53,49.22-49,103.89-96.5,162.48
		c-95.49,117.78-242.6,240.35-414.24,345.14c-171.64,104.78-347.89,179.63-496.29,210.74
		C629.61,1492.22,584.79,1497.43,545.42,1497.43z M1502.49,602.51c-35.97,0-77.17,4.82-122.47,14.31
		c-142.76,29.93-313.19,102.47-479.91,204.25C733.39,922.85,590.99,1041.3,499.13,1154.6c-42.36,52.24-72.43,102.26-86.97,144.66
		c-13.92,40.59-13.71,74.44,0.61,97.9c19.31,31.62,65.21,48.34,132.75,48.34c35.97,0,77.17-4.82,122.47-14.31
		c142.76-29.93,313.19-102.47,479.91-204.25c166.72-101.78,309.12-220.23,400.98-333.53c42.36-52.24,72.43-102.26,86.97-144.66
		c13.92-40.59,13.71-74.44-0.61-97.9C1615.93,619.22,1570.02,602.51,1502.49,602.51z"/>
	<path class="st2" d="M545.42,1497.43c-19.71,0-38.36-1.31-55.43-3.9c-57.89-8.79-98.77-32.12-121.5-69.35
		c-22.73-37.23-24.8-84.25-6.16-139.76c16.53-49.22,49-103.89,96.5-162.48c95.49-117.78,242.6-240.35,414.24-345.14
		c171.64-104.78,347.89-179.63,496.29-210.74c49.02-10.28,93.83-15.49,133.2-15.49c19.71,0,38.36,1.31,55.42,3.9
		c57.89,8.79,98.77,32.12,121.5,69.35c22.73,37.23,24.8,84.25,6.16,139.76c-16.53,49.22-49,103.89-96.5,162.48
		c-95.49,117.78-242.6,240.35-414.24,345.14c-171.64,104.78-347.89,179.63-496.29,210.74
		C629.61,1492.22,584.79,1497.43,545.42,1497.43z M1502.49,602.51c-35.97,0-77.17,4.82-122.47,14.31
		c-142.76,29.93-313.19,102.47-479.91,204.25C733.39,922.85,590.99,1041.3,499.13,1154.6c-42.36,52.24-72.43,102.26-86.97,144.66
		c-13.92,40.59-13.71,74.44,0.61,97.9c19.31,31.62,65.21,48.34,132.75,48.34c35.97,0,77.17-4.82,122.47-14.31
		c142.76-29.93,313.19-102.47,479.91-204.25c166.72-101.78,309.12-220.23,400.98-333.53c42.36-52.24,72.43-102.26,86.97-144.66
		c13.92-40.59,13.71-74.44-0.61-97.9C1615.93,619.22,1570.02,602.51,1502.49,602.51z"/>
	<path class="st3" d="M1502.58,1497.43c-39.37,0-84.18-5.21-133.2-15.49c-148.4-31.11-324.65-105.96-496.29-210.74
		c-171.64-104.79-318.75-227.36-414.24-345.14c-47.5-58.59-79.97-113.26-96.5-162.48c-18.64-55.51-16.57-102.53,6.16-139.76
		c22.73-37.23,63.61-60.56,121.5-69.35c17.07-2.59,35.71-3.9,55.42-3.9c39.37,0,84.18,5.21,133.2,15.49
		c148.4,31.11,324.65,105.96,496.29,210.74c171.64,104.79,318.75,227.36,414.24,345.14c47.51,58.59,79.97,113.26,96.5,162.48
		c18.64,55.51,16.57,102.53-6.16,139.76c-22.73,37.23-63.61,60.56-121.5,69.35C1540.93,1496.12,1522.28,1497.43,1502.58,1497.43z
		 M545.51,602.51c-67.54,0-113.44,16.72-132.75,48.34c-14.32,23.45-14.53,57.31-0.61,97.9c14.54,42.4,44.61,92.42,86.97,144.66
		c91.86,113.3,234.26,231.75,400.98,333.53c166.72,101.78,337.15,174.32,479.91,204.25c45.29,9.49,86.49,14.31,122.47,14.31
		c67.54,0,113.44-16.72,132.75-48.34c14.32-23.45,14.53-57.31,0.61-97.9c-14.54-42.39-44.61-92.42-86.97-144.66
		c-91.86-113.3-234.26-231.75-400.98-333.53C981.17,719.28,810.74,646.75,667.98,616.82C622.69,607.32,581.48,602.51,545.51,602.51z
		"/>
</g>
</svg>
