<?xml version="1.0" encoding="utf-8"?>
<!-- Generator: Adobe Illustrator 23.0.2, SVG Export Plug-In . SVG Version: 6.00 Build 0)  -->
<svg version="1.1" id="Layer_1" xmlns="http://www.w3.org/2000/svg" xmlns:xlink="http://www.w3.org/1999/xlink" x="0px" y="0px"
	 viewBox="0 0 2048 2048" style="enable-background:new 0 0 2048 2048;" xml:space="preserve">
<style type="text/css">
	.st0{fill:#496066;}
	.st1{fill:#5B7880;}
	.st2{fill:#485F66;}
	.st3{fill:#FFE783;}
	.st4{fill:#CCB869;}
</style>
<g>
	<g>
		<path class="st0" d="M1026.66,1792h-6c-67.14,0-121.56-54.42-121.56-121.56v-11.5h249.12v11.5
			C1148.21,1737.58,1093.79,1792,1026.66,1792z"/>
		<path class="st1" d="M1231.29,1409.55v170.5c0,45.27-36.69,81.97-81.97,81.97H897.98c-45.27,0-81.97-36.7-81.97-81.97v-170.5
			H1231.29z"/>
		<g>
			<rect x="816.01" y="1511.2" class="st2" width="415.28" height="49.18"/>
		</g>
	</g>
	<path class="st3" d="M1221.67,1419.79c34.64,0,65.07-23.58,73.09-57.29c9.75-40.98,29.82-79.16,58.43-110.98
		c70.53-78.45,113.45-182.23,113.45-296.03c0-244.66-198.33-442.98-442.98-442.98S580.67,710.83,580.67,955.49
		c0,113.81,42.92,217.58,113.45,296.03c28.61,31.83,48.68,70,58.43,110.98c8.02,33.7,38.44,57.29,73.09,57.29H1221.67z"/>
	<g>
		<path class="st3" d="M1024,434.48c-13.58,0-24.59-11.01-24.59-24.59V280.59c0-13.58,11.01-24.59,24.59-24.59
			s24.59,11.01,24.59,24.59v129.29C1048.59,423.47,1037.58,434.48,1024,434.48z"/>
	</g>
	<g>
		<path class="st3" d="M751.05,507.63c-8.5,0-16.77-4.41-21.32-12.3l-64.65-111.97c-6.79-11.76-2.76-26.8,9-33.59
			c11.76-6.79,26.8-2.76,33.59,9l64.65,111.97c6.79,11.76,2.76,26.8-9,33.59C759.45,506.56,755.22,507.63,751.05,507.63z"/>
	</g>
	<g>
		<path class="st3" d="M551.17,707.46c-4.17,0-8.4-1.06-12.27-3.3l-111.97-64.65c-11.76-6.79-15.79-21.83-9-33.59
			c6.79-11.76,21.83-15.79,33.59-9l111.97,64.65c11.76,6.79,15.79,21.83,9,33.59C567.94,703.05,559.67,707.46,551.17,707.46z"/>
	</g>
	<g>
		<path class="st3" d="M478.05,980.43H348.76c-13.58,0-24.59-11.01-24.59-24.59c0-13.58,11.01-24.59,24.59-24.59h129.29
			c13.58,0,24.59,11.01,24.59,24.59C502.65,969.42,491.63,980.43,478.05,980.43z"/>
	</g>
	<g>
		<path class="st3" d="M439.25,1318.05c-8.5,0-16.77-4.41-21.32-12.3c-6.79-11.76-2.76-26.8,9-33.59l111.97-64.65
			c11.76-6.79,26.8-2.76,33.59,9c6.79,11.76,2.76,26.8-9,33.59l-111.97,64.65C447.65,1316.99,443.42,1318.05,439.25,1318.05z"/>
	</g>
	<g>
		<path class="st3" d="M1608.75,1318.05c-4.17,0-8.4-1.06-12.27-3.3l-111.97-64.65c-11.76-6.79-15.79-21.83-9-33.59
			c6.79-11.76,21.83-15.79,33.59-9l111.97,64.65c11.76,6.79,15.79,21.83,9,33.59C1625.52,1313.64,1617.25,1318.05,1608.75,1318.05z"
			/>
	</g>
	<g>
		<path class="st3" d="M1699.24,980.43h-129.29c-13.58,0-24.59-11.01-24.59-24.59c0-13.58,11.01-24.59,24.59-24.59h129.29
			c13.58,0,24.59,11.01,24.59,24.59C1723.83,969.42,1712.82,980.43,1699.24,980.43z"/>
	</g>
	<g>
		<path class="st3" d="M1496.83,707.46c-8.5,0-16.77-4.41-21.32-12.3c-6.79-11.76-2.76-26.8,9-33.59l111.97-64.65
			c11.76-6.79,26.8-2.76,33.59,9c6.79,11.76,2.76,26.8-9,33.59l-111.97,64.65C1505.23,706.39,1501,707.46,1496.83,707.46z"/>
	</g>
	<g>
		<path class="st3" d="M1296.95,507.63c-4.17,0-8.4-1.06-12.27-3.3c-11.76-6.79-15.79-21.83-9-33.59l64.65-111.97
			c6.79-11.76,21.83-15.79,33.59-9c11.76,6.79,15.79,21.83,9,33.59l-64.65,111.97C1313.72,503.22,1305.45,507.63,1296.95,507.63z"/>
	</g>
	<polygon class="st4" points="1098.83,708.14 835.39,997.78 1006.4,997.78 945.11,1224.16 1211.92,923.64 1046.54,923.64 	"/>
</g>
</svg>
