<?xml version="1.0" encoding="utf-8"?>
<!-- Generator: Adobe Illustrator 23.0.2, SVG Export Plug-In . SVG Version: 6.00 Build 0)  -->
<svg version="1.1" id="Layer_1" xmlns="http://www.w3.org/2000/svg" xmlns:xlink="http://www.w3.org/1999/xlink" x="0px" y="0px"
	 viewBox="0 0 2048 2048" style="enable-background:new 0 0 2048 2048;" xml:space="preserve">
<style type="text/css">
	.st0{fill:#7FA9B3;}
	.st1{fill:#5B7980;}
	.st2{fill:#FFE783;}
	.st3{fill:#CCB869;}
	.st4{fill:#496066;}
</style>
<g>
	<g>
		<g>
			<path class="st0" d="M1518.23,1556.28H390.06c-73.92,0-134.06-60.14-134.06-134.06V506.96c0-73.92,60.14-134.06,134.06-134.06
				h1128.17c73.92,0,134.06,60.14,134.06,134.06V698.7c0,8.93-7.24,16.17-16.17,16.17s-16.17-7.24-16.17-16.17V506.96
				c0-56.09-45.63-101.73-101.73-101.73H390.06c-56.09,0-101.73,45.63-101.73,101.73v915.25c0,56.09,45.63,101.73,101.73,101.73
				h1128.17c56.09,0,101.73-45.63,101.73-101.73V894.14c0-4.29,1.7-8.4,4.74-11.43L1764.4,743c6.31-6.31,16.55-6.31,22.87,0
				c6.31,6.31,6.31,16.55,0,22.87L1652.3,900.84v521.38C1652.3,1496.14,1592.16,1556.28,1518.23,1556.28z"/>
		</g>
	</g>
	<g>
		<path class="st1" d="M954.15,1367.44v345.35H697.8c-33.49,0-60.63-27.14-60.63-60.63v-224.08c0-33.49,27.14-60.63,60.63-60.63
			H954.15z"/>
		<g>
			<g>
				<path class="st2" d="M1271.12,1428.07v224.08c0,33.49-27.14,60.63-60.63,60.63H954.15v-345.35h256.34
					C1243.98,1367.44,1271.12,1394.58,1271.12,1428.07z"/>
			</g>
		</g>
		<g>
			<g>
				<path class="st2" d="M829.86,1556.28h-94.39c-8.93,0-16.17-7.24-16.17-16.17s7.24-16.17,16.17-16.17h94.39
					c8.93,0,16.17,7.24,16.17,16.17S838.79,1556.28,829.86,1556.28z"/>
			</g>
			<g>
				<path class="st2" d="M782.67,1603.47c-8.93,0-16.17-7.24-16.17-16.17v-94.39c0-8.93,7.24-16.17,16.17-16.17
					s16.17,7.24,16.17,16.17v94.39C798.83,1596.23,791.6,1603.47,782.67,1603.47z"/>
			</g>
		</g>
		<g>
			<g>
				<path class="st1" d="M1165.17,1603.47c-8.93,0-16.17-7.24-16.17-16.17v-94.39c0-8.93,7.24-16.17,16.17-16.17
					s16.17,7.24,16.17,16.17v94.39C1181.34,1596.23,1174.1,1603.47,1165.17,1603.47z"/>
			</g>
		</g>
	</g>
	<g>
		<path class="st2" d="M868.89,519.06c-15.09,0-28.02,10.45-31.58,25.12c-4.24,17.47-12.83,33.75-25.05,47.33
			c-30.39,33.81-48.88,78.54-48.85,127.59c0.07,105.58,85.15,190.6,190.73,190.6c105.34,0,190.73-85.39,190.73-190.73
			c0-49-18.48-93.68-48.85-127.46c-12.21-13.58-20.81-29.86-25.05-47.33c-3.56-14.67-16.49-25.12-31.58-25.12H868.89z"/>
		<g>
			<path class="st3" d="M954,693.47c-8.93,0-16.17-7.24-16.17-16.17V476.11c0-8.93,7.24-16.17,16.17-16.17s16.17,7.24,16.17,16.17
				V677.3C970.17,686.23,962.93,693.47,954,693.47z"/>
		</g>
		<g>
			<path class="st3" d="M1003.4,727.82c-2.22,0-4.47-0.46-6.62-1.43c-11.43-5.14-22.23-11.37-32.08-18.52
				c-3.69-2.67-7.26-5.48-10.7-8.41c-3.44,2.93-7.01,5.74-10.7,8.42c-9.84,7.13-20.64,13.36-32.07,18.51
				c-8.14,3.66-17.72,0.03-21.38-8.11s-0.03-17.72,8.11-21.38c9.43-4.24,18.3-9.36,26.37-15.21c6.55-4.74,12.61-9.99,18.03-15.61
				c3.05-3.16,7.25-4.95,11.65-4.95c0,0,0,0,0,0c4.39,0,8.6,1.79,11.65,4.95c5.41,5.62,11.47,10.87,18.02,15.61
				c8.08,5.86,16.95,10.97,26.38,15.22c8.14,3.66,11.78,13.24,8.11,21.38C1015.46,724.27,1009.57,727.82,1003.4,727.82z"/>
		</g>
		
			<rect x="888.64" y="433.16" transform="matrix(-1 -1.224647e-16 1.224647e-16 -1 1908.295 952.22)" class="st1" width="131.02" height="85.9"/>
		<rect x="792.63" y="335.22" class="st4" width="323.03" height="107.71"/>
	</g>
</g>
</svg>
