<?xml version="1.0" encoding="utf-8"?>
<!-- Generator: Adobe Illustrator 23.0.2, SVG Export Plug-In . SVG Version: 6.00 Build 0)  -->
<svg version="1.1" id="Layer_1" xmlns="http://www.w3.org/2000/svg" xmlns:xlink="http://www.w3.org/1999/xlink" x="0px" y="0px"
	 viewBox="0 0 2048 2048" style="enable-background:new 0 0 2048 2048;" xml:space="preserve">
<style type="text/css">
	.st0{fill:#FFE783;}
	.st1{fill:#FF725C;}
</style>
<g>
	<g>
		<path class="st0" d="M1791.99,1791.49c-3.71-1.46-716.65-281.3-1535.99,0.01c279.31-807.85,1.45-1532.22,0.01-1535.99
			c3.71,1.46,716.64,281.29,1535.98,0C1790.56,259.28,1512.69,983.64,1791.99,1791.49z"/>
	</g>
	<g>
		<g>
			<g>
				<g>
					<path class="st1" d="M1255.96,800.27c-6.34,0-12.68-2.42-17.52-7.26c-9.67-9.67-9.67-25.36,0-35.04l206.45-206.45
						c9.68-9.67,25.36-9.67,35.04,0c9.67,9.67,9.67,25.36,0,35.04l-206.45,206.45C1268.64,797.85,1262.3,800.27,1255.96,800.27z"/>
				</g>
				<g>
					<path class="st1" d="M1446.43,734.45c-0.94,0-1.88-0.05-2.83-0.16c-13.59-1.55-23.36-13.82-21.81-27.42l12.49-109.69
						l-109.69,12.49c-13.59,1.55-25.87-8.22-27.42-21.81c-1.55-13.59,8.22-25.87,21.81-27.42l140.63-16.01
						c7.5-0.85,14.98,1.76,20.32,7.1c5.34,5.34,7.95,12.82,7.1,20.32l-16.01,140.63C1469.58,725.12,1458.86,734.45,1446.43,734.45z"
						/>
				</g>
			</g>
			<g>
				<g>
					<path class="st1" d="M792.05,800.27c-6.34,0-12.68-2.42-17.52-7.26L568.08,586.56c-9.67-9.67-9.67-25.36,0-35.04
						c9.68-9.67,25.36-9.67,35.04,0l206.45,206.45c9.67,9.67,9.67,25.36,0,35.04C804.73,797.85,798.39,800.27,792.05,800.27z"/>
				</g>
				<g>
					<path class="st1" d="M601.58,734.45c-12.43,0-23.15-9.33-24.58-21.97l-16.01-140.63c-0.85-7.5,1.76-14.98,7.1-20.32
						c5.34-5.34,12.82-7.95,20.32-7.1l140.63,16.01c13.59,1.55,23.36,13.82,21.81,27.42c-1.44,12.64-12.16,21.97-24.58,21.97
						c-0.94,0-1.88-0.05-2.83-0.16l-109.69-12.49l12.49,109.69c1.55,13.59-8.22,25.87-21.81,27.42
						C603.46,734.4,602.52,734.45,601.58,734.45z"/>
				</g>
			</g>
		</g>
		<g>
			<g>
				<g>
					<path class="st1" d="M1462.41,1502.73c-6.34,0-12.68-2.42-17.52-7.26l-206.45-206.45c-9.67-9.68-9.67-25.36,0-35.04
						c9.68-9.68,25.36-9.68,35.04,0l206.45,206.45c9.67,9.68,9.67,25.36,0,35.04C1475.09,1500.31,1468.75,1502.73,1462.41,1502.73z"
						/>
				</g>
				<g>
					<path class="st1" d="M1462.41,1502.73c-0.93,0-1.87-0.05-2.8-0.16l-140.63-16.01c-13.59-1.55-23.36-13.82-21.81-27.42
						c1.55-13.59,13.81-23.37,27.42-21.81l109.69,12.49l-12.49-109.69c-1.55-13.59,8.22-25.87,21.81-27.42
						c13.58-1.56,25.87,8.22,27.42,21.81l16.01,140.63c0.85,7.5-1.76,14.98-7.1,20.32
						C1475.25,1500.14,1468.94,1502.73,1462.41,1502.73z"/>
				</g>
			</g>
			<g>
				<g>
					<path class="st1" d="M585.6,1502.73c-6.34,0-12.68-2.42-17.52-7.26c-9.67-9.68-9.67-25.36,0-35.04l206.45-206.45
						c9.68-9.68,25.36-9.68,35.04,0c9.67,9.68,9.67,25.36,0,35.04l-206.45,206.45C598.28,1500.31,591.94,1502.73,585.6,1502.73z"/>
				</g>
				<g>
					<path class="st1" d="M585.6,1502.73c-6.53,0-12.84-2.58-17.52-7.26c-5.34-5.34-7.95-12.82-7.1-20.32l16.01-140.63
						c1.55-13.59,13.82-23.37,27.42-21.81c13.59,1.55,23.36,13.82,21.81,27.42l-12.49,109.69l109.69-12.49
						c13.59-1.56,25.87,8.22,27.42,21.81c1.55,13.59-8.22,25.87-21.81,27.42l-140.63,16.01
						C587.47,1502.68,586.53,1502.73,585.6,1502.73z"/>
				</g>
			</g>
		</g>
	</g>
</g>
</svg>
