<?xml version="1.0" encoding="utf-8"?>
<!-- Generator: Adobe Illustrator 23.0.2, SVG Export Plug-In . SVG Version: 6.00 Build 0)  -->
<svg version="1.1" id="Layer_1" xmlns="http://www.w3.org/2000/svg" xmlns:xlink="http://www.w3.org/1999/xlink" x="0px" y="0px"
	 viewBox="0 0 2048 2048" style="enable-background:new 0 0 2048 2048;" xml:space="preserve">
<style type="text/css">
	.st0{fill:#EAF1FA;}
	.st1{fill:#FF725C;}
	.st2{fill:#FFBDB3;}
	.st3{fill:#D8DEE6;}
</style>
<g>
	<path class="st0" d="M1538.21,1277.79c0,283.99-230.22,514.21-514.21,514.21s-514.21-230.22-514.21-514.21
		c0-241.49,166.47-444.1,390.91-499.33V340.99h246.59v437.47C1371.74,833.69,1538.21,1036.3,1538.21,1277.79z"/>
	<path class="st1" d="M1024,1742.45c-62.75,0-123.6-12.28-180.85-36.5c-55.33-23.4-105.02-56.91-147.71-99.6
		c-42.69-42.69-76.2-92.39-99.6-147.71c-24.22-57.25-36.49-118.1-36.49-180.85c0-18.7,1.11-37.35,3.32-55.82
		c47.38,7.92,107.78,14.32,196.03,14.32c138.05,0,208.17-15.46,275.98-30.42c65.51-14.45,127.38-28.09,254.64-28.09
		c89.76,0,147.16,7,191.6,15.06c5.15,27.89,7.75,56.34,7.75,84.95c0,62.75-12.28,123.6-36.49,180.85
		c-23.4,55.32-56.91,105.02-99.6,147.71c-42.69,42.69-92.39,76.2-147.71,99.6C1147.6,1730.17,1086.75,1742.45,1024,1742.45z"/>
	<circle class="st2" cx="789.85" cy="1371.06" r="49.15"/>
	<circle class="st2" cx="1180.3" cy="1332.88" r="45.96"/>
	<circle class="st2" cx="1067.69" cy="1600.97" r="52.06"/>
	<circle class="st2" cx="965.67" cy="1445.12" r="22.29"/>
	<circle class="st2" cx="1283.78" cy="1490.82" r="22.29"/>
	<circle class="st2" cx="816.7" cy="1565.42" r="22.29"/>
	<path class="st3" d="M1144.66,340.99H903.34c-23.47,0-42.5-19.03-42.5-42.5v0c0-23.47,19.03-42.5,42.5-42.5h241.33
		c23.47,0,42.5,19.03,42.5,42.5v0C1187.16,321.97,1168.13,340.99,1144.66,340.99z"/>
</g>
</svg>
