<?xml version="1.0" encoding="utf-8"?>
<!-- Generator: Adobe Illustrator 23.0.2, SVG Export Plug-In . SVG Version: 6.00 Build 0)  -->
<svg version="1.1" id="Layer_1" xmlns="http://www.w3.org/2000/svg" xmlns:xlink="http://www.w3.org/1999/xlink" x="0px" y="0px"
	 viewBox="0 0 2048 2048" style="enable-background:new 0 0 2048 2048;" xml:space="preserve">
<style type="text/css">
	.st0{fill:#72C5FF;}
	.st1{fill:#FF725C;}
	.st2{fill:#8AF0A6;}
	.st3{fill:#E0E7F0;}
</style>
<g>
	<g>
		<g>
			<g>
				<g>
					<path class="st0" d="M1633.51,678.58c-4.07,0-8.2-1-12.01-3.12c-11.96-6.64-16.27-21.73-9.63-33.69l42.55-76.59l-84.2-24.24
						c-13.15-3.79-20.74-17.51-16.95-30.66c3.79-13.15,17.52-20.74,30.66-16.95l114.12,32.86c7.25,2.09,13.16,7.37,16.04,14.35
						c2.88,6.98,2.43,14.89-1.24,21.49l-57.67,103.82C1650.67,673.98,1642.22,678.58,1633.51,678.58z"/>
				</g>
			</g>
			<g>
				<path class="st0" d="M1142.16,801.54H356.79c-13.68,0-24.77-11.09-24.77-24.77c0-13.68,11.09-24.77,24.77-24.77h780.45
					l544.5-224.91c12.65-5.22,27.13,0.79,32.36,13.44c5.22,12.65-0.79,27.13-13.44,32.36l-549.04,226.78
					C1148.62,800.9,1145.4,801.54,1142.16,801.54z"/>
			</g>
		</g>
		<g>
			<g>
				<g>
					<path class="st1" d="M1598.29,1122.71c-7.29,0-14.51-3.2-19.4-9.35c-8.52-10.71-6.74-26.29,3.96-34.81l68.56-54.55
						l-68.56-54.55c-10.71-8.52-12.48-24.1-3.96-34.81c8.52-10.71,24.1-12.48,34.81-3.96l92.93,73.94
						c5.91,4.7,9.35,11.84,9.35,19.39c0,7.55-3.44,14.69-9.35,19.39l-92.93,73.94C1609.14,1120.95,1603.69,1122.71,1598.29,1122.71z
						"/>
				</g>
			</g>
			<g>
				<path class="st1" d="M1691.2,1048.77H356.79c-13.68,0-24.77-11.09-24.77-24.77c0-13.68,11.09-24.77,24.77-24.77H1691.2
					c13.68,0,24.77,11.09,24.77,24.77C1715.98,1037.68,1704.89,1048.77,1691.2,1048.77z"/>
			</g>
		</g>
		<g>
			<g>
				<g>
					<path class="st2" d="M1577.07,1555.66c-10.76,0-20.67-7.07-23.8-17.93c-3.79-13.15,3.8-26.88,16.95-30.66l84.2-24.24
						l-42.55-76.59c-6.64-11.96-2.33-27.04,9.63-33.69c11.96-6.65,27.04-2.33,33.69,9.63l57.67,103.82
						c3.67,6.6,4.12,14.51,1.24,21.49c-2.88,6.98-8.79,12.26-16.04,14.35l-114.12,32.86
						C1581.65,1555.34,1579.34,1555.66,1577.07,1555.66z"/>
				</g>
			</g>
			<g>
				<path class="st2" d="M1691.19,1522.8c-3.15,0-6.35-0.6-9.45-1.88l-544.5-224.91H356.79c-13.68,0-24.77-11.09-24.77-24.77
					c0-13.68,11.09-24.77,24.77-24.77h785.37c3.24,0,6.46,0.64,9.46,1.88l549.04,226.79c12.65,5.22,18.66,19.71,13.44,32.35
					C1710.15,1517.03,1700.92,1522.8,1691.19,1522.8z"/>
			</g>
		</g>
	</g>
	<path class="st3" d="M1225.08,1792c-96.8-507.43-96.8-1028.57,0-1536H855.67c96.8,507.43,96.8,1028.57,0,1536H1225.08z"/>
</g>
</svg>
