<?xml version="1.0" encoding="utf-8"?>
<!-- Generator: Adobe Illustrator 23.0.2, SVG Export Plug-In . SVG Version: 6.00 Build 0)  -->
<svg version="1.1" id="Layer_1" xmlns="http://www.w3.org/2000/svg" xmlns:xlink="http://www.w3.org/1999/xlink" x="0px" y="0px"
	 viewBox="0 0 2048 2048" style="enable-background:new 0 0 2048 2048;" xml:space="preserve">
<style type="text/css">
	.st0{fill:#FFE884;}
	.st1{fill:#6C9299;}
	.st2{fill:#CC884C;}
	.st3{fill:#E69956;}
	.st4{fill:#FFAA5F;}
	.st5{fill:#5A7A80;}
	.st6{fill:#E6E6E6;}
</style>
<g>
	<g>
		<path class="st0" d="M713.16,956.71c-6.68,0-12.97-4.09-15.46-10.72c-3.2-8.53,1.13-18.05,9.66-21.24l498.6-186.84
			c8.53-3.2,18.05,1.13,21.24,9.66c3.2,8.53-1.13,18.05-9.66,21.24l-498.6,186.84C717.04,956.38,715.09,956.71,713.16,956.71z"/>
	</g>
	<g>
		<path class="st0" d="M344.43,1401.12c-9.25,0.17-16.82-7.68-16.82-16.93V736.75c0-9.25,7.57-17.11,16.82-16.93
			c8.97,0.17,16.19,7.49,16.19,16.5v648.3C360.62,1393.63,353.4,1400.95,344.43,1401.12z"/>
	</g>
	<circle class="st1" cx="485.21" cy="625.73" r="131.47"/>
	<g>
		<polygon class="st2" points="480.65,752.02 1142.31,1413.69 1285.26,1413.69 561.78,690.2 		"/>
	</g>
	<g>
		<polygon class="st3" points="1701.03,1396.21 1306.93,703.2 1252.31,703.2 1252.31,860.81 1577.54,1441.18 		"/>
	</g>
	<g>
		<polygon class="st3" points="1248.34,882.46 953.55,1408.48 817.82,1395.62 1205.85,703.2 1248.34,703.2 		"/>
	</g>
	<rect x="1205.85" y="703.2" class="st2" width="101.08" height="703.7"/>
	<g>
		<rect x="257.27" y="1334.31" class="st4" width="1443.76" height="138.3"/>
	</g>
	<circle class="st5" cx="725.24" cy="1403.46" r="155.6"/>
	
		<ellipse transform="matrix(0.7071 -0.7071 0.7071 0.7071 -779.9761 923.8861)" class="st6" cx="725.24" cy="1403.46" rx="51.79" ry="51.92"/>
	<circle class="st5" cx="1636.4" cy="1403.46" r="155.6"/>
	
		<ellipse transform="matrix(0.7071 -0.7071 0.7071 0.7071 -513.1035 1568.1736)" class="st6" cx="1636.4" cy="1403.46" rx="51.79" ry="51.92"/>
	<path class="st4" d="M313.17,800.66L313.17,800.66c73,73,191.37,73,264.37,0l47.34-47.34L360.51,488.94l-47.34,47.34
		C240.17,609.29,240.17,727.65,313.17,800.66z"/>
</g>
</svg>
