<?xml version="1.0" encoding="utf-8"?>
<!-- Generator: Adobe Illustrator 23.0.2, SVG Export Plug-In . SVG Version: 6.00 Build 0)  -->
<svg version="1.1" id="Layer_1" xmlns="http://www.w3.org/2000/svg" xmlns:xlink="http://www.w3.org/1999/xlink" x="0px" y="0px"
	 viewBox="0 0 2048 2048" style="enable-background:new 0 0 2048 2048;" xml:space="preserve">
<style type="text/css">
	.st0{fill:#6CBD82;}
	.st1{fill:#FF725C;}
	.st2{fill:#6D9199;}
</style>
<g>
	<g>
		<g>
			<path class="st0" d="M1465.26,772.66c-45.97,47.22-121.1,53.29-174.31,11.85c-17.1-13.32-30.01-30.04-38.49-48.46
				c45.97-47.22,121.1-53.29,174.31-11.85C1443.88,737.52,1456.78,754.24,1465.26,772.66z"/>
			<path class="st0" d="M1453.8,775.57c-45.97,47.22-121.1,53.29-174.31,11.85c-17.1-13.32-30.01-30.04-38.49-48.46
				c45.97-47.22,121.1-53.29,174.31-11.85C1432.42,740.43,1445.32,757.15,1453.8,775.57z"/>
			<path class="st0" d="M1195.41,615.13c-21.64,35.18-13.8,81.76,19.55,107.74c10.72,8.35,22.86,13.62,35.36,15.95
				c21.64-35.18,13.8-81.76-19.55-107.74C1220.04,622.73,1207.9,617.46,1195.41,615.13z"/>
			<path class="st0" d="M1199.23,627.14c-21.64,35.18-13.8,81.76,19.55,107.74c10.72,8.35,22.86,13.62,35.36,15.95
				c21.64-35.18,13.8-81.76-19.55-107.74C1223.86,634.74,1211.72,629.46,1199.23,627.14z"/>
			<g>
				<path class="st0" d="M1154.27,878.29c-3.47,0-6.97-1.11-9.92-3.41c-7.05-5.49-8.31-15.65-2.82-22.69l98.8-126.86
					c5.49-7.05,15.65-8.31,22.69-2.82c7.05,5.49,8.31,15.65,2.82,22.69l-98.8,126.86C1163.85,876.15,1159.08,878.29,1154.27,878.29z
					"/>
			</g>
		</g>
		<path class="st1" d="M826.99,1398.84L826.99,1398.84c-19.72-48.87-60.71-80.79-112.92-87.94
			c-79.72-10.91-131.82-76.4-131.33-165.06l0.8-143.41c0.78-139.97,98.22-286.03,231.65-347.26l0,0
			c120.03-55.07,240.15-27.82,297.35,67.47l36.96,61.57c18.6,30.99,46.89,53.02,81.48,63.46l68.75,20.75
			c106.4,32.12,162.24,141.9,138.24,271.77l0,0c-26.68,144.36-144.43,274.61-279.95,309.65l-138.85,35.9
			C933.34,1507.94,857.09,1473.46,826.99,1398.84z"/>
	</g>
	<g>
		<g>
			<g>
				<path class="st2" d="M879.01,515.23c-8.93,0-16.17-7.24-16.17-16.17V340.89c0-8.93,7.24-16.17,16.17-16.17
					s16.17,7.24,16.17,16.17v158.17C895.17,507.99,887.94,515.23,879.01,515.23z"/>
			</g>
			<g>
				<path class="st2" d="M1024,515.23c-8.93,0-16.17-7.24-16.17-16.17V272.17c0-8.93,7.24-16.17,16.17-16.17
					c8.93,0,16.17,7.24,16.17,16.17v226.89C1040.17,507.99,1032.93,515.23,1024,515.23z"/>
			</g>
			<g>
				<path class="st2" d="M1168.99,515.23c-8.93,0-16.17-7.24-16.17-16.17V340.89c0-8.93,7.24-16.17,16.17-16.17
					s16.17,7.24,16.17,16.17v158.17C1185.16,507.99,1177.92,515.23,1168.99,515.23z"/>
			</g>
		</g>
	</g>
	<g>
		<g>
			<g>
				<g>
					<g>
						<path class="st2" d="M1273.17,1792c-8.93,0-16.17-7.24-16.17-16.17v-185.34c0-8.93,7.24-16.17,16.17-16.17
							s16.17,7.24,16.17,16.17v185.34C1289.34,1784.76,1282.1,1792,1273.17,1792z"/>
					</g>
					<g>
						<path class="st2" d="M1273.17,1792c-4.93,0-9.59-2.25-12.65-6.1l-55.94-70.31c-5.56-6.99-4.4-17.16,2.59-22.72
							c6.99-5.56,17.16-4.4,22.72,2.59l43.29,54.41l43.29-54.41c5.56-6.99,15.73-8.15,22.72-2.59c6.99,5.56,8.15,15.73,2.59,22.72
							l-55.94,70.31C1282.76,1789.75,1278.1,1792,1273.17,1792z"/>
					</g>
				</g>
			</g>
			<g>
				<g>
					<g>
						<path class="st2" d="M1024,1792c-8.93,0-16.17-7.24-16.17-16.17v-185.34c0-8.93,7.24-16.17,16.17-16.17
							c8.93,0,16.17,7.24,16.17,16.17v185.34C1040.17,1784.76,1032.93,1792,1024,1792z"/>
					</g>
					<g>
						<path class="st2" d="M1024,1792c-4.93,0-9.59-2.25-12.65-6.1l-55.94-70.31c-5.56-6.99-4.4-17.16,2.59-22.72
							c6.99-5.56,17.16-4.4,22.72,2.59l43.29,54.41l43.29-54.41c5.56-6.99,15.73-8.15,22.72-2.59c6.99,5.56,8.15,15.73,2.59,22.72
							l-55.94,70.31C1033.59,1789.75,1028.93,1792,1024,1792z"/>
					</g>
				</g>
			</g>
			<g>
				<g>
					<g>
						<path class="st2" d="M774.83,1792c-8.93,0-16.17-7.24-16.17-16.17v-185.34c0-8.93,7.24-16.17,16.17-16.17
							s16.17,7.24,16.17,16.17v185.34C790.99,1784.76,783.75,1792,774.83,1792z"/>
					</g>
					<g>
						<path class="st2" d="M774.83,1792c-4.93,0-9.59-2.25-12.65-6.1l-55.94-70.31c-5.56-6.99-4.4-17.16,2.59-22.72
							c6.99-5.56,17.16-4.4,22.72,2.59l43.29,54.41l43.29-54.41c5.56-6.99,15.73-8.14,22.72-2.59c6.99,5.56,8.15,15.73,2.59,22.72
							l-55.94,70.31C784.41,1789.75,779.75,1792,774.83,1792z"/>
					</g>
				</g>
			</g>
		</g>
	</g>
</g>
</svg>
