<?xml version="1.0" encoding="utf-8"?>
<!-- Generator: Adobe Illustrator 23.0.2, SVG Export Plug-In . SVG Version: 6.00 Build 0)  -->
<svg version="1.1" id="Layer_1" xmlns="http://www.w3.org/2000/svg" xmlns:xlink="http://www.w3.org/1999/xlink" x="0px" y="0px"
	 viewBox="0 0 2048 2048" style="enable-background:new 0 0 2048 2048;" xml:space="preserve">
<style type="text/css">
	.st0{fill:#EAF1FA;}
	.st1{fill:#96D1FA;}
	.st2{fill:#5A7A80;}
</style>
<g>
	<circle class="st0" cx="1024" cy="1024" r="469.43"/>
	<path class="st1" d="M1167.48,1074.8c0,79.24-64.24,143.48-143.48,143.48s-143.48-64.24-143.48-143.48
		c0-123.87,143.48-245.07,143.48-245.07S1167.48,950.93,1167.48,1074.8z"/>
	<g>
		<g id="XMLID_1_">
			<path class="st2" d="M1792,940.4v167.21h-154.89c-14.64,108.35-57.31,207.78-120.49,290.79l109.55,109.55l-118.23,118.23
				l-109.55-109.55c-83,63.17-182.44,105.85-290.79,120.49V1792H940.4v-154.89c-108.35-14.64-207.78-57.31-290.79-120.49
				l-109.55,109.55l-118.23-118.23l109.55-109.55c-63.17-83-105.85-182.44-120.49-290.79H256V940.4h154.89
				c14.64-108.35,57.31-207.78,120.49-290.79L421.82,540.06l118.23-118.23l109.55,109.55c83-63.17,182.44-105.85,290.79-120.49V256
				h167.21v154.89c108.35,14.64,207.78,57.31,290.79,120.49l109.55-109.55l118.23,118.23l-109.55,109.55
				c63.17,83,105.85,182.44,120.49,290.79H1792z M1423.77,1024c0-220.79-178.98-399.77-399.77-399.77S624.23,803.21,624.23,1024
				s178.98,399.77,399.77,399.77S1423.77,1244.79,1423.77,1024z"/>
		</g>
	</g>
</g>
</svg>
