<?xml version="1.0" encoding="utf-8"?>
<!-- Generator: Adobe Illustrator 23.0.2, SVG Export Plug-In . SVG Version: 6.00 Build 0)  -->
<svg version="1.1" id="Layer_1" xmlns="http://www.w3.org/2000/svg" xmlns:xlink="http://www.w3.org/1999/xlink" x="0px" y="0px"
	 viewBox="0 0 2048 2048" style="enable-background:new 0 0 2048 2048;" xml:space="preserve">
<style type="text/css">
	.st0{fill:#FFAA5F;}
	.st1{fill:#FF725C;}
	.st2{fill:#465A65;}
	.st3{fill:#C4C4C3;}
	.st4{fill:#3D4F59;}
	.st5{fill:#A8A8A8;}
	.st6{fill:#35444D;}
</style>
<g>
	<polygon class="st0" points="256,812.38 256,1631.9 1700.51,1631.9 	"/>
	<g>
		<g>
			<g>
				<g>
					<path class="st1" d="M607.3,585.02c-3.95,0-7.96-0.96-11.67-2.99L375.7,461.89c-11.82-6.46-16.16-21.27-9.71-33.08
						c6.46-11.82,21.27-16.16,33.08-9.71l219.93,120.14c11.82,6.46,16.16,21.27,9.71,33.08
						C624.29,580.43,615.93,585.02,607.3,585.02z"/>
				</g>
				<g>
					<path class="st1" d="M515.12,601.04c-11.63,0-21.93-8.36-23.99-20.21c-2.31-13.27,6.58-25.89,19.85-28.2l61.98-10.77
						l-24.43-57.98c-5.23-12.41,0.59-26.71,13-31.93c12.41-5.23,26.71,0.59,31.93,13l36.33,86.22c2.88,6.85,2.49,14.63-1.07,21.15
						c-3.56,6.52-9.9,11.06-17.22,12.33l-92.18,16.02C517.91,600.92,516.5,601.04,515.12,601.04z"/>
				</g>
			</g>
		</g>
		<g>
			<g>
				<g>
					<path class="st1" d="M1767.59,1245.03c-3.95,0-7.96-0.96-11.67-2.99L1536,1121.9c-11.82-6.46-16.16-21.27-9.71-33.09
						c6.46-11.82,21.27-16.16,33.09-9.71l219.93,120.14c11.82,6.46,16.16,21.27,9.71,33.09
						C1784.58,1240.44,1776.22,1245.03,1767.59,1245.03z"/>
				</g>
				<g>
					<path class="st1" d="M1584.02,1211.1c-9.51,0-18.55-5.6-22.48-14.92l-36.33-86.22c-2.88-6.85-2.49-14.63,1.07-21.15
						c3.56-6.52,9.9-11.06,17.22-12.33l92.18-16.02c13.26-2.3,25.89,6.58,28.2,19.85c2.31,13.27-6.58,25.89-19.85,28.2l-61.98,10.77
						l24.43,57.98c5.23,12.41-0.59,26.71-13,31.93C1590.39,1210.49,1587.18,1211.1,1584.02,1211.1z"/>
				</g>
			</g>
		</g>
	</g>
	<g>
		<path class="st2" d="M1475.7,800.1c-1.91-60.39-17.89-117.22-44.77-167.34c-3.87-7.22-7.98-14.31-12.3-21.25
			c-30.89-49.62-72.87-91.61-122.49-122.49c-6.94-4.32-14.03-8.43-21.25-12.3c-50.12-26.88-106.95-42.86-167.34-44.77
			c-4.08-0.13-8.17-0.19-12.28-0.19s-8.2,0.07-12.28,0.19c-60.39,1.91-117.22,17.89-167.34,44.77c-7.22,3.87-14.31,7.98-21.25,12.3
			c-49.62,30.89-91.61,72.87-122.49,122.49c-4.32,6.94-8.43,14.03-12.3,21.25c-26.88,50.12-42.86,106.95-44.77,167.34
			c-0.13,4.08-0.19,8.17-0.19,12.28s0.07,8.2,0.19,12.28c1.91,60.39,17.89,117.22,44.77,167.34c3.87,7.22,7.98,14.31,12.3,21.25
			c30.89,49.62,72.87,91.61,122.49,122.49c6.94,4.32,14.03,8.43,21.25,12.3c50.12,26.88,106.95,42.86,167.34,44.77
			c4.08,0.13,8.17,0.19,12.28,0.19s8.2-0.07,12.28-0.19c60.38-1.91,117.22-17.89,167.34-44.76c7.23-3.88,14.32-7.98,21.26-12.3
			c49.62-30.89,91.61-72.87,122.49-122.49c4.32-6.94,8.43-14.03,12.3-21.26c26.87-50.12,42.85-106.95,44.76-167.34
			c0.13-4.08,0.19-8.17,0.19-12.28S1475.83,804.18,1475.7,800.1z M980.72,875.68l52.87-14.17c7.61-2.04,14.57,4.92,12.53,12.53
			l-14.17,52.87c-2.04,7.61-11.55,10.16-17.12,4.59l-38.71-38.71C970.57,887.23,973.12,877.72,980.72,875.68z M969.51,848.61
			c-6.82,3.94-15.35-0.98-15.35-8.86v-54.74c0-7.88,8.53-12.8,15.35-8.86l47.41,27.37c6.82,3.94,6.82,13.78,0,17.72L969.51,848.61z
			 M1033.6,763.24l-52.87-14.17c-7.61-2.04-10.16-11.55-4.59-17.12l38.71-38.71c5.57-5.57,15.08-3.02,17.12,4.59l14.17,52.87
			C1048.17,758.32,1041.21,765.28,1033.6,763.24z M1067.9,671.27h54.74c7.88,0,12.8,8.53,8.86,15.35l-27.37,47.41
			c-3.94,6.82-13.78,6.82-17.72,0l-27.37-47.41C1055.1,679.8,1060.02,671.27,1067.9,671.27z M1059.03,938.13l27.37-47.41
			c3.94-6.82,13.78-6.82,17.72,0l27.37,47.41c3.94,6.82-0.98,15.35-8.86,15.35h-54.74C1060.02,953.48,1055.1,944.95,1059.03,938.13z
			 M1156.93,861.51l52.87,14.17c7.61,2.04,10.16,11.55,4.59,17.12l-38.71,38.71c-5.57,5.57-15.08,3.02-17.12-4.59l-14.17-52.87
			C1142.36,866.43,1149.32,859.47,1156.93,861.51z M1144.4,750.71l14.17-52.87c2.04-7.61,11.55-10.16,17.12-4.59l38.71,38.71
			c5.57,5.57,3.02,15.08-4.59,17.12l-52.87,14.17C1149.32,765.28,1142.36,758.32,1144.4,750.71z M1221.02,848.61l-47.41-27.37
			c-6.82-3.94-6.82-13.78,0-17.72l47.41-27.37c6.82-3.94,15.35,0.98,15.35,8.86v54.74C1236.37,847.63,1227.84,852.55,1221.02,848.61
			z"/>
		<path class="st3" d="M1095.27,622.45c-104.89,0-189.93,85.03-189.93,189.93s85.03,189.93,189.93,189.93
			c104.89,0,189.93-85.03,189.93-189.93S1200.16,622.45,1095.27,622.45z M1144.4,750.71l14.17-52.87
			c2.04-7.61,11.55-10.16,17.12-4.59l38.71,38.71c5.57,5.57,3.02,15.08-4.59,17.12l-52.87,14.17
			C1149.32,765.28,1142.36,758.32,1144.4,750.71z M954.16,839.75v-54.74c0-7.88,8.53-12.8,15.35-8.86l47.41,27.37
			c6.82,3.94,6.82,13.78,0,17.72l-47.41,27.37C962.69,852.55,954.16,847.63,954.16,839.75z M1046.13,874.04l-14.17,52.87
			c-2.04,7.61-11.55,10.16-17.12,4.59l-38.71-38.71c-5.57-5.57-3.02-15.08,4.59-17.12l52.87-14.17
			C1041.21,859.47,1048.17,866.43,1046.13,874.04z M1033.6,763.24l-52.87-14.17c-7.61-2.04-10.16-11.55-4.59-17.12l38.71-38.71
			c5.57-5.57,15.08-3.02,17.12,4.59l14.17,52.87C1048.17,758.32,1041.21,765.28,1033.6,763.24z M1122.64,953.48h-54.74
			c-7.88,0-12.8-8.53-8.86-15.35l27.37-47.41c3.94-6.82,13.78-6.82,17.72,0l27.37,47.41
			C1135.44,944.95,1130.52,953.48,1122.64,953.48z M1131.5,686.62l-27.37,47.41c-3.94,6.82-13.78,6.82-17.72,0l-27.37-47.41
			c-3.94-6.82,0.98-15.35,8.86-15.35h54.74C1130.52,671.27,1135.44,679.8,1131.5,686.62z M1214.4,892.8l-38.71,38.71
			c-5.57,5.57-15.08,3.02-17.12-4.59l-14.17-52.87c-2.04-7.61,4.92-14.57,12.53-12.53l52.87,14.17
			C1217.42,877.72,1219.96,887.23,1214.4,892.8z M1221.02,848.61l-47.41-27.37c-6.82-3.94-6.82-13.78,0-17.72l47.41-27.37
			c6.82-3.94,15.35,0.98,15.35,8.86v54.74C1236.37,847.63,1227.84,852.55,1221.02,848.61z"/>
		<circle class="st4" cx="1095.27" cy="812.38" r="45.52"/>
		<path class="st5" d="M1095.27,569.41c-134.19,0-242.97,108.78-242.97,242.97s108.78,242.97,242.97,242.97
			s242.97-108.78,242.97-242.97S1229.45,569.41,1095.27,569.41z M1095.27,1002.3c-104.89,0-189.93-85.03-189.93-189.93
			s85.03-189.93,189.93-189.93c104.89,0,189.93,85.03,189.93,189.93S1200.16,1002.3,1095.27,1002.3z"/>
		<g>
			<path class="st6" d="M1107.54,431.94v44.07c0,6.78-5.5,12.28-12.28,12.28s-12.28-5.5-12.28-12.28v-44.07
				c4.08-0.13,8.17-0.19,12.28-0.19S1103.47,431.81,1107.54,431.94z"/>
		</g>
		<g>
			<path class="st6" d="M933.22,531.71c-1.93,1.12-4.05,1.65-6.13,1.65c-4.24,0-8.37-2.2-10.64-6.14l-22.06-38.21
				c6.94-4.32,14.03-8.43,21.25-12.3l22.07,38.23C941.11,520.81,939.1,528.32,933.22,531.71z"/>
		</g>
		<g>
			<path class="st6" d="M814.6,650.33c-2.28,3.94-6.4,6.14-10.65,6.14c-2.08,0-4.19-0.53-6.12-1.65l-38.23-22.07
				c3.87-7.22,7.98-14.31,12.3-21.25l38.21,22.06C815.97,636.95,817.99,644.46,814.6,650.33z"/>
		</g>
		<g>
			<path class="st6" d="M771.18,812.38c0,6.78-5.5,12.28-12.28,12.28h-44.07c-0.13-4.08-0.19-8.17-0.19-12.28s0.07-8.2,0.19-12.28
				h44.07C765.68,800.1,771.18,805.6,771.18,812.38z"/>
		</g>
		<g>
			<path class="st6" d="M810.11,991.19l-38.21,22.06c-4.32-6.94-8.43-14.03-12.3-21.25l38.23-22.07c5.87-3.39,13.38-1.38,16.77,4.49
				C817.99,980.29,815.97,987.8,810.11,991.19z"/>
		</g>
		<g>
			<path class="st6" d="M937.71,1109.81l-22.07,38.23c-7.22-3.87-14.31-7.98-21.25-12.3l22.06-38.21c3.39-5.87,10.9-7.88,16.77-4.49
				C939.1,1096.44,941.11,1103.95,937.71,1109.81z"/>
		</g>
		<g>
			<path class="st6" d="M1107.54,1148.74v44.07c-4.08,0.13-8.17,0.19-12.28,0.19s-8.2-0.07-12.28-0.19v-44.07
				c0-6.78,5.5-12.28,12.28-12.28S1107.54,1141.96,1107.54,1148.74z"/>
		</g>
		<g>
			<path class="st6" d="M1296.14,1135.74c-6.94,4.32-14.03,8.43-21.26,12.3l-22.07-38.23c-3.39-5.87-1.38-13.38,4.49-16.77
				c5.87-3.39,13.38-1.38,16.78,4.49L1296.14,1135.74z"/>
		</g>
		<g>
			<path class="st6" d="M1430.94,991.99c-3.88,7.23-7.98,14.32-12.3,21.26l-38.21-22.05c-5.87-3.39-7.88-10.9-4.49-16.78
				c3.39-5.87,10.9-7.88,16.77-4.49L1430.94,991.99z"/>
		</g>
		<g>
			<path class="st6" d="M1475.9,812.38c0,4.11-0.07,8.2-0.19,12.28h-44.07c-6.78,0-12.28-5.5-12.28-12.28s5.5-12.28,12.28-12.28
				h44.07C1475.83,804.18,1475.9,808.27,1475.9,812.38z"/>
		</g>
		<g>
			<path class="st6" d="M1430.93,632.75l-38.23,22.07c-1.93,1.12-4.04,1.65-6.12,1.65c-4.25,0-8.37-2.2-10.65-6.14
				c-3.39-5.87-1.38-13.38,4.49-16.77l38.21-22.06C1422.96,618.44,1427.06,625.53,1430.93,632.75z"/>
		</g>
		<g>
			<path class="st6" d="M1296.14,489.01l-22.06,38.21c-2.27,3.93-6.4,6.14-10.64,6.14c-2.08,0-4.2-0.53-6.13-1.65
				c-5.87-3.39-7.88-10.9-4.49-16.77l22.07-38.23C1282.11,480.58,1289.2,484.69,1296.14,489.01z"/>
		</g>
	</g>
</g>
</svg>
