<?xml version="1.0" encoding="utf-8"?>
<!-- Generator: Adobe Illustrator 23.0.2, SVG Export Plug-In . SVG Version: 6.00 Build 0)  -->
<svg version="1.1" id="Layer_1" xmlns="http://www.w3.org/2000/svg" xmlns:xlink="http://www.w3.org/1999/xlink" x="0px" y="0px"
	 viewBox="0 0 2048 2048" style="enable-background:new 0 0 2048 2048;" xml:space="preserve">
<style type="text/css">
	.st0{fill:#E69755;}
	.st1{fill:#5A7A80;}
	.st2{fill:#FFAA5F;}
	.st3{fill:#FFE783;}
	.st4{fill:#DFEBFA;}
</style>
<g>
	<g>
		<rect x="612.14" y="1667.34" class="st0" width="138.42" height="124.66"/>
		<rect x="1150.46" y="1667.34" class="st0" width="138.42" height="124.66"/>
	</g>
	<polygon class="st1" points="1376.15,1265.4 950.51,1265.4 950.51,458.3 1250.16,458.3 	"/>
	<polygon class="st2" points="1250.16,458.3 650.87,458.3 682.46,256 1218.57,256 	"/>
	<polygon class="st1" points="950.51,458.3 950.51,1265.4 524.87,1265.4 650.87,458.3 	"/>
	<polygon class="st2" points="1442.35,1689.47 458.66,1689.47 524.87,1265.4 1376.15,1265.4 	"/>
	<circle class="st3" cx="950.51" cy="1477.44" r="61.16"/>
	<g>
		<g>
			<g>
				<path class="st3" d="M851.29,610.48h-51.28c-9.12,0-16.52-7.39-16.52-16.52s7.39-16.52,16.52-16.52h51.28
					c9.12,0,16.52,7.39,16.52,16.52S860.41,610.48,851.29,610.48z"/>
			</g>
			<g>
				<path class="st3" d="M851.29,708.58h-51.28c-9.12,0-16.52-7.39-16.52-16.52c0-9.12,7.39-16.52,16.52-16.52h51.28
					c9.12,0,16.52,7.39,16.52,16.52C867.81,701.19,860.41,708.58,851.29,708.58z"/>
			</g>
			<g>
				<path class="st3" d="M851.29,806.69h-51.28c-9.12,0-16.52-7.39-16.52-16.52c0-9.12,7.39-16.52,16.52-16.52h51.28
					c9.12,0,16.52,7.39,16.52,16.52C867.81,799.29,860.41,806.69,851.29,806.69z"/>
			</g>
			<g>
				<path class="st3" d="M851.29,904.79h-51.28c-9.12,0-16.52-7.39-16.52-16.52s7.39-16.52,16.52-16.52h51.28
					c9.12,0,16.52,7.39,16.52,16.52S860.41,904.79,851.29,904.79z"/>
			</g>
			<g>
				<path class="st3" d="M851.29,1002.9h-51.28c-9.12,0-16.52-7.39-16.52-16.52s7.39-16.52,16.52-16.52h51.28
					c9.12,0,16.52,7.39,16.52,16.52S860.41,1002.9,851.29,1002.9z"/>
			</g>
			<g>
				<path class="st3" d="M851.29,1101.01h-51.28c-9.12,0-16.52-7.39-16.52-16.52c0-9.12,7.39-16.52,16.52-16.52h51.28
					c9.12,0,16.52,7.39,16.52,16.52C867.81,1093.61,860.41,1101.01,851.29,1101.01z"/>
			</g>
		</g>
		<g>
			<g>
				<path class="st3" d="M1101.01,610.48h-51.28c-9.12,0-16.52-7.39-16.52-16.52s7.39-16.52,16.52-16.52h51.28
					c9.12,0,16.52,7.39,16.52,16.52S1110.14,610.48,1101.01,610.48z"/>
			</g>
			<g>
				<path class="st3" d="M1101.01,708.58h-51.28c-9.12,0-16.52-7.39-16.52-16.52c0-9.12,7.39-16.52,16.52-16.52h51.28
					c9.12,0,16.52,7.39,16.52,16.52C1117.53,701.19,1110.14,708.58,1101.01,708.58z"/>
			</g>
			<g>
				<path class="st3" d="M1101.01,806.69h-51.28c-9.12,0-16.52-7.39-16.52-16.52c0-9.12,7.39-16.52,16.52-16.52h51.28
					c9.12,0,16.52,7.39,16.52,16.52C1117.53,799.29,1110.14,806.69,1101.01,806.69z"/>
			</g>
			<g>
				<path class="st3" d="M1101.01,904.79h-51.28c-9.12,0-16.52-7.39-16.52-16.52s7.39-16.52,16.52-16.52h51.28
					c9.12,0,16.52,7.39,16.52,16.52S1110.14,904.79,1101.01,904.79z"/>
			</g>
		</g>
	</g>
	<g>
		<rect x="913.44" y="458.3" class="st3" width="74.14" height="807.1"/>
	</g>
	<g>
		<path class="st4" d="M1586.15,425.75l-598.57,817l-16.6,22.65h-40.95l57.55-78.54l571.91-780.63c5.39-7.35,15.73-8.95,23.08-3.56
			C1589.94,408.06,1591.54,418.39,1586.15,425.75z"/>
	</g>
	
		<rect x="1422.29" y="492.27" transform="matrix(0.8067 0.591 -0.591 0.8067 608.7367 -767.1206)" class="st4" width="109.25" height="109.25"/>
</g>
</svg>
