<?xml version="1.0" encoding="utf-8"?>
<!-- Generator: Adobe Illustrator 23.0.2, SVG Export Plug-In . SVG Version: 6.00 Build 0)  -->
<svg version="1.1" id="Layer_1" xmlns="http://www.w3.org/2000/svg" xmlns:xlink="http://www.w3.org/1999/xlink" x="0px" y="0px"
	 viewBox="0 0 2048 2048" style="enable-background:new 0 0 2048 2048;" xml:space="preserve">
<style type="text/css">
	.st0{fill:#B3E4FF;}
	.st1{fill:#4678C2;}
	.st2{fill:#5C9EFF;}
	.st3{fill:#538EE6;}
	.st4{fill:#486166;}
	.st5{fill:#5A7A80;}
</style>
<g>
	<circle class="st0" cx="1024" cy="946.9" r="690.9"/>
	<rect x="968.55" y="924.69" class="st1" width="110.91" height="603.78"/>
	<g>
		<g>
			<path class="st2" d="M1711.62,879.17c-36.37,17.16-75.96,26.18-115.25,26.18c-6.8,0-13.58-0.27-20.35-0.82
				c-37.71-3.05-73.86-14.09-107.3-25.57c-0.05-0.02-0.1-0.04-0.16-0.05c-7.29-2.51-14.67-5.1-21.81-7.61
				c-35.14-12.37-68.33-24.04-103.14-29.39c-65.25-10.04-135.98,5.44-194.07,42.47c-7.69,4.9-17.91,2.64-22.81-5.05
				c-4.9-7.7-2.63-17.91,5.06-22.81c64.75-41.27,143.8-58.5,216.86-47.26c37.85,5.82,74.06,18.56,109.08,30.87
				c0.78,0.28,1.57,0.56,2.36,0.83c6.39,2.25,12.92,4.54,19.35,6.75c4.34,1.49,8.59,2.92,12.78,4.29
				c30.9,10.19,58.14,17.31,86.46,19.6c43.64,3.51,88.68-6.1,128.67-27.23C1709.06,855.9,1710.48,867.49,1711.62,879.17z"/>
		</g>
		<g>
			<path class="st2" d="M1580.17,536.93c-36.46,40.34-63.14,89.56-76.04,140.84c-0.01,0.06-0.02,0.12-0.04,0.19
				c-3.89,15.56-6.57,31.4-7.94,47.08c-1.66,19.24-1.62,39.31-1.58,58.71c0.04,22.34,0.09,45.31-2.36,68.26
				c-0.5,4.62-1.09,9.25-1.82,13.87c-1.27,8.15-8.3,13.98-16.3,13.98c-0.85,0-1.7-0.07-2.56-0.21c-0.97-0.15-1.92-0.38-2.82-0.69
				c-0.05-0.02-0.1-0.04-0.16-0.05c-7.35-2.6-12.05-10.14-10.81-18.12c1.03-6.59,1.79-13.18,2.32-19.83
				c1.55-18.56,1.51-37.45,1.47-57.15c-0.04-20.13-0.09-40.95,1.7-61.66c1.22-13.93,3.35-27.94,6.37-41.82
				c0.76-3.53,1.59-7.05,2.47-10.56c1.99-7.94,4.29-15.85,6.87-23.67c16.37-49.68,44.3-96.68,80.66-135.66
				C1566.68,519.11,1573.53,527.94,1580.17,536.93z"/>
		</g>
		<g>
			<path class="st2" d="M1504.19,677.58c-0.03,0.13-0.06,0.26-0.09,0.38c-0.57,2.2-1.6,4.3-3.12,6.19
				c-3.26,4.06-8.05,6.17-12.88,6.17c-3.63,0-7.29-1.2-10.33-3.64c-2.68-2.16-5.4-4.26-8.14-6.34v-0.01
				c-5.52-4.2-11.19-8.32-17.07-12.6c-12.79-9.29-26.01-18.91-38.29-29.9c-45.39-40.68-74.8-98.8-80.69-159.46
				c-4.52-46.43,4.6-93.84,25.82-135.65c9.66,5.37,19.17,10.97,28.53,16.78c-17.73,35.79-25.32,76.15-21.47,115.67
				c5.1,52.52,30.57,102.83,69.86,138.05c11.01,9.87,22.99,18.57,35.66,27.79c2.31,1.68,4.65,3.38,6.99,5.1
				c6.5,4.76,13.08,9.68,19.49,14.82C1503.57,665.05,1505.59,671.6,1504.19,677.58z"/>
		</g>
		<g>
			<path class="st2" d="M1138.57,575.66c-0.05,0.32-0.11,0.64-0.19,0.96c-7.67,38.53-20.91,75.32-39.34,109.33
				c-12.01,22.14-26.35,43.63-40.23,64.41c-10.91,16.33-22.18,33.23-31.95,49.93c-3.08,5.25-8.6,8.19-14.28,8.19
				c-2.83,0-5.7-0.73-8.32-2.26c-7.88-4.6-10.53-14.72-5.93-22.6c10.26-17.56,21.82-34.86,32.99-51.6
				c13.46-20.16,27.39-41,38.67-61.81c15.47-28.55,26.95-59.26,34.16-91.42c0.68-3.03,1.33-6.08,1.93-9.14
				c1.83-9.21,3.28-18.51,4.38-27.85c4.19-35.58,3.13-71.82-3.22-106.27c-3.48-18.89-8.62-38.11-13.59-56.71
				c-7.58-28.28-15.4-57.53-18.17-87.85c-1.02-11.16-1.18-22.23-0.49-33.11c11.06,0.81,22.03,1.87,32.93,3.19
				c-0.52,8.89-0.36,17.96,0.45,26.92c2.51,27.5,9.63,54.12,17.18,82.31c5.14,19.22,10.47,39.09,14.17,59.26
				C1148.6,477.64,1148.2,526.8,1138.57,575.66z"/>
		</g>
		<g>
			<path class="st2" d="M1138.6,575.47c0,0.06-0.01,0.12-0.03,0.19c-0.05,0.32-0.11,0.64-0.19,0.96c-0.64,2.73-1.97,5.33-4.03,7.51
				c-3.25,3.48-7.65,5.24-12.07,5.24c-4.04,0-8.09-1.48-11.27-4.46c-2.24-2.1-4.53-4.14-6.85-6.13
				c-21.76-18.57-47.01-32.21-73.54-39.68c-20.95-5.88-42.78-8.35-65.87-10.95c-30.74-3.47-62.53-7.05-92.57-19.41
				c-7.99-3.29-15.81-7.21-23.39-11.71c-3.98-2.36-7.9-4.89-11.73-7.57c-5.4-3.77-10.64-7.85-15.7-12.21
				c-31.26-26.88-55.85-64.47-70.18-107.76c-5.47-16.53-9.57-33.73-12.39-52.08c10.36-4.71,20.85-9.16,31.47-13.35
				c2.53,19.7,6.58,37.83,12.27,55.04c14.43,43.55,40.46,80.2,73.34,103.21c0.03,0.02,0.06,0.05,0.1,0.07
				c9.14,6.39,18.81,11.71,28.77,15.8c25.75,10.59,53.9,13.77,83.7,17.13c23.39,2.64,47.59,5.37,71.12,11.98
				c25.11,7.06,49.2,18.82,70.9,34.49c8.05,5.8,15.77,12.15,23.1,18.99C1137.74,564.69,1139.45,570.23,1138.6,575.47z"/>
		</g>
		<g>
			<path class="st2" d="M858.64,487.16c-3.15,3.41-6.44,6.7-9.85,9.88c-17.54,16.37-38.31,29.62-60.75,38.68
				c-22.62,9.14-46.54,13.84-70.01,13.84c-5.01,0-9.99-0.22-14.94-0.65c-58.95-5.14-109.46-36.94-158.31-67.72
				c-6.46-4.07-13.05-8.21-19.64-12.29c7.82-8.18,15.86-16.15,24.08-23.93c4.43,2.77,8.83,5.54,13.17,8.28
				c47.61,29.99,92.58,58.31,143.57,62.76c40.44,3.52,83.21-11.11,115.4-38.75c4.57-3.92,8.93-8.1,13.04-12.54
				c5.65-6.1,14.82-6.97,21.48-2.39c0.03,0.02,0.06,0.05,0.1,0.07c0.61,0.42,1.2,0.9,1.77,1.42
				C864.44,470.02,864.85,480.47,858.64,487.16z"/>
		</g>
		<g>
			<path class="st2" d="M946.5,839.67c-3.12,5.12-8.56,7.94-14.13,7.94c-2.92,0-5.88-0.77-8.57-2.41
				c-29.35-17.85-60.79-31.42-93.44-40.34c-78.92-21.58-164.18-16.31-244.76-9.05l-10.05,0.92c-0.02,0.01-0.04,0.01-0.06,0.01
				c-0.06,0-0.13,0.01-0.2,0.02c-0.05,0-0.11,0.01-0.17,0.01l-11.95,1.09c-17.49,1.62-35.38,3.27-53.31,4.68
				c-7.58,0.61-15.16,1.16-22.73,1.65c-3.82,0.25-7.59,0.47-11.3,0.68c-49.87,2.82-90.34,2.03-127.59-2.5
				c2.31-10.88,4.88-21.67,7.71-32.35c36.97,4.2,77.75,4.54,129.03,1.2h0.07c21.41-1.39,43.18-3.32,64.46-5.26
				c3.55-0.33,7.09-0.66,10.61-0.98l22.48-2.06c0.64-0.06,1.27-0.11,1.91-0.17c83.02-7.44,170.96-12.61,254.54,10.25
				c35.62,9.73,69.9,24.54,101.89,43.98C948.76,821.72,951.24,831.88,946.5,839.67z"/>
		</g>
		<g>
			<path class="st2" d="M579.79,795.73c-1.42,0.54-2.87,0.87-4.3,1.01c-0.06,0-0.13,0.01-0.2,0.02c-0.46,0.03-0.92,0.05-1.38,0.05
				c-6.65,0-12.92-4.05-15.43-10.63c-2.58-6.77-5.56-13.52-8.95-20.22c-11.95-23.76-28.76-46.89-49.38-67.82
				c-26.75-27.15-57.93-49.92-88.91-70.69c5.12-9.81,10.48-19.48,16.05-29.01c33.19,22.16,66.92,46.6,96.39,76.51
				c26.32,26.73,47.18,56.86,60.85,87.79c1.72,3.88,3.32,7.77,4.81,11.66C592.59,782.94,588.31,792.47,579.79,795.73z"/>
		</g>
		<g>
			<path class="st2" d="M503.51,902.73c-19.77,47.95-58.42,83.69-89.88,109.47c-9.95,8.14-20.2,16.12-30.12,23.85
				c-13.29,10.34-26.89,20.93-39.82,32.01c-2.24-12.62-4.13-25.37-5.66-38.22c8.39-6.78,16.86-13.37,25.2-19.85
				c9.75-7.6,19.84-15.45,29.47-23.34c28.47-23.32,63.32-55.37,80.27-96.5c11.74-28.48,12.63-60.19,2.86-85.27
				c-1.26-3.23-2.69-6.35-4.3-9.33c-4.34-8.02-1.33-18.04,6.7-22.37c2.18-1.18,4.5-1.81,6.83-1.95c6.21-0.38,12.39,2.8,15.54,8.65
				c3.83,7.09,6.92,14.7,9.27,22.67C519.02,833.57,516.98,870.05,503.51,902.73z"/>
		</g>
		<g>
			<path class="st2" d="M904.74,964.48c-63.09,9.77-121.73,39.68-165.15,84.25c-40.29,41.34-67.91,94.64-92.28,141.65
				c-0.01,0.03-0.03,0.05-0.04,0.07l-2.7,5.21c-15,28.94-30.5,58.88-48.26,87.03c-26.56,42.11-58.7,80.75-95.75,115.17
				c-7.21-8.35-14.2-16.88-21.01-25.58c34.33-32.12,64.13-68.09,88.82-107.21c14.34-22.73,27.38-47.11,39.91-71.18
				c2.34-4.49,4.67-8.97,6.97-13.42l2.75-5.3c1.99-3.85,4.01-7.73,6.05-11.65c23.99-46.05,51.63-96.51,91.9-137.85
				c48.38-49.66,113.64-82.98,183.76-93.83c9.01-1.39,17.45,4.78,18.84,13.79C919.94,954.65,913.75,963.09,904.74,964.48z"/>
		</g>
		<g>
			<path class="st2" d="M648.55,1187.23c-0.31,1.11-0.73,2.17-1.24,3.15c-0.01,0.03-0.03,0.05-0.04,0.07
				c-3.55,6.77-11.44,10.37-19.09,8.23c-6.61-1.85-13.24-3.45-19.91-4.79c-38.35-7.74-77.47-7.14-114.28,1.87
				c-24.14,5.93-47.13,15.09-71.47,24.78c-9.25,3.7-18.66,7.44-28.22,11.02c-4.54-10.01-8.85-20.16-12.9-30.43
				c9.72-3.63,19.4-7.48,28.89-11.27c24.32-9.69,49.47-19.72,75.85-26.19c44.5-10.9,91.89-10.91,137.9-0.16
				c4.38,1.02,8.73,2.14,13.07,3.35C645.88,1169.33,651,1178.45,648.55,1187.23z"/>
		</g>
		<g>
			<path class="st2" d="M1617.31,1301.11c-6,10.03-12.24,19.9-18.74,29.59c-72.19-17.35-139.89-49.07-197.58-92.8
				c-7.77-5.89-15.68-12.21-23.47-18.79c-0.05-0.03-0.09-0.07-0.14-0.11c-27.81-23.37-53.9-49.2-79.13-74.17
				c-24.1-23.86-49.03-48.52-75.05-70.59c-35.27-29.9-70.6-52.35-105-66.68c-8.41-3.52-12.4-13.18-8.89-21.61
				c3.51-8.42,13.18-12.4,21.61-8.89c37.54,15.66,75.78,39.88,113.65,71.99c26.98,22.89,52.37,48,76.9,72.29
				c20.88,20.67,42.36,41.92,64.64,61.55c4.15,3.69,8.33,7.29,12.54,10.83c4.24,3.57,8.51,7.07,12.77,10.46
				c3.19,2.53,6.37,5,9.53,7.39C1477.94,1254.76,1545.41,1285.48,1617.31,1301.11z"/>
		</g>
		<g>
			<path class="st2" d="M1690.99,1127.73c-3.09,11.42-6.46,22.72-10.12,33.9c-23.82,1.37-47.83,0.46-72.2-0.77l-5.34-0.27
				c-44.45-2.27-90.41-4.61-131.84,7.91c-23.43,7.08-44.62,19.77-60.09,35.7c-3.69,3.79-7.04,7.75-10.02,11.87
				c-3.23,4.46-8.27,6.83-13.39,6.83c-3.35,0-6.75-1.02-9.67-3.15c-0.28-0.21-0.55-0.41-0.82-0.63c-6.69-5.49-8.02-15.33-2.87-22.43
				c3.46-4.77,7.29-9.37,11.46-13.78c19.54-20.73,46.35-37.12,75.85-46.03c46.93-14.18,95.8-11.69,143.07-9.28l5.32,0.27
				C1637.9,1129.26,1664.91,1130.24,1690.99,1127.73z"/>
		</g>
	</g>
	<circle class="st3" cx="1023.96" cy="917.06" r="125.63"/>
	<rect x="567.32" y="1465.36" class="st4" width="911.28" height="233.94"/>
	<path class="st5" d="M1600.03,1792H445.88v-43.32c0-66.27,53.73-120,120-120h914.15c66.27,0,120,53.73,120,120V1792z"/>
</g>
</svg>
