<?xml version="1.0" encoding="utf-8"?>
<!-- Generator: Adobe Illustrator 23.0.2, SVG Export Plug-In . SVG Version: 6.00 Build 0)  -->
<svg version="1.1" id="Layer_1" xmlns="http://www.w3.org/2000/svg" xmlns:xlink="http://www.w3.org/1999/xlink" x="0px" y="0px"
	 viewBox="0 0 2048 2048" style="enable-background:new 0 0 2048 2048;" xml:space="preserve">
<style type="text/css">
	.st0{fill:#D6DDE6;}
	.st1{fill:#F5DF7F;}
	.st2{fill:#FFAA5F;}
</style>
<g>
	<g>
		<path class="st0" d="M702.49,1194.1c-9.12,0-16.52-7.39-16.52-16.52v-707.6c0-9.12,7.39-16.52,16.52-16.52
			c9.12,0,16.52,7.39,16.52,16.52v707.6C719.01,1186.7,711.61,1194.1,702.49,1194.1z"/>
	</g>
	<circle class="st1" cx="702.49" cy="1177.58" r="80.27"/>
	<g>
		<path class="st0" d="M863.03,1194.1c-9.12,0-16.52-7.39-16.52-16.52v-707.6c0-9.12,7.39-16.52,16.52-16.52
			c9.12,0,16.52,7.39,16.52,16.52v707.6C879.54,1186.7,872.15,1194.1,863.03,1194.1z"/>
	</g>
	<circle class="st1" cx="863.03" cy="1177.58" r="80.27"/>
	<g>
		<path class="st0" d="M1023.56,1194.1c-9.12,0-16.52-7.39-16.52-16.52v-707.6c0-9.12,7.39-16.52,16.52-16.52
			s16.52,7.39,16.52,16.52v707.6C1040.08,1186.7,1032.68,1194.1,1023.56,1194.1z"/>
	</g>
	<circle class="st1" cx="1023.56" cy="1177.58" r="80.27"/>
	<g>
		<path class="st0" d="M1345.48,1173.4c-7.33,0-14.03-4.92-15.97-12.35l-181.37-695.16c-2.3-8.83,2.98-17.85,11.81-20.15
			c8.82-2.3,17.85,2.99,20.15,11.81l181.37,695.16c2.3,8.83-2.98,17.85-11.81,20.15C1348.26,1173.22,1346.86,1173.4,1345.48,1173.4z
			"/>
	</g>
	<circle class="st1" cx="1345.49" cy="1156.87" r="80.27"/>
	<g>
		<path class="st0" d="M1703.35,1584.27c-9.12,0-16.52-7.39-16.52-16.52V552.56c0-36.43-29.64-66.06-66.06-66.06H427.23
			c-36.43,0-66.06,29.64-66.06,66.06v1015.19c0,9.12-7.39,16.52-16.52,16.52c-9.12,0-16.52-7.39-16.52-16.52V552.56
			c0-54.64,44.45-99.1,99.1-99.1h1193.54c54.64,0,99.1,44.45,99.1,99.1v1015.19C1719.87,1576.87,1712.47,1584.27,1703.35,1584.27z"
			/>
	</g>
	<rect x="256" y="1509.7" class="st2" width="1536" height="136.65"/>
	<path class="st2" d="M1505.11,538.3H542.89c-36.55,0-66.19-29.63-66.19-66.19v-4.27c0-36.55,29.63-66.19,66.19-66.19h962.23
		c36.55,0,66.19,29.63,66.19,66.19v4.27C1571.3,508.67,1541.67,538.3,1505.11,538.3z"/>
</g>
</svg>
