<?xml version="1.0" encoding="utf-8"?>
<!-- Generator: Adobe Illustrator 23.0.2, SVG Export Plug-In . SVG Version: 6.00 Build 0)  -->
<svg version="1.1" id="Layer_1" xmlns="http://www.w3.org/2000/svg" xmlns:xlink="http://www.w3.org/1999/xlink" x="0px" y="0px"
	 viewBox="0 0 2048 2048" style="enable-background:new 0 0 2048 2048;" xml:space="preserve">
<style type="text/css">
	.st0{fill:#5C9EFF;}
	.st1{fill:#FF725C;}
	.st2{fill:#72C5FF;}
</style>
<g>
	<g>
		<path class="st0" d="M1024,1518.26c-40.86,0-80.71-11.25-118.45-33.45c-35.87-21.09-68.84-51.48-98-90.32
			c-57.79-76.95-96.99-183.3-110.38-299.46c-1.05-9.11,5.48-17.35,14.59-18.4c9.12-1.06,17.35,5.48,18.4,14.59
			c12.73,110.39,49.64,211.01,103.94,283.32c53.51,71.26,120.95,110.5,189.9,110.5s136.39-39.24,189.89-110.5
			c54.3-72.31,91.22-172.93,103.94-283.32c1.05-9.11,9.28-15.66,18.4-14.59c9.11,1.05,15.64,9.29,14.59,18.4
			c-13.39,116.16-52.59,222.51-110.38,299.46c-29.16,38.84-62.14,69.22-98,90.32C1104.71,1507.01,1064.86,1518.26,1024,1518.26z"/>
	</g>
	<g>
		<path class="st0" d="M1334.31,971.48c-8.32,0-15.5-6.24-16.48-14.71c-12.73-110.39-49.64-211.01-103.94-283.32
			c-53.51-71.25-120.95-110.5-189.89-110.5s-136.39,39.24-189.9,110.5c-54.3,72.31-91.22,172.93-103.94,283.32
			c-1.05,9.11-9.29,15.64-18.4,14.59c-9.11-1.05-15.64-9.29-14.59-18.4c13.39-116.16,52.59-222.51,110.38-299.46
			c29.16-38.84,62.14-69.22,98-90.32c37.74-22.19,77.59-33.45,118.45-33.45s80.71,11.25,118.45,33.45
			c35.87,21.09,68.84,51.48,98,90.32c57.79,76.95,96.99,183.3,110.38,299.46c1.05,9.11-5.48,17.35-14.59,18.4
			C1335.59,971.44,1334.95,971.48,1334.31,971.48z"/>
	</g>
	<g>
		<path class="st0" d="M831.99,971.48c-1.05,0-2.12-0.1-3.19-0.31c-9-1.75-14.88-10.47-13.13-19.47c2.93-15.05,6.64-30,11.04-44.46
			c12.35-40.61,29.77-76.74,51.78-107.37c23.49-32.67,73.62-87.46,145.51-87.46s122.02,54.79,145.51,87.45
			c22.01,30.64,39.43,66.77,51.78,107.38c4.4,14.46,8.11,29.41,11.04,44.46c1.75,9-4.12,17.72-13.13,19.47
			c-9,1.75-17.72-4.12-19.47-13.13c-2.71-13.93-6.15-27.78-10.22-41.15c-11.29-37.12-27.1-69.98-46.98-97.66
			c-19.77-27.49-61.46-73.63-118.54-73.63c-57.08,0-98.77,46.13-118.54,73.63c-19.88,27.67-35.68,60.53-46.98,97.65
			c-4.07,13.37-7.5,27.21-10.21,41.14C846.72,965.97,839.77,971.48,831.99,971.48z"/>
	</g>
	<g>
		<path class="st0" d="M1024,1335.6c-71.89,0-122.02-54.79-145.51-87.45c-22.01-30.64-39.43-66.77-51.78-107.38
			c-4.4-14.46-8.11-29.42-11.04-44.46c-1.75-9,4.12-17.72,13.13-19.47c9-1.76,17.72,4.12,19.47,13.13
			c2.71,13.93,6.15,27.77,10.22,41.15c11.29,37.12,27.1,69.98,46.98,97.66c19.77,27.49,61.46,73.62,118.54,73.62
			c57.08,0,98.77-46.13,118.54-73.63c19.88-27.67,35.69-60.53,46.98-97.65c4.07-13.37,7.5-27.21,10.22-41.15
			c1.75-9,10.48-14.88,19.47-13.13c9,1.75,14.88,10.47,13.13,19.47c-2.93,15.05-6.64,30.01-11.04,44.46
			c-12.35,40.61-29.77,76.73-51.78,107.37C1146.02,1280.8,1095.89,1335.6,1024,1335.6z"/>
	</g>
	<g>
		<path class="st0" d="M670.07,1040.61H272.61c-9.17,0-16.61-7.43-16.61-16.61c0-9.17,7.43-16.61,16.61-16.61h397.46
			c9.17,0,16.61,7.43,16.61,16.61C686.68,1033.17,679.24,1040.61,670.07,1040.61z"/>
	</g>
	<g>
		<g>
			<path class="st0" d="M1775.39,1040.61h-397.46c-9.17,0-16.61-7.43-16.61-16.61c0-9.17,7.43-16.61,16.61-16.61h397.46
				c9.17,0,16.61,7.43,16.61,16.61C1792,1033.17,1784.57,1040.61,1775.39,1040.61z"/>
		</g>
		<g>
			<g>
				<path class="st0" d="M1377.91,1003.4c-8.49,0-15.73-6.47-16.52-15.09c-0.83-9.11,5.86-17.17,14.95-18.04
					c0.84-0.09,47.27-5.38,99.26-48.37c69.8-57.71,118.04-156.98,139.53-287.06c1.49-9.05,10.04-15.17,19.09-13.68
					c9.05,1.49,15.17,10.04,13.68,19.09c-12.77,77.35-34.47,144.46-64.49,199.47c-24.34,44.6-54.19,81.44-88.72,109.47
					c-59.8,48.56-113.01,53.93-115.25,54.14C1378.93,1003.38,1378.42,1003.4,1377.91,1003.4z"/>
			</g>
			<g>
				<path class="st0" d="M1631.5,1427.06c-7.98,0-15.02-5.77-16.36-13.9c-21.48-130.08-69.73-229.35-139.53-287.06
					c-52.21-43.17-98.81-48.32-99.27-48.37c-9.13-0.84-15.82-8.91-14.98-18.05c0.84-9.13,8.94-15.85,18.09-15.02
					c2.24,0.2,55.45,5.58,115.25,54.14c34.53,28.04,64.38,64.87,88.72,109.47c30.02,55.01,51.72,122.12,64.49,199.47
					c1.49,9.05-4.63,17.59-13.68,19.09C1633.31,1426.99,1632.4,1427.06,1631.5,1427.06z"/>
			</g>
		</g>
	</g>
	<g>
		<g>
			<path class="st0" d="M670.07,1040.61H272.61c-9.17,0-16.61-7.43-16.61-16.61c0-9.17,7.43-16.61,16.61-16.61h397.46
				c9.17,0,16.61,7.43,16.61,16.61C686.68,1033.17,679.24,1040.61,670.07,1040.61z"/>
		</g>
		<g>
			<g>
				<path class="st0" d="M670.09,1003.4c-0.51,0-1.02-0.02-1.53-0.07c-2.24-0.2-55.45-5.57-115.25-54.14
					c-34.53-28.04-64.38-64.87-88.72-109.47c-30.02-55.01-51.72-122.12-64.49-199.47c-1.49-9.05,4.63-17.6,13.68-19.09
					c9.04-1.5,17.59,4.63,19.09,13.68c27.39,165.86,92,248.48,141.38,288.58c52.04,42.26,96.89,46.8,97.34,46.84
					c9.13,0.84,15.86,8.92,15.02,18.05C685.82,996.93,678.58,1003.4,670.09,1003.4z"/>
			</g>
			<g>
				<path class="st0" d="M416.5,1427.06c-0.9,0-1.81-0.07-2.73-0.22c-9.05-1.49-15.17-10.04-13.68-19.09
					c12.77-77.35,34.47-144.46,64.49-199.47c24.34-44.6,54.19-81.44,88.72-109.47c59.8-48.56,113.01-53.93,115.25-54.14
					c9.13-0.82,17.21,5.89,18.05,15.02c0.83,9.11-5.85,17.17-14.95,18.04c-0.84,0.09-47.27,5.38-99.26,48.37
					c-69.8,57.71-118.04,156.98-139.53,287.06C431.52,1421.29,424.48,1427.06,416.5,1427.06z"/>
			</g>
		</g>
	</g>
	<g>
		<rect x="649.31" y="945.54" class="st1" width="374.69" height="156.92"/>
		<rect x="1024" y="945.54" class="st2" width="374.69" height="156.92"/>
	</g>
</g>
</svg>
