<?xml version="1.0" encoding="utf-8"?>
<!-- Generator: Adobe Illustrator 23.0.2, SVG Export Plug-In . SVG Version: 6.00 Build 0)  -->
<svg version="1.1" id="Layer_1" xmlns="http://www.w3.org/2000/svg" xmlns:xlink="http://www.w3.org/1999/xlink" x="0px" y="0px"
	 viewBox="0 0 2048 2048" style="enable-background:new 0 0 2048 2048;" xml:space="preserve">
<style type="text/css">
	.st0{fill:#FFAA5F;}
	.st1{fill:#FFE783;}
	.st2{fill:#5C9EFF;}
</style>
<g>
	<path class="st0" d="M1792,1637.7c-52.08-2.78-95.61-26.39-131.1-52.09c-35.52-25.72-64.88-56.05-88.11-88.1
		c-4.25-5.86-8.29-11.81-12.06-17.84c-41.76-66.79-68.24-140.42-88.47-211.77c-26.82-94.63-61.91-188.1-106.45-279.26
		c-19.01-38.91-39.43-77.55-64.79-114.61c-34.81-50.87-80.26-105.41-150.71-134.58c-16.84-6.97-34.85-12.51-53.54-16.37
		c-37.26-7.7-76.96-8.84-115.26-4.48c-36.74,4.19-72.69,13.74-103.22,29.08c-32.36,16.26-58.43,40.05-80.58,63.21
		c-5.65,5.9-11.06,11.92-16.29,18.02c-37.42,43.65-64.86,91.35-89.12,139.38c-3.42,6.77-6.78,13.56-10.1,20.36
		c-44.55,91.16-79.63,184.64-106.45,279.26c-20.22,71.34-46.71,144.97-88.47,211.77c-3.77,6.03-7.81,11.97-12.06,17.84
		c-23.23,32.04-52.59,62.38-88.11,88.1c-35.5,25.7-79.03,49.3-131.1,52.09H1792z"/>
	<circle class="st1" cx="1024" cy="563.19" r="152.89"/>
	<g>
		<g>
			<g>
				<g>
					<path class="st2" d="M301.81,1158.77c-3.64,0-7.33-0.96-10.67-2.99c-9.75-5.91-12.87-18.6-6.97-28.35l231.67-382.64
						c5.91-9.75,18.6-12.87,28.35-6.97c9.75,5.91,12.87,18.6,6.97,28.35l-231.67,382.64
						C315.61,1155.22,308.8,1158.77,301.81,1158.77z"/>
				</g>
				<g>
					<path class="st2" d="M548.62,894.15c-10.23,0-19.11-7.6-20.45-18.02l-11.84-92.27l-87.25,32.28
						c-10.7,3.95-22.57-1.51-26.53-12.2c-3.96-10.69,1.51-22.57,12.2-26.53l111.59-41.28c5.9-2.18,12.47-1.56,17.86,1.7
						c5.38,3.26,8.98,8.79,9.78,15.03l15.14,118.01c1.45,11.31-6.54,21.65-17.85,23.11C550.38,894.09,549.49,894.15,548.62,894.15z"
						/>
				</g>
			</g>
		</g>
		<g>
			<g>
				<g>
					<path class="st2" d="M1722.29,1195.54c-7.53,0-14.79-4.14-18.43-11.32l-202.22-398.98c-5.15-10.17-1.09-22.59,9.08-27.75
						c10.17-5.15,22.59-1.09,27.75,9.08l202.22,398.98c5.15,10.17,1.09,22.59-9.08,27.75
						C1728.61,1194.83,1725.43,1195.54,1722.29,1195.54z"/>
				</g>
				<g>
					<path class="st2" d="M1722.27,1195.54c-2.93,0-5.87-0.62-8.6-1.88l-108.17-49.56c-10.37-4.75-14.92-17-10.17-27.37
						c4.75-10.37,17-14.92,27.37-10.17l84.58,38.75l18.75-91.12c2.3-11.17,13.21-18.36,24.38-16.06
						c11.17,2.3,18.36,13.21,16.06,24.38l-23.98,116.54c-1.27,6.16-5.28,11.41-10.89,14.25
						C1728.68,1194.79,1725.48,1195.54,1722.27,1195.54z"/>
				</g>
			</g>
		</g>
	</g>
</g>
</svg>
