<?xml version="1.0" encoding="utf-8"?>
<!-- Generator: Adobe Illustrator 23.0.2, SVG Export Plug-In . SVG Version: 6.00 Build 0)  -->
<svg version="1.1" id="Layer_1" xmlns="http://www.w3.org/2000/svg" xmlns:xlink="http://www.w3.org/1999/xlink" x="0px" y="0px"
	 viewBox="0 0 2048 2048" style="enable-background:new 0 0 2048 2048;" xml:space="preserve">
<style type="text/css">
	.st0{fill:#FF725C;}
	.st1{fill:#CC5B4A;}
	.st2{fill:#FFE783;}
</style>
<g>
	<path class="st0" d="M1769.42,1197.46c-4.22,18.05-9.08,35.91-14.58,53.54c-78.88,253.12-287.28,458.16-564.64,519.88
		c-110.96,24.69-221.66,23.93-325.98,1.58c-18.71-4-37.22-8.7-55.49-14.08c-166.25-48.89-312.63-153.42-412.61-296.73
		c-11.08-15.88-21.59-32.25-31.49-49.07c-39.69-67.35-69.63-141.98-87.53-222.4c-9.95-44.71-15.77-89.36-17.69-133.57
		c-0.76-17.28-0.93-34.5-0.51-51.63c1.46-60.89,10.22-120.61,25.61-178.11c5.1-19.11,10.94-37.98,17.5-56.56
		c84.84-240.78,288.23-433.68,555.78-493.22c78.59-17.49,157.05-22.21,233.21-15.53c17.69,1.54,35.26,3.71,52.68,6.48
		c156.27,24.78,300.36,97.67,412.64,206.21c11.91,11.5,23.46,23.41,34.63,35.72c83.01,91.38,144.96,204.07,176.23,331.95
		c1.29,5.27,2.52,10.55,3.7,15.87c2.41,10.83,4.58,21.65,6.5,32.47C1796.09,995.17,1792.34,1099.28,1769.42,1197.46z"/>
	<g>
		<path class="st1" d="M1143.68,268.06c-22.74,44.32-57.27,88.34-99.76,126.34c-66.76,59.68-148.17,100.02-229.23,113.57
			c-17.8,2.97-44.68,7.47-80.03,17.79c-50.58,14.77-85.13,51.41-128.87,97.8c-36.36,38.56-77.57,82.26-136.86,121.72
			c-53.67,35.72-114.4,62.62-184.42,81.6c5.1-19.11,10.94-37.98,17.5-56.56c139.39-44.41,207.04-116.15,267.85-180.64
			c45-47.72,87.51-92.8,150.97-111.32c38.15-11.14,67.93-16.12,85.73-19.09c71.95-12.04,144.57-48.15,204.46-101.68
			c32.93-29.43,60.33-62.54,79.99-96.02C1108.7,263.12,1126.27,265.29,1143.68,268.06z"/>
	</g>
	<g>
		<path class="st1" d="M1590.96,509.98c-71.59,54.16-149.71,109.05-280.59,154.25c-90.51,31.27-179.16,47.19-257.38,61.25
			c-71.37,12.82-133.01,23.9-182.99,43.48c-39.68,15.54-76.07,46.95-114.54,98.82c-13.49,18.19-25.21,37.86-37.63,58.71
			c-13.99,23.49-28.46,47.78-45.75,69.85c-37.77,48.18-101.39,80.18-170.19,85.59c-18.67,1.47-37.08,2.2-55.32,2.2
			c-45.67,0-90.24-4.62-135.01-13.94c-17.79-3.7-35.19-8.59-52.13-13.56c-0.76-17.28-0.93-34.5-0.51-51.63c1.5,0.44,3,0.88,4.5,1.33
			c20,5.91,38.89,11.5,58.21,15.52c58.01,12.08,115.71,15.63,176.39,10.85c55.27-4.35,105.81-29.33,135.21-66.83
			c15.35-19.59,28.39-41.48,42.21-64.66c12.49-20.96,25.41-42.65,40.39-62.84c44.23-59.65,87.5-96.31,136.18-115.38
			c54.49-21.35,121.41-33.38,192.27-46.11c76.45-13.73,163.1-29.3,250-59.31c120.72-41.69,194.85-92.67,262.07-143.29
			C1568.23,485.77,1579.78,497.68,1590.96,509.98z"/>
	</g>
	<g>
		<path class="st1" d="M1767.19,841.93c-72.17,11.36-190.08,34.14-285.59,65.56c-214.06,70.43-437.58,192.81-664.33,363.71
			c-124.38,93.74-283.22,143.02-452.63,141.4c9.9,16.82,20.41,33.18,31.49,49.07c64.91-1.78,128.65-10.75,190.45-26.85
			c96.99-25.27,184.61-67.06,260.42-124.19c222.42-167.64,441.12-287.5,650.04-356.25c93.11-30.62,211.05-53.22,280.36-64.11
			L1767.19,841.93z"/>
	</g>
	<g>
		<path class="st1" d="M1769.42,1197.46c-4.22,18.05-9.08,35.91-14.58,53.54c-61.9,14.41-124.71,38.87-185,72.3
			c-39.59,21.95-80.56,46.11-108.15,78.83c-33.4,39.58-66.66,72.48-101.69,100.58c-88.18,70.74-186.47,107.7-262.25,132.01
			c-43.66,14-77.83,28.58-117.96,50.31c-38.32,20.75-77.96,50.86-115.57,87.44c-18.71-4-37.22-8.7-55.49-14.08
			c46.88-49.33,98.05-89.97,147.54-116.77c42.44-22.98,80.24-39.11,126.39-53.91c71.73-23,164.56-57.83,246.44-123.5
			c32.51-26.08,63.53-56.8,94.84-93.92c33-39.1,80.25-67.05,121.96-90.16C1618.48,1239.89,1694.74,1211.77,1769.42,1197.46z"/>
	</g>
	<g>
		<path class="st2" d="M1749.56,298.44c-36.2-36.2-91.47-49.33-164.26-39.04c-63.18,8.93-138.13,35.28-222.87,78.34
			c18.1,8.94,35.85,18.59,53.17,28.93c67.1-31.67,126.37-51.27,176.61-58.38c13.8-1.95,26.69-2.93,38.65-2.93
			c37.06,0,65.16,9.37,83.78,27.99c24.64,24.64,33.06,65.83,25.06,122.43c-7.1,50.18-26.65,109.38-58.26,176.37
			c-6.01,12.76-12.47,25.8-19.35,39.11c-90.06,174.1-242.86,373.19-430.25,560.59c-187.4,187.39-386.49,340.19-560.59,430.25
			c-13.24,6.84-26.2,13.26-38.88,19.25c-67.09,31.67-126.36,51.27-176.6,58.37c-56.61,8-97.79-0.42-122.43-25.06
			c-24.64-24.64-33.06-65.83-25.06-122.43c7.1-50.19,26.66-109.39,58.27-176.39c-0.65-1.07-1.29-2.15-1.92-3.23
			c-9.58-16.24-18.58-32.92-26.98-49.99c-43.02,84.68-69.33,159.57-78.26,222.7c-10.3,72.79,2.84,128.06,39.04,164.26
			c28.24,28.23,68.07,42.43,118.77,42.43c14.3,0,29.47-1.13,45.49-3.39c63.18-8.93,138.13-35.28,222.87-78.35
			c2.79-1.41,5.59-2.85,8.39-4.3c178.49-92.32,381.92-248.3,572.81-439.19s346.86-394.32,439.19-572.81
			c1.48-2.87,2.94-5.72,4.39-8.57c43.02-84.67,69.33-159.56,78.26-222.69C1798.9,389.89,1785.76,334.64,1749.56,298.44z"/>
	</g>
</g>
</svg>
