<?xml version="1.0" encoding="utf-8"?>
<!-- Generator: Adobe Illustrator 23.0.2, SVG Export Plug-In . SVG Version: 6.00 Build 0)  -->
<svg version="1.1" id="Layer_1" xmlns="http://www.w3.org/2000/svg" xmlns:xlink="http://www.w3.org/1999/xlink" x="0px" y="0px"
	 viewBox="0 0 2048 2048" style="enable-background:new 0 0 2048 2048;" xml:space="preserve">
<style type="text/css">
	.st0{fill:#EAF1FA;}
	.st1{fill:#FF725C;}
	.st2{fill:#BFC4CC;}
</style>
<g>
	<path class="st0" d="M1269.1,1548.18C1268.4,1683.45,1159.27,1792,1024,1792c-135.36,0-245.1-109.74-245.1-245.1
		c0-86.14,44.44-161.92,111.66-205.61V389.45C890.55,315.75,950.3,256,1024,256c36.85,0,70.21,14.93,94.36,39.08
		c24.15,24.15,39.08,57.51,39.08,94.36v951.84C1224.99,1385.2,1269.55,1461.51,1269.1,1548.18z"/>
	<g>
		<circle class="st1" cx="1024" cy="1546.89" r="104.63"/>
		<g>
			<path class="st1" d="M1024,1565.61c-10.33,0-18.71-8.38-18.71-18.71V399.2c0-10.33,8.38-18.71,18.71-18.71
				c10.33,0,18.71,8.38,18.71,18.71v1147.69C1042.71,1557.23,1034.33,1565.61,1024,1565.61z"/>
		</g>
	</g>
	<g>
		<g>
			<g>
				<path class="st2" d="M1157.44,434v37.42h-47.26c-10.34,0-18.71-8.37-18.71-18.71c0-10.34,8.37-18.71,18.71-18.71H1157.44z"/>
			</g>
			<g>
				<path class="st2" d="M1157.44,566.29v37.42h-47.26c-10.34,0-18.71-8.37-18.71-18.71c0-10.33,8.37-18.71,18.71-18.71H1157.44z"/>
			</g>
			<g>
				<path class="st2" d="M1157.44,698.59v37.42h-47.26c-10.34,0-18.71-8.37-18.71-18.71c0-10.34,8.37-18.71,18.71-18.71H1157.44z"/>
			</g>
			<g>
				<path class="st2" d="M1157.44,830.88v37.42h-47.26c-10.34,0-18.71-8.37-18.71-18.71c0-10.33,8.37-18.71,18.71-18.71H1157.44z"/>
			</g>
			<g>
				<path class="st2" d="M1157.44,963.18v37.42h-47.26c-10.34,0-18.71-8.37-18.71-18.71c0-10.34,8.37-18.71,18.71-18.71H1157.44z"/>
			</g>
			<g>
				<path class="st2" d="M1157.44,1095.46v37.42h-47.26c-10.34,0-18.71-8.37-18.71-18.71c0-10.33,8.37-18.71,18.71-18.71H1157.44z"
					/>
			</g>
			<g>
				<path class="st2" d="M1157.44,1227.76v37.42h-47.26c-10.34,0-18.71-8.37-18.71-18.71c0-10.34,8.37-18.71,18.71-18.71H1157.44z"
					/>
			</g>
		</g>
	</g>
</g>
</svg>
