<?xml version="1.0" encoding="utf-8"?>
<!-- Generator: Adobe Illustrator 23.0.2, SVG Export Plug-In . SVG Version: 6.00 Build 0)  -->
<svg version="1.1" id="Layer_1" xmlns="http://www.w3.org/2000/svg" xmlns:xlink="http://www.w3.org/1999/xlink" x="0px" y="0px"
	 viewBox="0 0 2048 2048" style="enable-background:new 0 0 2048 2048;" xml:space="preserve">
<style type="text/css">
	.st0{fill:#DBE2EB;}
	.st1{fill:#FF725C;}
	.st2{fill:#EEF5FF;}
	.st3{fill:#72C5FF;}
</style>
<g>
	<g>
		<g>
			<g>
				<path class="st0" d="M1024,1552.09c-141.06,0-273.67-54.93-373.41-154.67c-99.74-99.74-154.67-232.36-154.67-373.41
					s54.93-273.67,154.67-373.41S882.94,495.91,1024,495.91s273.67,54.93,373.41,154.67c99.74,99.74,154.67,232.36,154.67,373.41
					s-54.93,273.67-154.67,373.41C1297.67,1497.16,1165.06,1552.09,1024,1552.09z M1024,543.92
					c-128.23,0-248.79,49.94-339.47,140.61C593.86,775.21,543.92,895.77,543.92,1024s49.94,248.79,140.61,339.47
					c90.67,90.67,211.23,140.61,339.47,140.61s248.79-49.94,339.47-140.61c90.67-90.67,140.61-211.23,140.61-339.47
					s-49.94-248.79-140.61-339.47C1272.79,593.86,1152.23,543.92,1024,543.92z"/>
			</g>
			<g>
				<path class="st0" d="M1024,1792c-205.14,0-398-79.89-543.06-224.94C335.89,1422,256,1229.14,256,1024
					c0-205.14,79.89-398,224.94-543.06C626,335.89,818.86,256,1024,256c205.14,0,398,79.89,543.06,224.94
					C1712.11,626,1792,818.86,1792,1024c0,205.14-79.89,398-224.94,543.06S1229.14,1792,1024,1792z M1024,304.01
					c-192.32,0-373.12,74.89-509.11,210.88C378.9,650.88,304.01,831.68,304.01,1024c0,192.32,74.89,373.12,210.88,509.11
					c135.99,135.99,316.79,210.88,509.11,210.88c192.32,0,373.12-74.89,509.11-210.88s210.88-316.79,210.88-509.11
					c0-192.32-74.89-373.12-210.88-509.11C1397.12,378.9,1216.32,304.01,1024,304.01z"/>
			</g>
		</g>
	</g>
	<path class="st1" d="M1024,1288.04c-35.33,0-69.36-6.68-101.15-19.85c-31.79-13.17-60.58-32.51-85.56-57.49
		c-24.98-24.98-44.32-53.77-57.49-85.56c-13.17-31.79-19.85-65.82-19.85-101.15s6.68-69.36,19.85-101.15
		c13.17-31.79,32.51-60.58,57.49-85.56c24.98-24.98,53.77-44.32,85.56-57.49c31.79-13.17,65.82-19.85,101.15-19.85
		s69.36,6.68,101.15,19.85c31.79,13.17,60.58,32.51,85.56,57.49c24.98,24.98,44.32,53.76,57.49,85.56
		c13.17,31.79,19.85,65.82,19.85,101.15s-6.68,69.36-19.85,101.15c-13.17,31.79-32.51,60.58-57.49,85.56
		c-24.98,24.98-53.77,44.32-85.56,57.49C1093.36,1281.37,1059.33,1288.04,1024,1288.04z"/>
	<g>
		<g>
			<path class="st2" d="M1024,1144.18c-11.05,0-20-8.96-20-20V923.82c0-11.05,8.96-20,20-20c11.05,0,20,8.96,20,20v200.35
				C1044,1135.22,1035.05,1144.18,1024,1144.18z"/>
		</g>
		<g>
			<path class="st2" d="M1124.18,1044H923.82c-11.05,0-20-8.96-20-20c0-11.05,8.96-20,20-20h200.35c11.05,0,20,8.96,20,20
				C1144.18,1035.05,1135.22,1044,1124.18,1044z"/>
		</g>
	</g>
	<circle class="st3" cx="476.63" cy="519.92" r="130.06"/>
	<g>
		<path class="st2" d="M512.28,539.92h-71.29c-11.05,0-20-8.96-20-20c0-11.05,8.96-20,20-20h71.29c11.05,0,20,8.96,20,20
			C532.28,530.97,523.33,539.92,512.28,539.92z"/>
	</g>
</g>
</svg>
