<?xml version="1.0" encoding="utf-8"?>
<!-- Generator: Adobe Illustrator 23.0.2, SVG Export Plug-In . SVG Version: 6.00 Build 0)  -->
<svg version="1.1" id="Layer_1" xmlns="http://www.w3.org/2000/svg" xmlns:xlink="http://www.w3.org/1999/xlink" x="0px" y="0px"
	 viewBox="0 0 2048 2048" style="enable-background:new 0 0 2048 2048;" xml:space="preserve">
<style type="text/css">
	.st0{fill:#E0E7F0;}
	.st1{fill:#5B7880;}
	.st2{fill:#FF725C;}
	.st3{fill:#5C9EFF;}
</style>
<g>
	<rect x="538.59" y="1441.91" class="st0" width="970.82" height="279.69"/>
	<rect x="929.69" y="370.16" class="st0" width="188.63" height="225.86"/>
	<path class="st1" d="M1705.57,1792H342.43v-47.16c0-66.27,53.73-120,120-120h1123.14c66.27,0,120,53.73,120,120V1792z"/>
	<path class="st2" d="M1236.69,1441.91H811.31c-53.16,0-96.25-43.09-96.25-96.25v-6.21c0-53.16,43.09-96.25,96.25-96.25h425.39
		c53.16,0,96.25,43.09,96.25,96.25v6.21C1332.94,1398.81,1289.85,1441.91,1236.69,1441.91z"/>
	<path class="st1" d="M1429.14,407.39H618.86c-66.27,0-120-53.73-120-120V256h1050.28v31.39
		C1549.14,353.67,1495.42,407.39,1429.14,407.39z"/>
	<rect x="749.91" y="558.78" class="st1" width="548.18" height="555.1"/>
	<path class="st0" d="M1334.98,1243.2H713.02c-35.71,0-64.66-28.95-64.66-64.66v0c0-35.71,28.95-64.66,64.66-64.66h621.95
		c35.71,0,64.66,28.95,64.66,64.66v0C1399.63,1214.26,1370.69,1243.2,1334.98,1243.2z"/>
	<g>
		<g>
			<g>
				<g>
					<path class="st3" d="M1521.89,957.41c-11.4,0-20.65-9.24-20.65-20.65V735.9c0-11.4,9.24-20.65,20.65-20.65
						s20.65,9.24,20.65,20.65v200.86C1542.54,948.17,1533.3,957.41,1521.89,957.41z"/>
				</g>
				<g>
					<path class="st3" d="M1521.89,957.41c-5.72,0-11.18-2.37-15.09-6.55l-71.18-76.2c-7.78-8.33-7.34-21.4,0.99-29.18
						c8.33-7.78,21.4-7.34,29.18,0.99l56.1,60.05l56.1-60.05c7.79-8.33,20.85-8.78,29.18-0.99c8.33,7.78,8.78,20.85,0.99,29.18
						l-71.18,76.2C1533.08,955.04,1527.61,957.41,1521.89,957.41z"/>
				</g>
			</g>
		</g>
		<g>
			<g>
				<g>
					<path class="st3" d="M526.11,957.41c-11.4,0-20.65-9.24-20.65-20.65V735.9c0-11.4,9.24-20.65,20.65-20.65
						c11.4,0,20.65,9.24,20.65,20.65v200.86C546.75,948.17,537.51,957.41,526.11,957.41z"/>
				</g>
				<g>
					<path class="st3" d="M526.11,957.41c-5.72,0-11.18-2.37-15.09-6.55l-71.18-76.2c-7.78-8.33-7.34-21.4,0.99-29.18
						c8.33-7.78,21.4-7.34,29.18,0.99l56.1,60.05l56.1-60.05c7.78-8.33,20.85-8.78,29.18-0.99c8.33,7.78,8.78,20.85,0.99,29.18
						l-71.18,76.2C537.29,955.04,531.83,957.41,526.11,957.41z"/>
				</g>
			</g>
		</g>
	</g>
</g>
</svg>
