<?xml version="1.0" encoding="utf-8"?>
<!-- Generator: Adobe Illustrator 23.0.2, SVG Export Plug-In . SVG Version: 6.00 Build 0)  -->
<svg version="1.1" id="Layer_1" xmlns="http://www.w3.org/2000/svg" xmlns:xlink="http://www.w3.org/1999/xlink" x="0px" y="0px"
	 viewBox="0 0 2048 2048" style="enable-background:new 0 0 2048 2048;" xml:space="preserve">
<style type="text/css">
	.st0{fill:#FF725C;}
	.st1{fill:#EAF1FA;}
	.st2{fill:#5A7A80;}
</style>
<g>
	<g>
		<g>
			<g>
				<path class="st0" d="M1761.27,1054.62c-11.1,0-20.1-9-20.1-20.1c0-395.41-321.69-717.11-717.11-717.11
					c-188.53,0-366.58,72.58-501.34,204.37c-7.94,7.76-20.67,7.62-28.43-0.32c-7.76-7.94-7.62-20.67,0.32-28.43
					c69.29-67.76,149.58-120.91,238.65-157.98c92.23-38.39,190.07-57.85,290.81-57.85c102.23,0,201.41,20.03,294.79,59.52
					c90.18,38.14,171.17,92.75,240.71,162.29c69.54,69.54,124.15,150.53,162.29,240.71c39.5,93.38,59.52,192.56,59.52,294.79
					C1781.38,1045.62,1772.37,1054.62,1761.27,1054.62z"/>
			</g>
			<g>
				<path class="st0" d="M505.49,530.74c-6.16,0-12.01-2.83-15.84-7.73c-4.17-5.34-5.37-12.43-3.19-18.85l79.74-234.52
					c3.57-10.51,14.99-16.14,25.51-12.56c10.51,3.57,16.14,14.99,12.56,25.51l-69.85,205.46l216.25-18.1
					c11.07-0.92,20.79,7.29,21.71,18.36c0.93,11.06-7.29,20.78-18.36,21.71l-246.84,20.66
					C506.61,530.71,506.05,530.74,505.49,530.74z"/>
			</g>
		</g>
		<g>
			<g>
				<path class="st0" d="M1023.05,1792c-56.45,0-112.65-6.37-168.13-19.1c-95.44-21.9-184.68-61.61-265.24-118.03
					c-80.56-56.41-148.4-126.69-201.62-208.88c-55.11-85.1-92.06-179.3-109.81-279.97c-7.66-43.46-11.58-87.7-11.63-131.48
					c-0.01-11.1,8.98-20.11,20.08-20.13c0.01,0,0.02,0,0.02,0c11.09,0,20.09,8.98,20.1,20.08c0.05,41.46,3.76,83.37,11.02,124.55
					c33.26,188.64,137.99,353.03,294.9,462.89c156.9,109.87,347.2,152.05,535.84,118.79c185.67-32.74,348.41-135.13,458.24-288.33
					c6.47-9.02,19.03-11.09,28.05-4.62c9.02,6.47,11.09,19.03,4.62,28.05c-56.47,78.76-126.31,145.05-207.59,197.03
					c-84.16,53.82-177.14,89.98-276.34,107.47C1111.41,1788.11,1067.16,1792,1023.05,1792z"/>
			</g>
			<g>
				<path class="st0" d="M1587.95,1725.3c-1.02,0-2.05-0.08-3.09-0.24c-10.97-1.69-18.49-11.96-16.8-22.94l33.11-214.47
					l-209.82,55.37c-10.74,2.83-21.74-3.57-24.57-14.31c-2.83-10.74,3.57-21.74,14.31-24.57l239.51-63.21
					c6.56-1.73,13.54-0.04,18.58,4.5c5.04,4.54,7.45,11.31,6.42,18.01l-37.8,244.81C1606.26,1718.2,1597.7,1725.3,1587.95,1725.3z"
					/>
			</g>
		</g>
	</g>
	<g>
		<circle class="st1" cx="1024" cy="1023.98" r="297.66"/>
		<g>
			<g id="XMLID_1_">
				<path class="st2" d="M1510.99,970.97v106.02h-98.22c-9.28,68.7-36.34,131.75-76.4,184.39l69.47,69.47l-74.97,74.97l-69.47-69.47
					c-52.63,40.06-115.69,67.12-184.39,76.4v98.22H970.99v-98.22c-68.7-9.28-131.75-36.34-184.39-76.4l-69.47,69.47l-74.97-74.97
					l69.47-69.47c-40.06-52.63-67.12-115.69-76.4-184.39h-98.22V970.97h98.22c9.28-68.7,36.34-131.75,76.4-184.39l-69.47-69.47
					l74.97-74.97l69.47,69.47c52.63-40.06,115.69-67.12,184.39-76.4v-98.22h106.02v98.22c68.7,9.28,131.75,36.34,184.39,76.4
					l69.47-69.47l74.97,74.97l-69.47,69.47c40.06,52.63,67.12,115.69,76.4,184.39H1510.99z M1277.49,1023.98
					c0-140-113.49-253.49-253.49-253.49s-253.49,113.49-253.49,253.49S884,1277.47,1024,1277.47S1277.49,1163.98,1277.49,1023.98z"
					/>
			</g>
		</g>
	</g>
</g>
</svg>
