<?xml version="1.0" encoding="utf-8"?>
<!-- Generator: Adobe Illustrator 23.0.2, SVG Export Plug-In . SVG Version: 6.00 Build 0)  -->
<svg version="1.1" id="Layer_1" xmlns="http://www.w3.org/2000/svg" xmlns:xlink="http://www.w3.org/1999/xlink" x="0px" y="0px"
	 viewBox="0 0 2048 2048" style="enable-background:new 0 0 2048 2048;" xml:space="preserve">
<style type="text/css">
	.st0{fill:#FF725C;}
	.st1{fill:#FAE381;}
	.st2{fill:#99D5FF;}
	.st3{fill:#72C5FF;}
	.st4{fill:#5B9ECC;}
	.st5{fill:#5C9EFF;}
</style>
<g>
	<circle class="st0" cx="541.53" cy="1061.15" r="221.78"/>
	<circle class="st1" cx="1488.03" cy="990.29" r="176.25"/>
	<g>
		<path class="st2" d="M310.6,1393.99c-26.62,3.33-50.9-15.56-54.22-42.18l0,0c-3.33-26.62,15.56-50.9,42.18-54.22l1438.83-179.71
			c26.62-3.33,50.9,15.56,54.22,42.18l0,0c3.33,26.62-15.56,50.9-42.18,54.23L310.6,1393.99z"/>
	</g>
	<path class="st3" d="M1186.61,1551.78H861.39l37.86-296.07c8.03-62.78,61.46-109.81,124.74-109.81h0
		c63.29,0,116.72,47.03,124.74,109.81L1186.61,1551.78z"/>
	<circle class="st4" cx="1024" cy="1255.94" r="34.54"/>
	<g>
		<g>
			<g>
				<path class="st3" d="M541.53,715.07c-11.4,0-20.65-9.24-20.65-20.65V492.09c0-11.4,9.24-20.65,20.65-20.65
					s20.65,9.24,20.65,20.65v202.34C562.17,705.83,552.93,715.07,541.53,715.07z"/>
			</g>
			<g>
				<path class="st3" d="M541.53,715.07c-5.72,0-11.18-2.37-15.09-6.55l-71.71-76.76c-7.78-8.33-7.34-21.4,0.99-29.18
					c8.33-7.78,21.4-7.34,29.18,0.99l56.62,60.61l56.62-60.61c7.78-8.33,20.85-8.78,29.18-0.99c8.33,7.78,8.78,20.85,0.99,29.18
					l-71.71,76.76C552.71,712.7,547.25,715.07,541.53,715.07z"/>
			</g>
		</g>
	</g>
	<g>
		<g>
			<g>
				<path class="st3" d="M1488.03,715.07c-11.4,0-20.65-9.24-20.65-20.65V492.09c0-11.4,9.24-20.65,20.65-20.65
					s20.65,9.24,20.65,20.65v202.34C1508.67,705.83,1499.43,715.07,1488.03,715.07z"/>
			</g>
			<g>
				<path class="st3" d="M1559.74,589.5c-5.52,0-11.03-2.2-15.09-6.55l-56.62-60.61l-56.62,60.61c-7.78,8.33-20.85,8.78-29.18,0.99
					c-8.33-7.78-8.78-20.85-0.99-29.18l71.71-76.76c3.9-4.18,9.37-6.55,15.09-6.55s11.18,2.37,15.09,6.55l71.71,76.76
					c7.78,8.33,7.34,21.4-0.99,29.18C1569.85,587.65,1564.79,589.5,1559.74,589.5z"/>
			</g>
		</g>
	</g>
	<g>
		<path class="st5" d="M1563.64,1576.55H484.36c-13.68,0-24.77-11.09-24.77-24.77s11.09-24.77,24.77-24.77h1079.29
			c13.68,0,24.77,11.09,24.77,24.77S1577.33,1576.55,1563.64,1576.55z"/>
	</g>
</g>
</svg>
