<?xml version="1.0" encoding="utf-8"?>
<!-- Generator: Adobe Illustrator 23.0.2, SVG Export Plug-In . SVG Version: 6.00 Build 0)  -->
<svg version="1.1" id="Layer_1" xmlns="http://www.w3.org/2000/svg" xmlns:xlink="http://www.w3.org/1999/xlink" x="0px" y="0px"
	 viewBox="0 0 2048 2048" style="enable-background:new 0 0 2048 2048;" xml:space="preserve">
<style type="text/css">
	.st0{fill:#FF725C;}
	.st1{fill:#FFDA66;}
	.st2{fill:#DBE2EB;}
</style>
<g>
	<g>
		<g>
			<g>
				<path class="st0" d="M831.04,1529.28c-5.33,0-10.45-2.12-14.22-5.89L540.7,1247.26c-7.85-7.85-7.85-20.58,0-28.43
					c7.85-7.85,20.58-7.85,28.43,0l261.91,261.91l613.78-613.79c7.85-7.85,20.58-7.85,28.43,0c7.85,7.85,7.85,20.58,0,28.43
					l-628,628C841.49,1527.16,836.38,1529.28,831.04,1529.28z"/>
			</g>
			<g>
				<path class="st0" d="M1455.33,1011.87c-0.23,0-0.46,0-0.7-0.01c-11.1-0.38-19.79-9.68-19.41-20.78l3.03-89.12l-89.12,3.03
					c-11.1,0.36-20.4-8.31-20.78-19.41c-0.38-11.1,8.31-20.4,19.41-20.78l110.63-3.77c5.57-0.19,10.96,1.94,14.9,5.88
					c3.94,3.94,6.07,9.33,5.88,14.9l-3.77,110.63C1475.04,1003.31,1466.12,1011.87,1455.33,1011.87z"/>
			</g>
		</g>
		<g>
			<g>
				<path class="st0" d="M1143.77,1529.28c-5.33,0-10.45-2.12-14.22-5.89l-276.13-276.13c-7.85-7.85-7.85-20.58,0-28.43
					c7.85-7.85,20.58-7.85,28.43,0l261.91,261.91l613.79-613.79c7.85-7.85,20.58-7.85,28.43,0c7.85,7.85,7.85,20.58,0,28.43
					l-628,628C1154.22,1527.16,1149.11,1529.28,1143.77,1529.28z"/>
			</g>
			<g>
				<path class="st0" d="M1768.14,1011.77c-0.23,0-0.46,0-0.7-0.01c-11.1-0.38-19.79-9.68-19.41-20.78l3.03-89.12l-89.12,3.03
					c-11.13,0.37-20.4-8.31-20.78-19.41c-0.38-11.1,8.31-20.4,19.41-20.78l110.63-3.77c5.59-0.19,10.96,1.94,14.9,5.88
					c3.94,3.94,6.07,9.33,5.88,14.9l-3.77,110.63C1787.85,1003.21,1778.93,1011.77,1768.14,1011.77z"/>
			</g>
		</g>
	</g>
	<circle class="st1" cx="607.46" cy="777.45" r="189.15"/>
	<g>
		<g>
			<path class="st1" d="M607.46,519.13c-11.1,0-20.1-9-20.1-20.1v-52.93c0-11.1,9-20.1,20.1-20.1c11.1,0,20.1,9,20.1,20.1v52.93
				C627.57,510.12,618.57,519.13,607.46,519.13z"/>
		</g>
	</g>
	<g>
		<g>
			<path class="st1" d="M410.59,600.67c-5.15,0-10.29-1.96-14.22-5.89l-16.09-16.09c0,0,0,0,0,0l-21.33-21.33
				c-3.93-3.93-5.89-9.07-5.89-14.22s1.96-10.29,5.89-14.22c7.85-7.85,20.58-7.85,28.43,0l37.43,37.43
				c3.93,3.93,5.89,9.07,5.89,14.22s-1.96,10.29-5.89,14.22S415.73,600.67,410.59,600.67z"/>
		</g>
	</g>
	<g>
		<g>
			<path class="st1" d="M329.04,797.55H276.1c-11.1,0-20.1-9-20.1-20.1c0-11.1,9-20.1,20.1-20.1h52.93c11.1,0,20.1,9,20.1,20.1
				C349.14,788.55,340.14,797.55,329.04,797.55z"/>
		</g>
	</g>
	<g>
		<g>
			<path class="st1" d="M373.16,1031.86c-5.15,0-10.29-1.96-14.22-5.89c-3.93-3.93-5.89-9.07-5.89-14.22s1.96-10.29,5.89-14.22
				l37.43-37.43c7.85-7.85,20.58-7.85,28.43,0c3.93,3.93,5.89,9.07,5.89,14.22s-1.96,10.29-5.89,14.22l-37.43,37.43
				C383.45,1029.89,378.3,1031.86,373.16,1031.86z"/>
		</g>
	</g>
	<g>
		<g>
			<path class="st1" d="M607.46,1128.91c-11.1,0-20.1-9-20.1-20.1v-52.93c0-11.1,9-20.1,20.1-20.1c11.1,0,20.1,9,20.1,20.1v52.93
				C627.57,1119.91,618.57,1128.91,607.46,1128.91z"/>
		</g>
	</g>
	<g>
		<g>
			<path class="st1" d="M841.77,1031.86c-5.15,0-10.29-1.96-14.22-5.89l-21.34-21.33l0,0l-16.09-16.09
				c-3.93-3.93-5.89-9.07-5.89-14.22s1.96-10.29,5.89-14.22c7.85-7.85,20.58-7.85,28.43,0l37.43,37.43
				c3.93,3.93,5.89,9.07,5.89,14.22s-1.96,10.29-5.89,14.22C852.06,1029.89,846.91,1031.86,841.77,1031.86z"/>
		</g>
	</g>
	<g>
		<g>
			<path class="st1" d="M938.82,797.55h-52.93c-11.1,0-20.1-9-20.1-20.1c0-11.1,9-20.1,20.1-20.1h52.93c11.1,0,20.1,9,20.1,20.1
				C958.92,788.55,949.92,797.55,938.82,797.55z"/>
		</g>
	</g>
	<g>
		<g>
			<path class="st1" d="M804.34,600.67c-5.15,0-10.29-1.96-14.22-5.89s-5.89-9.07-5.89-14.22s1.96-10.29,5.89-14.22l37.43-37.43
				c7.85-7.85,20.58-7.85,28.43,0c3.93,3.93,5.89,9.07,5.89,14.22s-1.96,10.29-5.89,14.22l-37.43,37.43
				C814.63,598.71,809.48,600.67,804.34,600.67z"/>
		</g>
	</g>
	<rect x="348.64" y="1470.54" class="st2" width="1423.26" height="151.48"/>
</g>
</svg>
