<?xml version="1.0" encoding="utf-8"?>
<!-- Generator: Adobe Illustrator 23.0.2, SVG Export Plug-In . SVG Version: 6.00 Build 0)  -->
<svg version="1.1" id="Layer_1" xmlns="http://www.w3.org/2000/svg" xmlns:xlink="http://www.w3.org/1999/xlink" x="0px" y="0px"
	 viewBox="0 0 2048 2048" style="enable-background:new 0 0 2048 2048;" xml:space="preserve">
<style type="text/css">
	.st0{fill:#FAE381;}
	.st1{fill:#CC5B4A;}
	.st2{fill:#FF725C;}
	.st3{fill:#EBF8FF;}
	.st4{fill:#BBC6CC;}
	.st5{fill:#5C9EFF;}
</style>
<g>
	<rect x="929.2" y="387.2" class="st0" width="189.61" height="375.27"/>
	<rect x="405.65" y="1611.77" class="st1" width="1236.7" height="172.53"/>
	<path class="st2" d="M1555.26,468.24H492.74c-109.43,0-198.15-88.71-198.15-198.15v-6.39H1753.4v6.39
		C1753.4,379.53,1664.69,468.24,1555.26,468.24z"/>
	<path class="st2" d="M1626.71,1624.4H421.29c-100.78,0-178.09-89.42-163.53-189.14l89.45-612.46
		c11.86-81.18,81.48-141.38,163.53-141.38h1026.52c82.05,0,151.67,60.19,163.53,141.38l89.45,612.46
		C1804.8,1534.98,1727.48,1624.4,1626.71,1624.4z"/>
	<path class="st3" d="M1323.02,1152.91c0,5.54-0.15,11.05-0.45,16.52c-3.81,70.14-31.79,133.84-75.77,182.93
		c-7.35,8.22-15.15,16.01-23.36,23.36c-49.08,43.97-112.78,71.97-182.93,75.78c-5.47,0.3-10.97,0.45-16.52,0.45
		s-11.05-0.15-16.52-0.45c-70.14-3.81-133.84-31.8-182.93-75.78c-8.21-7.35-16.01-15.14-23.36-23.36
		c-43.97-49.08-71.96-112.78-75.77-182.93c-0.3-5.47-0.45-10.97-0.45-16.52s0.15-11.05,0.45-16.52
		c3.81-70.13,31.79-133.83,75.78-182.92c7.34-8.22,15.14-16.02,23.35-23.36c49.08-43.98,112.78-71.97,182.93-75.78
		c5.47-0.3,10.97-0.45,16.52-0.45s11.05,0.15,16.52,0.45c70.14,3.81,133.84,31.79,182.93,75.78c8.21,7.34,16.01,15.14,23.35,23.36
		c43.98,49.08,71.97,112.78,75.78,182.92C1322.87,1141.86,1323.02,1147.37,1323.02,1152.91z"/>
	<g>
		<path class="st4" d="M1040.52,854.34v59.12c0,9.11-7.39,16.52-16.52,16.52c-9.13,0-16.52-7.4-16.52-16.52v-59.12
			c5.47-0.3,10.97-0.45,16.52-0.45S1035.05,854.04,1040.52,854.34z"/>
	</g>
	<g>
		<path class="st4" d="M866.35,995.26c-3.22,3.23-7.45,4.84-11.67,4.84c-4.23,0-8.45-1.61-11.69-4.84l-41.79-41.79
			c7.34-8.22,15.14-16.02,23.35-23.36l41.8,41.8C872.81,978.36,872.81,988.82,866.35,995.26z"/>
	</g>
	<g>
		<path class="st4" d="M801.05,1152.91c0,9.13-7.39,16.52-16.52,16.52h-59.11c-0.3-5.47-0.45-10.97-0.45-16.52
			s0.15-11.05,0.45-16.52h59.11C793.66,1136.39,801.05,1143.79,801.05,1152.91z"/>
	</g>
	<g>
		<path class="st4" d="M866.35,1333.91l-41.8,41.8c-8.21-7.35-16.01-15.14-23.36-23.36l41.8-41.79c6.45-6.45,16.91-6.45,23.36,0
			C872.81,1317.01,872.81,1327.46,866.35,1333.91z"/>
	</g>
	<g>
		<path class="st4" d="M1040.52,1392.37v59.12c-5.47,0.3-10.97,0.45-16.52,0.45s-11.05-0.15-16.52-0.45v-59.12
			c0-9.11,7.39-16.52,16.52-16.52C1033.13,1375.86,1040.52,1383.26,1040.52,1392.37z"/>
	</g>
	<g>
		<path class="st4" d="M1246.8,1352.35c-7.35,8.22-15.15,16.01-23.36,23.36l-41.8-41.8c-6.45-6.45-6.45-16.91,0-23.35
			c6.45-6.45,16.91-6.45,23.36,0L1246.8,1352.35z"/>
	</g>
	<g>
		<path class="st4" d="M1323.02,1152.91c0,5.54-0.15,11.05-0.45,16.52h-59.11c-9.13,0-16.52-7.39-16.52-16.52
			c0-9.11,7.39-16.52,16.52-16.52h59.11C1322.87,1141.86,1323.02,1147.37,1323.02,1152.91z"/>
	</g>
	<g>
		<path class="st4" d="M1246.79,953.48l-41.79,41.79c-3.23,3.23-7.45,4.84-11.69,4.84c-4.22,0-8.45-1.61-11.67-4.84
			c-6.45-6.44-6.45-16.9,0-23.35l41.8-41.8C1231.65,937.46,1239.45,945.26,1246.79,953.48z"/>
	</g>
	<g>
		<path class="st5" d="M1024,1169.43c-1.95,0-3.93-0.35-5.86-1.08c-8.53-3.24-12.82-12.77-9.58-21.3l56.94-149.99
			c3.24-8.53,12.77-12.81,21.3-9.58c8.53,3.24,12.82,12.78,9.58,21.3l-56.94,149.99C1036.94,1165.37,1030.66,1169.43,1024,1169.43z"
			/>
	</g>
	<circle class="st2" cx="1024" cy="1152.91" r="41.17"/>
</g>
</svg>
