<?xml version="1.0" encoding="utf-8"?>
<!-- Generator: Adobe Illustrator 23.0.2, SVG Export Plug-In . SVG Version: 6.00 Build 0)  -->
<svg version="1.1" id="Layer_1" xmlns="http://www.w3.org/2000/svg" xmlns:xlink="http://www.w3.org/1999/xlink" x="0px" y="0px"
	 viewBox="0 0 2048 2048" style="enable-background:new 0 0 2048 2048;" xml:space="preserve">
<style type="text/css">
	.st0{fill:#DBE2EB;}
	.st1{fill:#FAE381;}
	.st2{fill:#EBF8FF;}
	.st3{fill:#CCB869;}
	.st4{fill:#5A7A80;}
	.st5{fill:#36494D;}
</style>
<g>
	<g>
		<path class="st0" d="M1640.83,1792h-325.29c-53.32,0-96.7-43.38-96.7-96.7v-120.79c0-9.03,7.32-16.34,16.34-16.34
			c9.02,0,16.34,7.32,16.34,16.34v120.79c0,35.3,28.72,64.02,64.02,64.02h325.29c35.3,0,64.02-28.72,64.02-64.02V470.96
			c0-9.02,7.32-16.34,16.34-16.34s16.34,7.32,16.34,16.34V1695.3C1737.53,1748.62,1694.15,1792,1640.83,1792z"/>
	</g>
	<g>
		<path class="st0" d="M732.46,1792H407.17c-53.32,0-96.7-43.38-96.7-96.7V470.96c0-9.02,7.32-16.34,16.34-16.34
			c9.02,0,16.34,7.32,16.34,16.34V1695.3c0,35.3,28.72,64.02,64.02,64.02h325.29c35.3,0,64.02-28.72,64.02-64.02v-120.79
			c0-9.03,7.32-16.34,16.34-16.34c9.02,0,16.34,7.32,16.34,16.34v120.79C829.16,1748.62,785.78,1792,732.46,1792z"/>
	</g>
	<path class="st1" d="M1383.44,1638.25H664.56c-44.18,0-80-35.82-80-80V336c0-44.18,35.82-80,80-80h718.88c44.18,0,80,35.82,80,80
		v1222.25C1463.44,1602.43,1427.62,1638.25,1383.44,1638.25z"/>
	
		<rect x="841.55" y="240.09" transform="matrix(-1.836970e-16 1 -1 -1.836970e-16 1582.9919 -465.0085)" class="st2" width="364.91" height="637.81"/>
	<g>
		<path class="st3" d="M1342.9,863.3H705.1c-9.02,0-16.34-7.32-16.34-16.34c0-9.02,7.32-16.34,16.34-16.34h637.81
			c9.02,0,16.34,7.32,16.34,16.34C1359.24,855.98,1351.93,863.3,1342.9,863.3z"/>
	</g>
	<path class="st4" d="M1293.72,1242.6c0,148.96-120.76,269.72-269.72,269.72c-68.6,0-131.22-25.61-178.82-67.79
		c-8.16-7.23-15.88-14.95-23.11-23.11c-42.18-47.6-67.79-110.22-67.79-178.82c0-148.96,120.76-269.73,269.72-269.73
		c68.6,0,131.22,25.61,178.82,67.8c8.16,7.22,15.88,14.94,23.11,23.11C1268.11,1111.38,1293.72,1174.01,1293.72,1242.6z"/>
	<g>
		<path class="st5" d="M1225.93,1063.79l-380.74,380.74c-8.16-7.23-15.88-14.95-23.11-23.11l380.74-380.74
			C1210.98,1047.9,1218.7,1055.62,1225.93,1063.79z"/>
	</g>
	<rect x="1667.67" y="623.56" class="st1" width="107.04" height="362.34"/>
	
		<rect x="273.29" y="623.56" transform="matrix(-1 -4.489798e-11 4.489798e-11 -1 653.6193 1609.4561)" class="st1" width="107.04" height="362.34"/>
</g>
</svg>
