<?xml version="1.0" ?><svg width="32px" height="32px" viewBox="0 0 32 32" id="object" xmlns="http://www.w3.org/2000/svg"><defs><style>.cls-1{fill:#c9c1f5;}.cls-2{fill:#6d6daa;}.cls-3{fill:#96d7ff;}</style></defs><title/><polygon class="cls-1" points="20 26 6 26 6 6 20 2 20 26"/><path class="cls-2" d="M20,27H6a1,1,0,0,1-1-1V6a1,1,0,0,1,.73-1l14-4a1,1,0,0,1,.87.16A1,1,0,0,1,21,2V26A1,1,0,0,1,20,27ZM7,25H19V3.33L7,6.75Z"/><polygon class="cls-3" points="26 30 6 29 6 6 26 7 26 30"/><path class="cls-2" d="M26,31H26L6,30a1,1,0,0,1-1-1V6a1,1,0,0,1,.31-.72A1,1,0,0,1,6.05,5l20,1A1,1,0,0,1,27,7V30a1,1,0,0,1-.31.72A1,1,0,0,1,26,31ZM7,28.05,25,29V8L7,7.05Z"/><path class="cls-2" d="M16,25a7,7,0,1,1,7-7A7,7,0,0,1,16,25Zm0-12a5,5,0,1,0,5,5A5,5,0,0,0,16,13Z"/><path class="cls-2" d="M16,25c-2.23,0-3.4-3.52-3.4-7s1.17-7,3.4-7,3.4,3.52,3.4,7S18.23,25,16,25Zm0-2h0Zm0-10c-.4.06-1.4,1.9-1.4,5s1,4.93,1.4,5,1.4-1.9,1.4-5S16.4,13.06,16,13Z"/><path class="cls-2" d="M22,19H10a1,1,0,0,1,0-2H22a1,1,0,0,1,0,2Z"/></svg>