<?xml version="1.0" encoding="UTF-8"?>
<svg width="752pt" height="752pt" version="1.1" viewBox="0 0 752 752" xmlns="http://www.w3.org/2000/svg">
 <g>
  <path d="m522.42 325.88c-3.8984-1.0273-7.4414-3.0977-10.254-5.9805-2.8164-2.8828-4.793-6.4766-5.7305-10.395-1.0938-5.5664-2.6094-11.043-4.5391-16.379l-216.07 217.06h205.22c23.711 0.26953 46.688-8.2188 64.531-23.84 17.84-15.621 29.293-37.273 32.156-60.812 2.2031-21.586-3.0859-43.27-14.977-61.414-11.895-18.145-29.668-31.645-50.336-38.238z"/>
  <path d="m544.32 208.87c3.5195-3.7773 4.8164-9.1172 3.4219-14.086-1.3945-4.9727-5.2812-8.8594-10.25-10.254-4.9727-1.3945-10.312-0.097656-14.09 3.4219l-53.867 53.871c-25.023-24.445-58.551-38.238-93.535-38.48-30.621 0.035156-60.301 10.605-84.051 29.938-23.754 19.332-40.129 46.246-46.379 76.227-0.9375 3.918-2.918 7.5117-5.7305 10.395-2.8164 2.8828-6.3594 4.9531-10.254 5.9805-20.488 6.5586-38.129 19.91-50.004 37.848-11.879 17.941-17.277 39.395-15.312 60.816 2.0117 20.727 11.148 40.113 25.852 54.855 6.9883 7.1797 15.039 13.238 23.875 17.957l-45.777 45.781c-2.7734 2.7734-4.3281 6.5352-4.3281 10.457s1.5547 7.6836 4.3281 10.457c2.7734 2.7734 6.5352 4.3281 10.457 4.3281s7.6836-1.5547 10.457-4.3281l56.238-56.238 242.91-242.91z"/>
 </g>
</svg>
