<?xml version="1.0" standalone="no"?>
<!DOCTYPE svg PUBLIC "-//W3C//DTD SVG 20010904//EN"
 "http://www.w3.org/TR/2001/REC-SVG-20010904/DTD/svg10.dtd">
<svg version="1.0" xmlns="http://www.w3.org/2000/svg"
 width="1093.000000pt" height="1280.000000pt" viewBox="0 0 1093.000000 1280.000000"
 preserveAspectRatio="xMidYMid meet">
<g transform="translate(0.000000,1280.000000) scale(0.100000,-0.100000)"
fill="#000000" stroke="none">
<path d="M5285 12780 c-138 -21 -189 -34 -262 -66 -61 -26 -69 -45 -59 -132 3
-32 7 -68 9 -82 l2 -25 -2404 -3 c-1757 -1 -2408 -5 -2418 -13 -18 -16 -17
-94 3 -113 11 -11 35 -16 84 -16 53 0 69 -4 74 -16 3 -9 6 -1493 6 -3298 0
-2539 -3 -3285 -12 -3294 -7 -7 -44 -12 -94 -12 -77 0 -84 -2 -103 -27 -44
-55 -56 -125 -56 -318 0 -199 14 -275 60 -321 22 -22 32 -24 114 -24 88 0 92
1 118 30 l26 30 2462 0 c1901 0 2464 -3 2473 -12 18 -18 17 -2141 0 -2156 -7
-5 -27 -13 -43 -16 -17 -4 -45 -15 -63 -26 -30 -18 -32 -24 -32 -73 0 -39 -5
-58 -17 -69 -10 -8 -297 -159 -638 -335 -631 -326 -2046 -1059 -2815 -1458
-417 -216 -425 -221 -428 -252 -3 -32 17 -83 46 -115 24 -28 58 -21 156 31
377 203 2551 1321 2560 1318 6 -3 292 -173 636 -378 344 -206 641 -380 661
-386 48 -18 204 -16 256 2 34 12 303 173 1178 706 44 27 88 49 98 49 9 0 198
-94 420 -209 221 -115 773 -401 1227 -636 454 -235 862 -447 907 -471 113 -61
136 -58 177 23 23 46 21 90 -7 107 -12 7 -872 454 -1912 991 -1039 538 -1898
985 -1907 993 -14 11 -18 30 -18 78 0 73 -10 85 -98 110 l-52 15 2 1082 3
1082 2492 3 2492 2 31 -30 c29 -29 35 -30 116 -30 99 0 120 9 141 57 20 49 53
227 53 288 0 55 -32 233 -50 280 -23 60 -34 65 -141 65 -54 0 -101 -4 -104
-10 -3 -5 -13 -10 -21 -10 -12 0 -14 436 -14 3320 l0 3320 68 0 c91 0 104 10
100 80 l-3 55 -2405 3 c-1322 1 -2408 6 -2412 10 -4 4 -3 36 2 70 16 96 2 136
-59 166 -60 31 -136 50 -274 70 -132 19 -179 19 -332 -4z m93 -113 c32 -33 33
-36 30 -113 l-3 -79 -162 -3 c-184 -3 -172 -8 -192 87 -14 65 -8 74 61 97 49
16 174 41 214 43 11 1 35 -14 52 -32z m377 7 c32 -9 72 -22 88 -31 29 -14 29
-17 24 -73 -9 -104 -3 -101 -190 -98 l-162 3 -3 81 c-3 76 -1 83 25 113 27 31
29 32 93 26 36 -3 92 -13 125 -21z m-585 -10214 c5 -36 30 -53 123 -89 l27
-11 0 -535 c0 -443 -2 -537 -14 -541 -17 -7 -1150 669 -1154 688 -2 10 145 91
490 271 271 141 500 255 508 254 9 -1 17 -16 20 -37z m1077 -221 c257 -133
475 -248 483 -255 12 -12 12 -16 0 -28 -21 -20 -1091 -668 -1112 -674 -17 -4
-18 27 -18 541 l0 546 53 15 c59 17 97 47 97 76 0 11 6 20 14 20 8 0 225 -109
483 -241z"/>
</g>
</svg>
