<?xml version="1.0" encoding="iso-8859-1"?>
<!-- Generator: Adobe Illustrator 16.0.0, SVG Export Plug-In . SVG Version: 6.00 Build 0)  -->
<!DOCTYPE svg PUBLIC "-//W3C//DTD SVG 1.1//EN" "http://www.w3.org/Graphics/SVG/1.1/DTD/svg11.dtd">
<svg version="1.1" id="Capa_1" xmlns="http://www.w3.org/2000/svg" xmlns:xlink="http://www.w3.org/1999/xlink" x="0px" y="0px"
	 width="588.413px" height="588.414px" viewBox="0 0 588.413 588.414" style="enable-background:new 0 0 588.413 588.414;"
	 xml:space="preserve">
<g>
	<g id="Layer_1">
		<g>
			<g>
				<path d="M0,90.207v408h588.413v-408H0z M328.312,202.407c4.463,0,8.288,0.637,12.112,1.912
					c3.188-10.837,14.663-19.762,28.688-21.037c-1.274,2.55-1.912,5.737-1.912,8.925c0,15.3,15.3,27.413,34.425,27.413
					c6.375,0,12.75-1.275,17.851-3.825c5.737,9.562,17.212,15.938,31.237,15.938c1.274,0,3.188,0,4.462,0
					c-0.637,14.663-15.938,26.775-34.425,26.775c-5.1,0-9.562-0.637-14.024-2.55c-5.738,8.288-17.213,14.025-29.963,14.025
					c-14.025,0-25.5-6.375-31.237-15.938c-5.101,2.55-11.476,3.825-17.851,3.825c-19.125,0-34.425-12.113-34.425-27.413
					S309.188,202.407,328.312,202.407z M55.463,176.269c0-29.325,23.587-52.913,52.912-52.913c29.325,0,52.913,23.587,52.913,52.913
					s-23.587,52.913-52.913,52.913C79.05,228.544,55.463,204.957,55.463,176.269z M507.45,465.056H79.05v-13.387h3.188
					c21.675-5.738,32.512-26.775,44.625-49.088c11.475-21.037,22.95-42.713,44.625-52.275c29.325-12.75,49.725,7.013,65.025,22.312
					c4.462,4.463,8.288,8.288,12.112,11.476c8.288,7.013,15.938,9.562,21.675,8.287c11.475-2.55,21.675-20.399,30.6-37.612
					c12.112-22.312,24.862-45.9,47.175-49.725c14.662-2.551,29.963,3.188,47.175,18.487c17.213,15.3,32.513,36.975,46.538,58.649
					c19.125,28.688,38.887,58.013,65.024,70.125L507.45,465.056L507.45,465.056z M506.812,207.506c-5.1,0-9.562-0.637-14.024-2.55
					c-5.738,8.288-17.213,14.025-29.963,14.025c-14.025,0-25.5-6.375-31.237-15.938c-5.101,2.55-11.476,3.825-17.851,3.825
					c-19.125,0-34.425-12.113-34.425-27.413s15.3-27.413,34.425-27.413c4.463,0,8.288,0.638,12.113,1.913
					c3.188-12.112,17.212-21.675,33.787-21.675s30.6,9.562,33.787,21.675c3.825-1.275,8.288-1.913,13.388-1.913
					c19.125,0,34.425,12.113,34.425,27.413C541.237,195.394,525.938,207.506,506.812,207.506z"/>
			</g>
		</g>
	</g>
</g>
<g>
</g>
<g>
</g>
<g>
</g>
<g>
</g>
<g>
</g>
<g>
</g>
<g>
</g>
<g>
</g>
<g>
</g>
<g>
</g>
<g>
</g>
<g>
</g>
<g>
</g>
<g>
</g>
<g>
</g>
</svg>
