<?xml version="1.0" encoding="utf-8"?>
<!-- Generator: Adobe Illustrator 23.0.2, SVG Export Plug-In . SVG Version: 6.00 Build 0)  -->
<svg version="1.1" id="Layer_1" xmlns="http://www.w3.org/2000/svg" xmlns:xlink="http://www.w3.org/1999/xlink" x="0px" y="0px"
	 viewBox="0 0 2048 2048" style="enable-background:new 0 0 2048 2048;" xml:space="preserve">
<style type="text/css">
	.st0{fill:#5B7980;}
	.st1{fill:#FFE783;}
	.st2{fill:#496066;}
</style>
<g>
	<g>
		<g>
			<g>
				<path class="st0" d="M1155.6,1792H630.7c-112.31,0-203.68-91.37-203.68-203.68V459.68C427.02,347.37,518.39,256,630.7,256
					h524.89c52.93,0,103.08,20.21,141.21,56.9c38.02,36.59,60.14,85.72,62.29,138.34c0.01,0.22,0.01,0.44,0.01,0.66v1144.2
					c0,0.22,0,0.44-0.01,0.66c-2.15,52.62-24.27,101.75-62.29,138.34C1258.68,1771.79,1208.53,1792,1155.6,1792z M630.7,288.34
					c-94.48,0-171.34,76.86-171.34,171.34v1128.64c0,94.48,76.86,171.34,171.34,171.34h524.89c92.13,0,167.26-71.96,171.18-163.9
					V452.23c-3.92-91.93-79.05-163.9-171.18-163.9H630.7z"/>
			</g>
			<g>
				<g>
					<path class="st0" d="M624.68,735.85c-51.36,0-99.89-12.14-136.65-34.18c-39.34-23.6-61.01-55.86-61.01-90.83
						c0-34.98,21.67-67.24,61.01-90.84c36.75-22.04,85.28-34.18,136.65-34.18c51.36,0,99.89,12.14,136.65,34.18
						c39.34,23.6,61.01,55.86,61.01,90.84c0,34.98-21.67,67.24-61.01,90.83C724.57,723.71,676.04,735.85,624.68,735.85z
						 M624.68,518.15c-89.61,0-165.32,42.44-165.32,92.68c0,50.24,75.71,92.68,165.32,92.68c89.61,0,165.32-42.44,165.32-92.68
						C790,560.6,714.29,518.15,624.68,518.15z"/>
				</g>
				<g>
					<path class="st0" d="M624.68,1149.02c-51.36,0-99.89-12.14-136.65-34.18c-39.34-23.6-61.01-55.86-61.01-90.83
						s21.67-67.24,61.01-90.84c36.75-22.04,85.28-34.18,136.65-34.18c51.36,0,99.89,12.14,136.65,34.18
						c39.34,23.6,61.01,55.86,61.01,90.84s-21.67,67.24-61.01,90.83C724.57,1136.88,676.04,1149.02,624.68,1149.02z M624.68,931.32
						c-89.61,0-165.32,42.44-165.32,92.68s75.71,92.68,165.32,92.68c89.61,0,165.32-42.44,165.32-92.68S714.29,931.32,624.68,931.32
						z"/>
				</g>
				<g>
					<path class="st0" d="M624.68,1562.19c-51.36,0-99.89-12.14-136.65-34.19c-39.34-23.6-61.01-55.86-61.01-90.83
						s21.67-67.24,61.01-90.83c36.75-22.04,85.28-34.18,136.65-34.18s99.89,12.14,136.65,34.18c39.34,23.6,61.01,55.86,61.01,90.83
						s-21.67,67.24-61.01,90.83C724.57,1550.05,676.04,1562.19,624.68,1562.19z M624.68,1344.48c-89.61,0-165.32,42.44-165.32,92.68
						s75.71,92.68,165.32,92.68c89.61,0,165.32-42.44,165.32-92.68S714.29,1344.48,624.68,1344.48z"/>
				</g>
			</g>
		</g>
	</g>
	<path class="st0" d="M1620.98,636.57v449.44h-555.74V636.57c0-33.49,27.14-60.63,60.63-60.63h434.48
		C1593.84,575.94,1620.98,603.09,1620.98,636.57z"/>
	<path class="st1" d="M1560.98,1596.1h-435.74c-33.14,0-60-26.86-60-60v-450.08h555.74v450.08
		C1620.98,1569.24,1594.12,1596.1,1560.98,1596.1z"/>
	<path class="st2" d="M1416.01,451.9h-145.8c-33.14,0-60,26.86-60,60v64.04h265.8V511.9C1476.01,478.76,1449.15,451.9,1416.01,451.9
		z"/>
	<g>
		<g>
			<path class="st1" d="M1343.11,878.65c-13.39,0-24.25-10.86-24.25-24.25V702.51c0-13.39,10.86-24.25,24.25-24.25
				s24.25,10.86,24.25,24.25v151.89C1367.36,867.79,1356.5,878.65,1343.11,878.65z"/>
		</g>
		<g>
			<path class="st1" d="M1419.05,802.71h-151.88c-13.39,0-24.25-10.86-24.25-24.25s10.86-24.25,24.25-24.25h151.88
				c13.39,0,24.25,10.86,24.25,24.25S1432.45,802.71,1419.05,802.71z"/>
		</g>
	</g>
	<g>
		<g>
			<g>
				<path class="st0" d="M1419.05,1449.86h-151.88c-13.39,0-24.25-10.86-24.25-24.25s10.86-24.25,24.25-24.25h151.88
					c13.39,0,24.25,10.86,24.25,24.25S1432.45,1449.86,1419.05,1449.86z"/>
			</g>
		</g>
	</g>
</g>
</svg>
