<?xml version="1.0" encoding="utf-8"?>
<!-- Generator: Adobe Illustrator 23.0.2, SVG Export Plug-In . SVG Version: 6.00 Build 0)  -->
<svg version="1.1" id="Layer_1" xmlns="http://www.w3.org/2000/svg" xmlns:xlink="http://www.w3.org/1999/xlink" x="0px" y="0px"
	 viewBox="0 0 2048 2048" style="enable-background:new 0 0 2048 2048;" xml:space="preserve">
<style type="text/css">
	.st0{fill:#496066;}
	.st1{fill:#6D9199;}
	.st2{fill:#B3E4FF;}
	.st3{fill:#DFEBFA;}
	.st4{fill:#FF725C;}
</style>
<g>
	<g>
		<rect x="379.17" y="1374.51" class="st0" width="138.31" height="162.46"/>
		<rect x="1530.52" y="1374.51" class="st0" width="138.31" height="162.46"/>
	</g>
	<rect x="256" y="511.03" class="st1" width="1536" height="889.22"/>
	<rect x="660.32" y="626.9" class="st2" width="722.87" height="209.59"/>
	<circle class="st3" cx="446.17" cy="731.69" r="76.63"/>
	<circle class="st3" cx="1600.34" cy="731.69" r="76.63"/>
	<rect x="371.03" y="938.97" class="st0" width="114.27" height="361.93"/>
	<rect x="587.62" y="938.97" class="st0" width="114.27" height="361.93"/>
	<g>
		<g>
			<g>
				<path class="st0" d="M1043.55,972h-58.83c-9.12,0-16.52-7.39-16.52-16.52c0-9.12,7.39-16.52,16.52-16.52h58.83
					c9.12,0,16.52,7.39,16.52,16.52C1060.07,964.61,1052.67,972,1043.55,972z"/>
			</g>
			<g>
				<path class="st0" d="M884.82,972h-58.83c-9.12,0-16.52-7.39-16.52-16.52c0-9.12,7.39-16.52,16.52-16.52h58.83
					c9.12,0,16.52,7.39,16.52,16.52C901.34,964.61,893.94,972,884.82,972z"/>
			</g>
			<g>
				<path class="st0" d="M1043.55,1081.63h-58.83c-9.12,0-16.52-7.39-16.52-16.52s7.39-16.52,16.52-16.52h58.83
					c9.12,0,16.52,7.39,16.52,16.52S1052.67,1081.63,1043.55,1081.63z"/>
			</g>
			<g>
				<path class="st0" d="M884.82,1081.63h-58.83c-9.12,0-16.52-7.39-16.52-16.52s7.39-16.52,16.52-16.52h58.83
					c9.12,0,16.52,7.39,16.52,16.52S893.94,1081.63,884.82,1081.63z"/>
			</g>
			<g>
				<path class="st0" d="M1043.55,1191.27h-58.83c-9.12,0-16.52-7.39-16.52-16.52s7.39-16.52,16.52-16.52h58.83
					c9.12,0,16.52,7.39,16.52,16.52S1052.67,1191.27,1043.55,1191.27z"/>
			</g>
			<g>
				<path class="st0" d="M884.82,1191.27h-58.83c-9.12,0-16.52-7.39-16.52-16.52s7.39-16.52,16.52-16.52h58.83
					c9.12,0,16.52,7.39,16.52,16.52S893.94,1191.27,884.82,1191.27z"/>
			</g>
			<g>
				<path class="st0" d="M1043.55,1300.9h-58.83c-9.12,0-16.52-7.39-16.52-16.52c0-9.12,7.39-16.52,16.52-16.52h58.83
					c9.12,0,16.52,7.39,16.52,16.52C1060.07,1293.5,1052.67,1300.9,1043.55,1300.9z"/>
			</g>
			<g>
				<path class="st0" d="M884.82,1300.9h-58.83c-9.12,0-16.52-7.39-16.52-16.52c0-9.12,7.39-16.52,16.52-16.52h58.83
					c9.12,0,16.52,7.39,16.52,16.52C901.34,1293.5,893.94,1300.9,884.82,1300.9z"/>
			</g>
		</g>
	</g>
	<g>
		<g>
			<g>
				<circle class="st3" cx="1266.35" cy="1192.91" r="104.85"/>
				<g>
					<path class="st4" d="M1266.36,1209.43c-4.23,0-8.45-1.61-11.68-4.84c-6.45-6.45-6.45-16.91,0-23.36l43.69-43.69
						c6.45-6.45,16.91-6.45,23.36,0c6.45,6.45,6.45,16.91,0,23.36l-43.69,43.69C1274.81,1207.82,1270.58,1209.43,1266.36,1209.43z"
						/>
				</g>
			</g>
			<g>
				<circle class="st3" cx="1573.62" cy="1192.91" r="104.85"/>
				<g>
					<path class="st4" d="M1573.62,1209.43c-4.23,0-8.45-1.61-11.68-4.84l-43.69-43.69c-6.45-6.45-6.45-16.91,0-23.36
						c6.45-6.45,16.91-6.45,23.36,0l43.69,43.69c6.45,6.45,6.45,16.91,0,23.36C1582.07,1207.82,1577.85,1209.43,1573.62,1209.43z"/>
				</g>
			</g>
		</g>
		<g>
			<circle class="st3" cx="1632.92" cy="977.78" r="35.67"/>
			<circle class="st3" cx="1490.97" cy="977.78" r="35.67"/>
			<circle class="st3" cx="1349.01" cy="977.78" r="35.67"/>
			<circle class="st3" cx="1207.05" cy="977.78" r="35.67"/>
		</g>
	</g>
</g>
</svg>
