<?xml version="1.0" encoding="utf-8"?>
<!-- Generator: Adobe Illustrator 23.0.2, SVG Export Plug-In . SVG Version: 6.00 Build 0)  -->
<svg version="1.1" id="Layer_1" xmlns="http://www.w3.org/2000/svg" xmlns:xlink="http://www.w3.org/1999/xlink" x="0px" y="0px"
	 viewBox="0 0 2048 2048" style="enable-background:new 0 0 2048 2048;" xml:space="preserve">
<style type="text/css">
	.st0{fill:#FFE783;}
	.st1{fill:#5B7980;}
	.st2{fill:#72C5FF;}
	.st3{fill:#8AF0A6;}
	.st4{fill:#FF725C;}
</style>
<g>
	<path class="st0" d="M1024,1225.4c-26.94,0-52.9-5.09-77.15-15.14c-24.25-10.04-46.2-24.8-65.26-43.85
		c-19.05-19.05-33.81-41.01-43.85-65.26c-10.04-24.25-15.14-50.21-15.14-77.15c0-26.94,5.09-52.9,15.14-77.15
		c10.04-24.25,24.8-46.2,43.85-65.26c19.05-19.05,41.01-33.81,65.26-43.85c24.25-10.04,50.21-15.14,77.15-15.14
		c26.94,0,52.9,5.09,77.15,15.14c24.25,10.04,46.21,24.8,65.26,43.85c19.05,19.05,33.81,41.01,43.85,65.26
		c10.04,24.25,15.14,50.21,15.14,77.15c0,26.94-5.09,52.9-15.14,77.15s-24.8,46.21-43.85,65.26
		c-19.05,19.05-41.01,33.81-65.26,43.85S1050.94,1225.4,1024,1225.4z"/>
	<g>
		<g>
			<path class="st1" d="M1024,1427.67c-53.97,0-106-10.21-154.63-30.36c-48.64-20.15-92.64-49.71-130.8-87.87
				c-38.16-38.16-67.73-82.17-87.87-130.81c-20.14-48.64-30.36-100.66-30.36-154.63c0-53.97,10.21-105.99,30.36-154.63
				c20.15-48.64,49.71-92.65,87.87-130.81c38.16-38.16,82.17-67.73,130.81-87.87c48.64-20.14,100.66-30.36,154.63-30.36
				c53.97,0,105.99,10.21,154.63,30.36c48.64,20.15,92.65,49.71,130.81,87.87c38.16,38.16,67.73,82.17,87.87,130.81
				c20.15,48.63,30.36,100.66,30.36,154.63s-10.21,106-30.36,154.63c-20.15,48.64-49.71,92.65-87.87,130.81
				c-38.16,38.16-82.17,67.73-130.81,87.87C1130,1417.45,1077.97,1427.67,1024,1427.67z M1024,660.54
				c-48.66,0-95.51,9.18-139.24,27.3C841.03,705.96,801.41,732.59,767,767c-34.41,34.41-61.04,74.03-79.15,117.76
				c-18.11,43.73-27.3,90.58-27.3,139.24c0,48.66,9.18,95.51,27.3,139.24c18.12,43.73,44.75,83.35,79.16,117.76
				c34.41,34.41,74.03,61.04,117.76,79.15c43.73,18.11,90.58,27.3,139.24,27.3c48.66,0,95.51-9.18,139.24-27.3
				c43.73-18.11,83.35-44.75,117.76-79.16c34.41-34.41,61.04-74.03,79.15-117.76c18.11-43.73,27.3-90.58,27.3-139.24
				c0-48.66-9.18-95.51-27.3-139.24c-18.11-43.73-44.75-83.35-79.16-117.76c-34.41-34.41-74.03-61.04-117.76-79.16
				C1119.51,669.73,1072.66,660.54,1024,660.54z"/>
		</g>
	</g>
	<g>
		<g>
			<path class="st1" d="M1024,1609.83c-78.34,0-153.85-14.82-224.41-44.05c-70.57-29.23-134.44-72.14-189.83-127.53
				c-55.4-55.39-98.31-119.26-127.54-189.84c-29.23-70.57-44.05-146.07-44.05-224.41c0-78.34,14.82-153.84,44.05-224.41
				c29.23-70.57,72.14-134.44,127.54-189.83c55.39-55.4,119.26-98.31,189.83-127.54c70.57-29.23,146.08-44.05,224.41-44.05
				c78.34,0,153.84,14.82,224.41,44.05c70.57,29.23,134.44,72.14,189.83,127.54c55.39,55.39,98.3,119.26,127.54,189.83
				c29.23,70.57,44.05,146.07,44.05,224.41s-14.82,153.85-44.05,224.41c-29.23,70.57-72.14,134.44-127.53,189.83
				c-55.39,55.39-119.26,98.3-189.84,127.54C1177.85,1595.01,1102.34,1609.83,1024,1609.83z M1024,478.38
				c-73.03,0-143.36,13.79-209.03,40.99c-65.67,27.2-125.15,67.18-176.79,118.82c-51.64,51.64-91.62,111.12-118.82,176.79
				c-27.2,65.67-40.99,136-40.99,209.03c0,73.03,13.79,143.36,40.99,209.03c27.2,65.67,67.18,125.15,118.82,176.79
				c51.64,51.64,111.12,91.62,176.79,118.82c65.67,27.2,135.99,40.99,209.03,40.99c73.03,0,143.36-13.79,209.02-40.99
				c65.67-27.2,125.15-67.18,176.79-118.82c51.64-51.64,91.61-111.12,118.82-176.79c27.2-65.66,40.99-135.99,40.99-209.02
				c0-73.03-13.79-143.36-40.99-209.03c-27.2-65.67-67.18-125.15-118.82-176.79c-51.64-51.64-111.12-91.62-176.79-118.82
				C1167.36,492.17,1097.03,478.38,1024,478.38z"/>
		</g>
	</g>
	<g>
		<g>
			<path class="st1" d="M1024,1792c-102.72,0-201.7-19.43-294.2-57.74c-92.5-38.32-176.23-94.57-248.86-167.2
				c-72.63-72.63-128.88-156.36-167.2-248.86C275.43,1225.69,256,1126.71,256,1024c0-102.71,19.43-201.69,57.74-294.2
				c38.32-92.5,94.57-176.23,167.2-248.86c72.63-72.63,156.36-128.88,248.86-167.2C822.31,275.43,921.29,256,1024,256
				c102.71,0,201.69,19.43,294.2,57.74c92.51,38.32,176.23,94.57,248.86,167.2c72.63,72.63,128.88,156.36,167.2,248.86
				c38.32,92.5,57.74,191.48,57.74,294.2c0,102.71-19.43,201.7-57.74,294.2c-38.32,92.5-94.57,176.23-167.2,248.86
				c-72.63,72.63-156.36,128.88-248.86,167.2C1225.7,1772.57,1126.71,1792,1024,1792z M1024,296.21
				c-97.4,0-191.21,18.4-278.81,54.68c-87.6,36.29-166.94,89.61-235.82,158.49c-68.87,68.87-122.2,148.21-158.48,235.81
				c-36.28,87.6-54.68,181.41-54.68,278.81c0,97.4,18.4,191.21,54.68,278.81c36.29,87.6,89.61,166.94,158.49,235.82
				c68.87,68.87,148.21,122.19,235.81,158.48c87.6,36.28,181.4,54.68,278.81,54.68c97.41,0,191.21-18.4,278.81-54.68
				c87.6-36.29,166.94-89.61,235.82-158.48c68.87-68.87,122.19-148.21,158.48-235.82c36.28-87.6,54.68-181.4,54.68-278.81
				c0-97.41-18.4-191.21-54.68-278.81c-36.29-87.6-89.61-166.94-158.48-235.81c-68.87-68.87-148.21-122.2-235.82-158.48
				C1215.21,314.61,1121.4,296.21,1024,296.21z"/>
		</g>
	</g>
	<circle class="st2" cx="548.29" cy="446.81" r="72.67"/>
	<circle class="st3" cx="1557.01" cy="833.08" r="72.67"/>
	<circle class="st4" cx="827.34" cy="1353.44" r="72.67"/>
</g>
</svg>
