<?xml version="1.0" encoding="utf-8"?>
<!-- Generator: Adobe Illustrator 23.0.2, SVG Export Plug-In . SVG Version: 6.00 Build 0)  -->
<svg version="1.1" id="Layer_1" xmlns="http://www.w3.org/2000/svg" xmlns:xlink="http://www.w3.org/1999/xlink" x="0px" y="0px"
	 viewBox="0 0 2048 2048" style="enable-background:new 0 0 2048 2048;" xml:space="preserve">
<style type="text/css">
	.st0{fill:#EAF1FA;}
	.st1{fill:#66C0FF;}
	.st2{fill:#B3E0FF;}
	.st3{fill:#496066;}
</style>
<g>
	<path class="st0" d="M1692.13,379.87v1288.26c0,68.41-55.46,123.87-123.87,123.87H657.45c-68.41,0-123.87-55.46-123.87-123.87
		V443.83l-177.7-115.57L533.57,256h1034.68C1636.67,256,1692.13,311.46,1692.13,379.87z"/>
	<path class="st1" d="M657.45,1742.45c-40.98,0-74.32-33.34-74.32-74.32v-621.08c59.8,11.73,130.6,21.5,244.9,21.5
		c147.74,0,222.78-16.32,295.35-32.1c70.56-15.34,137.21-29.84,274.29-29.84c118.04,0,183.86,10.74,244.91,23.53v637.99
		c0,40.98-33.34,74.32-74.32,74.32H657.45z"/>
	<circle class="st2" cx="1109.08" cy="1374.2" r="52.03"/>
	<circle class="st2" cx="1402.74" cy="1619.18" r="48.65"/>
	<circle class="st2" cx="783.77" cy="1220.05" r="48.65"/>
	<circle class="st2" cx="1311.6" cy="1156.18" r="48.65"/>
	<circle class="st2" cx="790.22" cy="1542.59" r="55.11"/>
	<circle class="st2" cx="1072.57" cy="1139.47" r="19.14"/>
	<circle class="st2" cx="893.45" cy="1358.72" r="19.14"/>
	<circle class="st2" cx="1334.95" cy="1384.36" r="19.14"/>
	<circle class="st2" cx="1080" cy="1608.92" r="19.14"/>
	<g>
		<g>
			<g>
				<path class="st3" d="M1642.58,1573.26v33.03h-88.7c-9.13,0-16.52-7.39-16.52-16.52s7.39-16.52,16.52-16.52H1642.58z"/>
			</g>
		</g>
		<g>
			<g>
				<path class="st3" d="M1642.58,1411.61v33.03h-169.31c-9.11,0-16.52-7.39-16.52-16.52c0-9.13,7.4-16.52,16.52-16.52H1642.58z"/>
			</g>
		</g>
		<g>
			<g>
				<path class="st3" d="M1642.58,1249.96v33.03h-88.7c-9.13,0-16.52-7.39-16.52-16.52c0-9.13,7.39-16.52,16.52-16.52H1642.58z"/>
			</g>
		</g>
		<g>
			<g>
				<path class="st3" d="M1642.58,1088.31v33.03h-169.31c-9.11,0-16.52-7.39-16.52-16.52c0-9.13,7.4-16.52,16.52-16.52H1642.58z"/>
			</g>
		</g>
		<g>
			<g>
				<path class="st3" d="M1642.58,765.01v33.03h-169.31c-9.11,0-16.52-7.39-16.52-16.52s7.4-16.52,16.52-16.52H1642.58z"/>
			</g>
		</g>
		<g>
			<g>
				<path class="st3" d="M1642.58,603.35v33.03h-88.7c-9.13,0-16.52-7.39-16.52-16.52c0-9.13,7.39-16.52,16.52-16.52H1642.58z"/>
			</g>
		</g>
		<g>
			<g>
				<path class="st3" d="M1642.58,441.7v33.03h-169.31c-9.11,0-16.52-7.39-16.52-16.52c0-9.13,7.4-16.52,16.52-16.52H1642.58z"/>
			</g>
		</g>
		<g>
			<g>
				<path class="st3" d="M1642.58,926.66v33.03h-88.7c-9.13,0-16.52-7.39-16.52-16.52c0-9.13,7.39-16.52,16.52-16.52H1642.58z"/>
			</g>
		</g>
	</g>
</g>
</svg>
