<?xml version="1.0" encoding="utf-8"?>
<!-- Generator: Adobe Illustrator 23.0.2, SVG Export Plug-In . SVG Version: 6.00 Build 0)  -->
<svg version="1.1" id="Layer_1" xmlns="http://www.w3.org/2000/svg" xmlns:xlink="http://www.w3.org/1999/xlink" x="0px" y="0px"
	 viewBox="0 0 2048 2048" style="enable-background:new 0 0 2048 2048;" xml:space="preserve">
<style type="text/css">
	.st0{fill:#496066;}
	.st1{fill:#FF725C;}
	.st2{fill:#DBE2EB;}
</style>
<g>
	<g>
		<g>
			<g>
				<path class="st0" d="M767.57,1489.35c-6.5,0-12.98-2.59-17.77-7.68L262.62,963.37c-9.22-9.81-8.75-25.24,1.07-34.46
					c9.81-9.22,25.24-8.75,34.46,1.07l470.92,500.99L982.3,1240.9c10.05-8.96,25.46-8.07,34.42,1.98
					c8.96,10.05,8.07,25.46-1.98,34.42l-230.96,205.86C779.14,1487.3,773.34,1489.35,767.57,1489.35z"/>
			</g>
			<g>
				<path class="st0" d="M1087.42,1204.25c-6.71,0-13.39-2.75-18.21-8.16c-8.96-10.05-8.07-25.46,1.98-34.42l9.1-8.11
					c10.05-8.96,25.47-8.07,34.42,1.98c8.96,10.05,8.07,25.46-1.98,34.42l-9.1,8.11
					C1098.99,1202.21,1093.19,1204.25,1087.42,1204.25z M1171.6,1129.22c-6.71,0-13.39-2.75-18.21-8.16
					c-8.96-10.05-8.07-25.46,1.98-34.42l9.1-8.11c10.05-8.96,25.47-8.07,34.42,1.98c8.96,10.05,8.07,25.46-1.98,34.42l-9.1,8.11
					C1183.17,1127.18,1177.37,1129.22,1171.6,1129.22z M1255.78,1054.19c-6.71,0-13.39-2.76-18.21-8.16
					c-8.96-10.05-8.07-25.46,1.98-34.42l9.1-8.11c10.05-8.96,25.47-8.07,34.42,1.98c8.96,10.05,8.07,25.46-1.98,34.42l-9.1,8.11
					C1267.34,1052.15,1261.55,1054.19,1255.78,1054.19z M1339.95,979.16c-6.71,0-13.39-2.75-18.21-8.16
					c-8.96-10.05-8.07-25.46,1.98-34.42l9.1-8.11c10.05-8.96,25.47-8.07,34.42,1.98c8.96,10.05,8.07,25.46-1.98,34.42l-9.1,8.11
					C1351.52,977.13,1345.72,979.16,1339.95,979.16z"/>
			</g>
		</g>
		<circle class="st1" cx="1589.09" cy="706.62" r="202.91"/>
	</g>
	<rect x="268.19" y="1424.33" class="st2" width="1511.62" height="119.95"/>
</g>
</svg>
