<?xml version="1.0" encoding="utf-8"?>
<!-- Generator: Adobe Illustrator 23.0.2, SVG Export Plug-In . SVG Version: 6.00 Build 0)  -->
<svg version="1.1" id="Layer_1" xmlns="http://www.w3.org/2000/svg" xmlns:xlink="http://www.w3.org/1999/xlink" x="0px" y="0px"
	 viewBox="0 0 2048 2048" style="enable-background:new 0 0 2048 2048;" xml:space="preserve">
<style type="text/css">
	.st0{fill:#84E69F;}
	.st1{fill:#FF725C;}
	.st2{fill:#496066;}
	.st3{fill:#72C5FF;}
	.st4{fill:#DBE2EB;}
</style>
<g>
	<circle class="st0" cx="756.44" cy="1064.38" r="267.56"/>
	<circle class="st1" cx="1291.56" cy="1064.38" r="267.56"/>
	<g>
		<g>
			<g>
				<path class="st2" d="M872.38,1085.02H350.64c-11.4,0-20.65-9.24-20.65-20.65s9.24-20.65,20.65-20.65h521.74
					c11.4,0,20.65,9.24,20.65,20.65S883.78,1085.02,872.38,1085.02z"/>
			</g>
			<g>
				<path class="st2" d="M793.61,1147.7c-6.08,0-12.09-2.67-16.17-7.79c-7.1-8.92-5.62-21.91,3.3-29.01l58.48-46.52l-58.48-46.52
					c-8.92-7.1-10.4-20.09-3.3-29.01c7.1-8.92,20.09-10.4,29.01-3.3l78.78,62.68c4.92,3.92,7.79,9.86,7.79,16.16
					c0,6.29-2.87,12.24-7.79,16.16l-78.78,62.68C802.65,1146.23,798.12,1147.7,793.61,1147.7z"/>
			</g>
		</g>
		<g>
			<g>
				<path class="st2" d="M1697.36,1085.02h-521.74c-11.4,0-20.65-9.24-20.65-20.65s9.24-20.65,20.65-20.65h521.74
					c11.4,0,20.65,9.24,20.65,20.65S1708.77,1085.02,1697.36,1085.02z"/>
			</g>
			<g>
				<path class="st2" d="M1254.39,1147.7c-4.51,0-9.04-1.47-12.84-4.49l-78.78-62.68c-4.92-3.92-7.79-9.86-7.79-16.16
					c0-6.29,2.87-12.24,7.79-16.16l78.78-62.68c8.92-7.1,21.91-5.62,29.01,3.3c7.1,8.92,5.62,21.91-3.3,29.01l-58.48,46.52
					l58.48,46.52c8.92,7.1,10.4,20.09,3.3,29.01C1266.48,1145.03,1260.46,1147.7,1254.39,1147.7z"/>
			</g>
		</g>
	</g>
	<g>
		<path class="st3" d="M1024,728.81c-11.4,0-20.65-9.24-20.65-20.65v-73.58c0-11.4,9.24-20.65,20.65-20.65s20.65,9.24,20.65,20.65
			v73.58C1044.65,719.57,1035.4,728.81,1024,728.81z"/>
	</g>
	<g>
		<path class="st3" d="M1134.03,755.93c-2.17,0-4.38-0.34-6.55-1.07c-10.81-3.62-16.65-15.31-13.03-26.13l22.73-67.98
			c3.62-10.81,15.31-16.65,26.13-13.03c10.81,3.62,16.65,15.31,13.03,26.13l-22.73,67.98
			C1150.71,750.47,1142.66,755.93,1134.03,755.93z"/>
	</g>
	<g>
		<path class="st3" d="M913.98,755.93c-8.64,0-16.69-5.46-19.58-14.1l-22.73-67.98c-3.61-10.81,2.22-22.51,13.03-26.13
			c10.81-3.61,22.51,2.22,26.13,13.03l22.73,67.98c3.61,10.81-2.22,22.51-13.03,26.13C918.35,755.59,916.15,755.93,913.98,755.93z"
			/>
	</g>
	<rect x="256" y="1311.29" class="st4" width="1536" height="122.77"/>
</g>
</svg>
