<?xml version="1.0" encoding="utf-8"?>
<!-- Generator: Adobe Illustrator 23.0.2, SVG Export Plug-In . SVG Version: 6.00 Build 0)  -->
<svg version="1.1" id="Layer_1" xmlns="http://www.w3.org/2000/svg" xmlns:xlink="http://www.w3.org/1999/xlink" x="0px" y="0px"
	 viewBox="0 0 2048 2048" style="enable-background:new 0 0 2048 2048;" xml:space="preserve">
<style type="text/css">
	.st0{fill:#496066;}
	.st1{fill:#E0E7F0;}
	.st2{fill:#5B7880;}
	.st3{fill:#D6DDE6;}
</style>
<g>
	<rect x="972.31" y="1282.35" class="st0" width="103.38" height="294.32"/>
	<path class="st1" d="M851.99,447.68v136.14c31.18,19.13,51.98,53.52,51.98,92.79s-20.8,73.66-51.98,92.79v135.37
		c31.18,19.13,51.98,53.52,51.98,92.78c0,39.27-20.8,73.66-51.98,92.79v125.14h384.88v-154.32l-71.78-158.31l71.78-158.3
		l-71.78-158.31V447.68h103.42v91.67l93.06,205.2l-71.78,158.3l71.78,158.31v154.32h233.64v-164.59
		c-23.67-12.24-39.86-36.95-39.86-65.43V454.57h193.28v530.89c0,28.49-16.18,53.2-39.86,65.45v204.51
		c0,40.67-32.97,73.64-73.63,73.64h-559.46H972.31H412.85c-40.66,0-73.63-32.97-73.63-73.64V1050.9
		c-23.68-12.24-39.86-36.95-39.86-65.45V454.57h193.28v530.89c0,28.48-16.19,53.19-39.86,65.43v164.59h285.64v-125.14
		c-31.18-19.13-51.99-53.52-51.99-92.79c0-39.26,20.81-73.65,51.99-92.78V769.4c-31.18-19.13-51.99-53.52-51.99-92.79
		s20.81-73.66,51.99-92.79V447.68H851.99"/>
	<path class="st2" d="M1325.93,1679.36H722.07v-5.03c0-86.16,69.84-156,156-156h291.85c86.16,0,156,69.84,156,156V1679.36z"/>
	<path class="st3" d="M494.38,454.57H297.62c-22.99,0-41.62-18.63-41.62-41.62v-2.69c0-22.99,18.63-41.62,41.62-41.62h196.76
		c22.99,0,41.62,18.63,41.62,41.62v2.69C536,435.93,517.37,454.57,494.38,454.57z"/>
	<path class="st3" d="M861.53,447.68H727.45c-21.15,0-38.29-17.14-38.29-38.29v-2.47c0-21.15,17.14-38.29,38.29-38.29h134.08
		c21.15,0,38.29,17.14,38.29,38.29v2.47C899.82,430.54,882.68,447.68,861.53,447.68z"/>
	<path class="st3" d="M1750.38,454.57h-196.76c-22.99,0-41.62-18.63-41.62-41.62v-2.69c0-22.99,18.63-41.62,41.62-41.62h196.76
		c22.99,0,41.62,18.63,41.62,41.62v2.69C1792,435.93,1773.37,454.57,1750.38,454.57z"/>
	<path class="st3" d="M1283.84,447.68h-134.08c-21.15,0-38.29-17.14-38.29-38.29v-2.47c0-21.15,17.14-38.29,38.29-38.29h134.08
		c21.15,0,38.29,17.14,38.29,38.29v2.47C1322.13,430.54,1304.98,447.68,1283.84,447.68z"/>
</g>
</svg>
