<?xml version="1.0" encoding="utf-8"?>
<!-- Generator: Adobe Illustrator 23.0.2, SVG Export Plug-In . SVG Version: 6.00 Build 0)  -->
<svg version="1.1" id="Layer_1" xmlns="http://www.w3.org/2000/svg" xmlns:xlink="http://www.w3.org/1999/xlink" x="0px" y="0px"
	 viewBox="0 0 2048 2048" style="enable-background:new 0 0 2048 2048;" xml:space="preserve">
<style type="text/css">
	.st0{fill:#B3E0FF;}
	.st1{fill:#66C0FF;}
</style>
<g>
	<path class="st0" d="M1494.12,418.11v1211.78c0,89.53-210.48,162.11-470.12,162.11s-470.12-72.58-470.12-162.11V418.11H1494.12z"/>
	<ellipse class="st1" cx="1024" cy="418.11" rx="470.12" ry="162.11"/>
	<g>
		<g>
			<path class="st1" d="M1407.3,1560.79c-3.63,0-7.31-0.8-10.79-2.49c-7.21-3.5-14.97-6.94-23.06-10.23
				c-12.67-5.16-18.77-19.61-13.61-32.28c5.16-12.67,19.61-18.77,32.28-13.61c9.08,3.69,17.83,7.58,26,11.54
				c12.31,5.97,17.46,20.79,11.49,33.1C1425.33,1555.65,1416.5,1560.79,1407.3,1560.79z M644.26,1559.09
				c-9.29,0-18.2-5.25-22.42-14.21c-5.84-12.38-0.54-27.14,11.84-32.97c8.2-3.87,16.97-7.66,26.05-11.27
				c12.72-5.05,27.12,1.16,32.17,13.88c5.05,12.72-1.16,27.12-13.88,32.17c-8.13,3.23-15.94,6.61-23.21,10.04
				C651.4,1558.33,647.8,1559.09,644.26,1559.09z M1264.05,1515.25c-1.65,0-3.32-0.17-5-0.51c-8.39-1.72-17.03-3.37-25.69-4.89
				c-13.48-2.37-22.47-15.22-20.1-28.7c2.37-13.48,15.23-22.47,28.7-20.1c9.11,1.6,18.21,3.34,27.05,5.15
				c13.4,2.75,22.04,15.84,19.29,29.25C1285.89,1507.17,1275.56,1515.25,1264.05,1515.25z M787.82,1514.46
				c-11.56,0-21.9-8.14-24.26-19.91c-2.69-13.41,6-26.47,19.42-29.16c8.83-1.77,17.94-3.47,27.06-5.04
				c13.48-2.32,26.3,6.73,28.62,20.21c2.32,13.48-6.73,26.3-20.21,28.62c-8.68,1.49-17.33,3.1-25.72,4.79
				C791.07,1514.3,789.43,1514.46,787.82,1514.46z M1114.71,1495.57c-0.56,0-1.12-0.02-1.69-0.06c-8.72-0.59-17.57-1.09-26.3-1.5
				c-13.67-0.64-24.23-12.24-23.59-25.91c0.64-13.67,12.24-24.2,25.91-23.59c9.07,0.42,18.25,0.95,27.3,1.56
				c13.65,0.92,23.97,12.73,23.06,26.38C1138.53,1485.54,1127.64,1495.57,1114.71,1495.57z M937.22,1495.31
				c-12.96,0-23.85-10.07-24.7-23.18c-0.88-13.65,9.48-25.44,23.13-26.31c9.02-0.58,18.21-1.08,27.31-1.48
				c13.69-0.61,25.24,10,25.84,23.67c0.6,13.67-10,25.24-23.67,25.83c-8.76,0.38-17.61,0.86-26.3,1.42
				C938.29,1495.29,937.75,1495.31,937.22,1495.31z"/>
		</g>
	</g>
</g>
</svg>
