<?xml version="1.0" encoding="utf-8"?>
<!-- Generator: Adobe Illustrator 23.0.2, SVG Export Plug-In . SVG Version: 6.00 Build 0)  -->
<svg version="1.1" id="Layer_1" xmlns="http://www.w3.org/2000/svg" xmlns:xlink="http://www.w3.org/1999/xlink" x="0px" y="0px"
	 viewBox="0 0 2048 2048" style="enable-background:new 0 0 2048 2048;" xml:space="preserve">
<style type="text/css">
	.st0{fill:#E1E7F0;}
	.st1{fill:#CDD3DB;}
	.st2{fill:#A7ABB3;}
</style>
<g>
	<g>
		<g>
			<polygon class="st0" points="1564.72,776.72 1258.83,633.19 942.1,1308.16 928.06,1338.06 905.95,1385.2 891.92,1415.09 
				869.8,1462.22 855.77,1492.13 833.65,1539.25 819.62,1569.16 797.51,1616.29 783.47,1646.19 761.36,1693.32 747.32,1723.22 
				715.06,1792 483.28,1683.24 1027.06,524.43 582.3,315.73 713.55,256 1067.3,292.37 1355.33,427.52 1314.35,514.85 
				1545.63,623.37 			"/>
		</g>
	</g>
	<polygon class="st1" points="1496.43,908.14 1366.29,991.47 1224.57,924.97 1057.66,1280.66 936.84,1223.97 1159.28,749.94 	"/>
	<g>
		
			<rect x="617.31" y="891.61" transform="matrix(0.9053 0.4248 -0.4248 0.9053 460.2845 -203.0682)" class="st0" width="136.44" height="78.14"/>
		
			<rect x="561.48" y="818.73" transform="matrix(0.9053 0.4248 -0.4248 0.9053 436.7854 -172.6718)" class="st1" width="88.28" height="148.91"/>
		<polygon class="st1" points="1001.31,675.81 778.87,1149.84 658.05,1093.15 788.49,815.18 557.37,588.81 519.43,449.69 		"/>
	</g>
	<g>
		<path class="st2" d="M761.36,1693.32l-14.04,29.9l-54.65-25.64c-8.26-3.88-11.81-13.71-7.93-21.97
			c3.87-8.26,13.71-11.82,21.97-7.94L761.36,1693.32z"/>
	</g>
	<g>
		<path class="st2" d="M797.51,1616.29l-14.04,29.9l-98.3-46.13c-8.26-3.87-11.81-13.71-7.94-21.97
			c3.88-8.26,13.71-11.81,21.97-7.94L797.51,1616.29z"/>
	</g>
	<g>
		<path class="st2" d="M833.65,1539.25l-14.03,29.9l-54.65-25.64c-8.26-3.87-11.81-13.71-7.94-21.97s13.71-11.81,21.97-7.94
			L833.65,1539.25z"/>
	</g>
	<g>
		<path class="st2" d="M869.8,1462.22l-14.03,29.9L757.46,1446c-8.25-3.87-11.81-13.71-7.93-21.97c3.87-8.26,13.71-11.81,21.97-7.94
			L869.8,1462.22z"/>
	</g>
	<g>
		<path class="st2" d="M905.95,1385.2l-14.03,29.89l-54.66-25.64c-8.26-3.87-11.81-13.71-7.94-21.97
			c3.88-8.26,13.71-11.81,21.98-7.94L905.95,1385.2z"/>
	</g>
	<g>
		<path class="st2" d="M942.1,1308.16l-14.04,29.9l-98.3-46.13c-8.26-3.87-11.81-13.71-7.94-21.97s13.71-11.81,21.97-7.93
			L942.1,1308.16z"/>
	</g>
</g>
</svg>
