<?xml version="1.0" encoding="utf-8"?>
<!-- Generator: Adobe Illustrator 23.0.2, SVG Export Plug-In . SVG Version: 6.00 Build 0)  -->
<svg version="1.1" id="Layer_1" xmlns="http://www.w3.org/2000/svg" xmlns:xlink="http://www.w3.org/1999/xlink" x="0px" y="0px"
	 viewBox="0 0 2048 2048" style="enable-background:new 0 0 2048 2048;" xml:space="preserve">
<style type="text/css">
	.st0{fill:#F5F8FA;}
	.st1{fill:#72C5FF;}
	.st2{fill:#FFE783;}
	.st3{fill:#FF725C;}
	.st4{fill:#7FA9B3;}
	.st5{fill:#5B7980;}
</style>
<g>
	<path class="st0" d="M1024.02,337.7c379.01,0,686.29,307.27,686.29,686.32c0,379.01-307.27,686.29-686.29,686.29
		c-379.05,0-686.32-307.27-686.32-686.29C337.7,644.97,644.97,337.7,1024.02,337.7z"/>
	<path class="st1" d="M1330.96,1431.44c-5.87,0-11.97-0.31-18.3-0.93c-35.8-3.52-78.01-16.96-125.45-39.95
		c-95.56-46.3-203.19-126.81-303.07-226.69h0c-99.88-99.88-180.39-207.52-226.69-303.07c-22.99-47.44-36.42-89.64-39.95-125.45
		c-3.95-40.21,4.67-71.23,25.64-92.2c20.97-20.97,51.99-29.6,92.2-25.64c35.8,3.52,78.01,16.96,125.45,39.95
		c95.56,46.3,203.19,126.81,303.07,226.69c99.88,99.88,180.39,207.52,226.69,303.07c22.99,47.44,36.43,89.65,39.95,125.45
		c3.95,40.21-4.67,71.23-25.64,92.2C1387.19,1422.53,1362.38,1431.44,1330.96,1431.44z M907.49,1140.51
		c97.34,97.34,201.8,175.59,294.12,220.32c43.3,20.98,82.82,33.7,114.28,36.8c29.9,2.94,51.97-2.49,65.61-16.13
		c13.64-13.64,19.07-35.72,16.13-65.61c-3.09-31.46-15.82-70.98-36.8-114.28c-44.73-92.32-122.98-196.78-220.32-294.12
		c-97.34-97.34-201.8-175.59-294.12-220.32c-43.3-20.98-82.82-33.7-114.28-36.8c-29.9-2.94-51.97,2.49-65.61,16.13
		c-13.64,13.64-19.07,35.72-16.13,65.61c3.09,31.46,15.82,70.98,36.8,114.28C731.9,938.71,810.15,1043.17,907.49,1140.51
		L907.49,1140.51z"/>
	<path class="st2" d="M697.8,1424.52c-23.17,0-41.52-6.53-54.65-19.66c-34.29-34.29-23.59-104.23,30.95-202.27
		c50.57-90.91,133.31-195.86,232.98-295.53c99.66-99.66,204.62-182.4,295.53-232.98c98.04-54.54,167.98-65.24,202.27-30.95
		c34.29,34.29,23.59,104.23-30.95,202.27c-50.57,90.91-133.31,195.87-232.98,295.53s-204.62,182.4-295.53,232.98
		C784.92,1407.56,735.12,1424.52,697.8,1424.52z M1350.16,656.53c-8.15,0-16.47,1.11-23.8,2.54c-29,5.65-66.25,20.82-107.7,43.88
		c-88.31,49.13-190.67,129.91-288.23,227.47c-97.56,97.56-178.34,199.92-227.47,288.23c-23.06,41.46-38.24,78.7-43.88,107.7
		c-3.55,18.22-5.14,42.58,7.43,55.15c12.56,12.56,36.92,10.97,55.15,7.43c29-5.65,66.25-20.82,107.7-43.88
		c88.31-49.13,190.67-129.91,288.23-227.47l11.68,11.68l-11.68-11.68c97.56-97.56,178.34-199.92,227.47-288.23
		c23.06-41.46,38.24-78.7,43.88-107.7c3.55-18.22,5.14-42.58-7.43-55.15C1373.99,658.99,1362.27,656.53,1350.16,656.53z"/>
	<circle class="st3" cx="1024" cy="1024" r="52.29"/>
	<g>
		<path class="st4" d="M334.29,1730.23c-4.23,0-8.45-1.61-11.68-4.84c-6.45-6.45-6.45-16.91,0-23.36l192.87-192.87
			c6.45-6.45,16.91-6.45,23.36,0c6.45,6.45,6.45,16.91,0,23.36l-192.87,192.87C342.74,1728.62,338.51,1730.23,334.29,1730.23z"/>
	</g>
	<circle class="st5" cx="337.52" cy="1710.48" r="60.22"/>
	<g>
		<path class="st4" d="M1529.02,535.49c-4.23,0-8.45-1.61-11.68-4.84c-6.45-6.45-6.45-16.91,0-23.36l199.31-199.31
			c6.45-6.45,16.91-6.45,23.36,0c6.45,6.45,6.45,16.91,0,23.36L1540.7,530.66C1537.48,533.88,1533.25,535.49,1529.02,535.49z"/>
	</g>
	<circle class="st5" cx="1710.31" cy="337.7" r="60.22"/>
	<g id="XMLID_1_">
		<g>
			<path class="st5" d="M1731.59,725.02C1771.67,819.79,1792,920.37,1792,1024s-20.33,204.21-60.41,298.98
				c-38.69,91.47-94.04,173.58-164.53,244.08s-152.61,125.84-244.08,164.53c-94.77,40.08-195.35,60.41-298.98,60.41
				s-204.21-20.33-298.98-60.41c-91.46-38.69-173.58-94.04-244.08-164.53s-125.84-152.61-164.53-244.08
				C276.33,1228.21,256,1127.63,256,1024s20.33-204.21,60.41-298.98c38.69-91.46,94.04-173.58,164.53-244.08
				S633.56,355.1,725.02,316.41C819.79,276.33,920.37,256,1024,256s204.21,20.33,298.98,60.41
				c91.47,38.69,173.58,94.04,244.08,164.53S1692.9,633.56,1731.59,725.02z M1668.14,1024c0-355.75-288.39-644.14-644.14-644.14
				S379.86,668.25,379.86,1024s288.39,644.14,644.14,644.14S1668.14,1379.75,1668.14,1024z"/>
		</g>
	</g>
</g>
</svg>
