<?xml version="1.0" encoding="utf-8"?>
<!-- Generator: Adobe Illustrator 23.0.2, SVG Export Plug-In . SVG Version: 6.00 Build 0)  -->
<svg version="1.1" id="Layer_1" xmlns="http://www.w3.org/2000/svg" xmlns:xlink="http://www.w3.org/1999/xlink" x="0px" y="0px"
	 viewBox="0 0 2048 2048" style="enable-background:new 0 0 2048 2048;" xml:space="preserve">
<style type="text/css">
	.st0{fill:#EAF1FA;}
	.st1{fill:#FF725C;}
	.st2{fill:#5A7880;}
</style>
<g>
	<rect x="336.52" y="565.88" class="st0" width="1374.97" height="990.01"/>
	<rect x="256" y="492.11" class="st1" width="1536" height="109.72"/>
	<g>
		<g>
			<g>
				<g>
					<g>
						<g>
							<path class="st2" d="M672.72,1232.39H535.2c-11.4,0-20.65-9.24-20.65-20.65V945.97c0-11.4,9.24-20.65,20.65-20.65h137.53
								c11.4,0,20.65,9.24,20.65,20.65s-9.24,20.65-20.65,20.65H555.84v224.48h116.88c11.4,0,20.65,9.24,20.65,20.65
								S684.13,1232.39,672.72,1232.39z"/>
						</g>
						<g>
							<path class="st2" d="M672.72,1099.5H535.2c-11.4,0-20.65-9.24-20.65-20.65s9.24-20.65,20.65-20.65h137.53
								c11.4,0,20.65,9.24,20.65,20.65S684.13,1099.5,672.72,1099.5z"/>
						</g>
					</g>
					<g>
						<g>
							<path class="st2" d="M880.32,1139.11H758.52c-11.4,0-20.65-9.24-20.65-20.65c0-11.4,9.24-20.65,20.65-20.65h121.79
								c11.4,0,20.65,9.24,20.65,20.65C900.96,1129.87,891.72,1139.11,880.32,1139.11z"/>
						</g>
						<g>
							<path class="st2" d="M880.32,1059.9H758.52c-11.4,0-20.65-9.24-20.65-20.65s9.24-20.65,20.65-20.65h121.79
								c11.4,0,20.65,9.24,20.65,20.65S891.72,1059.9,880.32,1059.9z"/>
						</g>
					</g>
					<g>
						<g>
							<path class="st2" d="M1138.97,1231.86c-11.4,0-20.65-9.24-20.65-20.65v-192.35l-49.65,79.93c-3.77,6.06-10.4,9.75-17.54,9.75
								c-7.14,0-13.77-3.69-17.54-9.75l-49.65-79.93v192.35c0,11.4-9.24,20.65-20.65,20.65s-20.65-9.24-20.65-20.65V946.5
								c0-9.22,6.11-17.32,14.98-19.85c8.87-2.53,18.34,1.13,23.2,8.96l70.29,113.16l70.29-113.16c4.87-7.83,14.34-11.49,23.2-8.96
								c8.87,2.53,14.98,10.63,14.98,19.85v264.71C1159.61,1222.62,1150.37,1231.86,1138.97,1231.86z"/>
						</g>
					</g>
					<g>
						<path class="st2" d="M1337.13,1232.13h-46.67c-46.95,0-85.14-38.19-85.14-85.14v-136.25c0-46.95,38.19-85.14,85.14-85.14
							h46.67c46.95,0,85.14,38.19,85.14,85.14c0,11.4-9.24,20.65-20.65,20.65c-11.4,0-20.65-9.24-20.65-20.65
							c0-24.18-19.67-43.85-43.85-43.85h-46.67c-24.18,0-43.85,19.67-43.85,43.85v136.25c0,24.18,19.67,43.85,43.85,43.85h46.67
							c24.18,0,43.85-19.67,43.85-43.85c0-11.4,9.24-20.65,20.65-20.65c11.4,0,20.65,9.24,20.65,20.65
							C1422.27,1193.93,1384.08,1232.13,1337.13,1232.13z"/>
					</g>
				</g>
			</g>
			<g>
				<path class="st2" d="M1512.8,923.95h-77.13c-8.37,0-15.91-5.05-19.09-12.79c-3.18-7.74-1.38-16.63,4.56-22.52
					c24.7-24.48,53.68-58.04,57.4-69.56c2.01-6.22,3-18.13-0.47-23.39c-0.58-0.87-2.1-3.19-9.07-3.82
					c-13.75-1.25-20.94,2.72-22.63,12.47c-1.94,11.23-12.63,18.76-23.86,16.83c-11.23-1.94-18.77-12.63-16.83-23.86
					c4.14-23.91,24.17-50.45,67.05-46.56c22.1,2.01,33.84,13.17,39.79,22.18c15.88,24.05,6.43,55.36,5.3,58.85
					c-2.49,7.71-8.82,21.28-34.6,50.88h29.57c11.4,0,20.65,9.24,20.65,20.65S1524.2,923.95,1512.8,923.95z"/>
			</g>
		</g>
	</g>
</g>
</svg>
