<?xml version="1.0" encoding="utf-8"?>
<!-- Generator: Adobe Illustrator 23.0.2, SVG Export Plug-In . SVG Version: 6.00 Build 0)  -->
<svg version="1.1" id="Layer_1" xmlns="http://www.w3.org/2000/svg" xmlns:xlink="http://www.w3.org/1999/xlink" x="0px" y="0px"
	 viewBox="0 0 2048 2048" style="enable-background:new 0 0 2048 2048;" xml:space="preserve">
<style type="text/css">
	.st0{fill:#FF725C;}
	.st1{fill:#99D5FF;}
	.st2{fill:#DB624E;}
	.st3{fill:#5B7980;}
</style>
<g>
	<path class="st0" d="M1792,1668.12c0,39.4-31.94,71.34-71.34,71.34h0H327.34h0c-39.4,0-71.34-31.94-71.34-71.34l0,0V751.41h142.67
		v845.38h1250.65V751.41H1792V1668.12L1792,1668.12z"/>
	<path class="st1" d="M1649.32,913.97v682.81H398.68V913.97c86.22,7.25,93.64,56.18,193.57,56.18
		c107.93,0,107.93-57.07,215.87-57.07c107.94,0,107.94,57.07,215.88,57.07s107.93-57.07,215.87-57.07
		c107.94,0,107.94,57.07,215.89,57.07C1555.67,970.15,1563.09,921.22,1649.32,913.97z"/>
	<circle class="st0" cx="1024" cy="928.41" r="294.97"/>
	<path class="st2" d="M1318.97,927.51v0.9c0,162.9-132.06,294.97-294.97,294.97s-294.97-132.07-294.97-294.97v-0.91
		c19.81-8.27,43.62-14.43,79.08-14.43c107.94,0,107.94,57.07,215.88,57.07s107.93-57.07,215.87-57.07
		C1275.33,913.07,1299.15,919.24,1318.97,927.51z"/>
	<g>
		<g>
			<g>
				<g>
					<path class="st3" d="M748.12,1527.08c-9.12,0-16.52-7.39-16.52-16.52v-205.21c0-9.12,7.39-16.52,16.52-16.52
						s16.52,7.39,16.52,16.52v205.21C764.63,1519.69,757.24,1527.08,748.12,1527.08z"/>
				</g>
				<g>
					<path class="st3" d="M810.06,1399.72c-4.86,0-9.67-2.14-12.94-6.23l-49.01-61.61l-49.01,61.61
						c-5.68,7.14-16.07,8.32-23.21,2.64c-7.14-5.68-8.32-16.07-2.64-23.21l61.94-77.85c3.13-3.94,7.89-6.23,12.92-6.23
						s9.79,2.3,12.92,6.23l61.94,77.85c5.68,7.14,4.5,17.53-2.64,23.21C817.3,1398.55,813.67,1399.72,810.06,1399.72z"/>
				</g>
			</g>
		</g>
		<g>
			<g>
				<g>
					<path class="st3" d="M1024,1527.08c-9.12,0-16.52-7.39-16.52-16.52v-205.21c0-9.12,7.39-16.52,16.52-16.52
						c9.12,0,16.52,7.39,16.52,16.52v205.21C1040.52,1519.69,1033.12,1527.08,1024,1527.08z"/>
				</g>
				<g>
					<path class="st3" d="M1085.95,1399.72c-4.86,0-9.67-2.14-12.94-6.23l-49.01-61.61l-49.01,61.61
						c-5.68,7.14-16.07,8.32-23.21,2.64c-7.14-5.68-8.32-16.07-2.64-23.21l61.94-77.85c3.13-3.94,7.89-6.23,12.92-6.23
						c5.03,0,9.79,2.3,12.92,6.23l61.94,77.85c5.68,7.14,4.5,17.53-2.64,23.21C1093.18,1398.55,1089.55,1399.72,1085.95,1399.72z"/>
				</g>
			</g>
		</g>
		<g>
			<g>
				<g>
					<path class="st3" d="M1299.89,1527.08c-9.12,0-16.52-7.39-16.52-16.52v-205.21c0-9.12,7.39-16.52,16.52-16.52
						c9.12,0,16.52,7.39,16.52,16.52v205.21C1316.4,1519.69,1309.01,1527.08,1299.89,1527.08z"/>
				</g>
				<g>
					<path class="st3" d="M1361.83,1399.72c-4.86,0-9.67-2.14-12.94-6.23l-49.01-61.61l-49.01,61.61
						c-5.68,7.14-16.07,8.32-23.21,2.64c-7.14-5.68-8.32-16.07-2.64-23.21l61.94-77.85c3.13-3.94,7.89-6.23,12.92-6.23
						c5.03,0,9.79,2.3,12.92,6.23l61.94,77.85c5.68,7.14,4.5,17.53-2.64,23.21C1369.07,1398.55,1365.44,1399.72,1361.83,1399.72z"/>
				</g>
			</g>
		</g>
	</g>
	<g>
		<g>
			<g>
				<g>
					<path class="st3" d="M1299.89,546.79c-9.12,0-16.52-7.39-16.52-16.52V325.06c0-9.12,7.39-16.52,16.52-16.52
						c9.12,0,16.52,7.39,16.52,16.52v205.21C1316.4,539.39,1309.01,546.79,1299.89,546.79z"/>
				</g>
				<g>
					<path class="st3" d="M1299.89,546.79c-5.03,0-9.79-2.29-12.92-6.23l-61.94-77.85c-5.68-7.14-4.5-17.53,2.64-23.21
						c7.14-5.68,17.53-4.5,23.21,2.64l49.01,61.61l49.01-61.61c5.68-7.14,16.07-8.32,23.21-2.64c7.14,5.68,8.32,16.07,2.64,23.21
						l-61.94,77.85C1309.68,544.49,1304.92,546.79,1299.89,546.79z"/>
				</g>
			</g>
		</g>
		<g>
			<g>
				<g>
					<path class="st3" d="M1024,546.79c-9.12,0-16.52-7.39-16.52-16.52V325.06c0-9.12,7.39-16.52,16.52-16.52
						c9.12,0,16.52,7.39,16.52,16.52v205.21C1040.52,539.39,1033.12,546.79,1024,546.79z"/>
				</g>
				<g>
					<path class="st3" d="M1024,546.79c-5.03,0-9.79-2.29-12.92-6.23l-61.94-77.85c-5.68-7.14-4.5-17.53,2.64-23.21
						c7.14-5.68,17.53-4.5,23.21,2.64l49.01,61.6l49.01-61.6c5.68-7.14,16.07-8.32,23.21-2.64c7.14,5.68,8.32,16.07,2.64,23.21
						l-61.94,77.85C1033.79,544.49,1029.03,546.79,1024,546.79z"/>
				</g>
			</g>
		</g>
		<g>
			<g>
				<g>
					<path class="st3" d="M748.12,546.79c-9.12,0-16.52-7.39-16.52-16.52V325.06c0-9.12,7.39-16.52,16.52-16.52
						s16.52,7.39,16.52,16.52v205.21C764.63,539.39,757.24,546.79,748.12,546.79z"/>
				</g>
				<g>
					<path class="st3" d="M748.12,546.79c-5.03,0-9.79-2.29-12.92-6.23l-61.94-77.85c-5.68-7.14-4.5-17.53,2.64-23.21
						c7.14-5.68,17.53-4.5,23.21,2.64l49.01,61.6l49.01-61.6c5.68-7.14,16.07-8.32,23.21-2.64c7.14,5.68,8.32,16.07,2.64,23.21
						l-61.94,77.85C757.91,544.49,753.15,546.79,748.12,546.79z"/>
				</g>
			</g>
		</g>
	</g>
</g>
</svg>
