<?xml version="1.0" encoding="utf-8"?>
<!-- Generator: Adobe Illustrator 23.0.2, SVG Export Plug-In . SVG Version: 6.00 Build 0)  -->
<svg version="1.1" id="Layer_1" xmlns="http://www.w3.org/2000/svg" xmlns:xlink="http://www.w3.org/1999/xlink" x="0px" y="0px"
	 viewBox="0 0 2048 2048" style="enable-background:new 0 0 2048 2048;" xml:space="preserve">
<style type="text/css">
	.st0{fill:#FF725C;}
	.st1{fill:#72C5FF;}
	.st2{fill:#FAE381;}
	.st3{fill:#EAF1FA;}
</style>
<g>
	<path class="st0" d="M1024,1792c82.96,0,163.51-16.27,239.39-48.37c73.24-30.98,138.99-75.29,195.43-131.74
		c56.44-56.44,100.77-122.19,131.75-195.43c32.09-75.88,48.36-156.43,48.36-239.39V809.22h-215.43v367.86
		c0,220.28-179.21,399.49-399.49,399.49V1792z"/>
	<path class="st1" d="M1024,1576.57c-220.28,0-399.49-179.21-399.49-399.49V809.22H409.07v367.86c0,82.96,16.27,163.51,48.36,239.39
		c30.98,73.24,75.3,138.98,131.75,195.43c56.43,56.44,122.19,100.76,195.43,131.74c75.88,32.1,156.43,48.37,239.39,48.37V1576.57z"
		/>
	<g>
		<g>
			<path class="st2" d="M424.58,548.38c-9.12,0-16.52-7.39-16.52-16.52V427.81c0-9.12,7.39-16.52,16.52-16.52
				s16.52,7.39,16.52,16.52v104.05C441.1,540.98,433.7,548.38,424.58,548.38z"/>
		</g>
		<g>
			<path class="st2" d="M516.79,486.44c-9.12,0-16.52-7.39-16.52-16.52V365.87c0-9.12,7.39-16.52,16.52-16.52
				c9.12,0,16.52,7.39,16.52,16.52v104.05C533.3,479.05,525.91,486.44,516.79,486.44z"/>
		</g>
		<g>
			<path class="st2" d="M608.99,548.38c-9.12,0-16.52-7.39-16.52-16.52V427.81c0-9.12,7.39-16.52,16.52-16.52
				s16.52,7.39,16.52,16.52v104.05C625.51,540.98,618.11,548.38,608.99,548.38z"/>
		</g>
	</g>
	<g>
		<g>
			<path class="st2" d="M1439.01,548.38c-9.12,0-16.52-7.39-16.52-16.52V427.81c0-9.12,7.39-16.52,16.52-16.52
				s16.52,7.39,16.52,16.52v104.05C1455.52,540.98,1448.13,548.38,1439.01,548.38z"/>
		</g>
		<g>
			<path class="st2" d="M1531.21,486.44c-9.12,0-16.52-7.39-16.52-16.52V365.87c0-9.12,7.39-16.52,16.52-16.52
				c9.12,0,16.52,7.39,16.52,16.52v104.05C1547.73,479.05,1540.33,486.44,1531.21,486.44z"/>
		</g>
		<g>
			<path class="st2" d="M1623.42,548.38c-9.12,0-16.52-7.39-16.52-16.52V427.81c0-9.12,7.39-16.52,16.52-16.52
				s16.52,7.39,16.52,16.52v104.05C1639.93,540.98,1632.54,548.38,1623.42,548.38z"/>
		</g>
	</g>
	<polygon class="st2" points="1088.22,256 863.16,537.25 1009.26,537.25 968.17,730.65 1184.84,462.64 1043.55,462.64 	"/>
	<rect x="409.07" y="633.36" class="st3" width="215.43" height="175.86"/>
	<rect x="1423.49" y="633.36" class="st3" width="215.43" height="175.86"/>
</g>
</svg>
