<?xml version="1.0" encoding="utf-8"?>
<!-- Generator: Adobe Illustrator 23.0.2, SVG Export Plug-In . SVG Version: 6.00 Build 0)  -->
<svg version="1.1" id="Layer_1" xmlns="http://www.w3.org/2000/svg" xmlns:xlink="http://www.w3.org/1999/xlink" x="0px" y="0px"
	 viewBox="0 0 2048 2048" style="enable-background:new 0 0 2048 2048;" xml:space="preserve">
<style type="text/css">
	.st0{fill:#5C9EFF;}
	.st1{fill:#FF725C;}
	.st2{fill:#72C5FF;}
	.st3{fill:#84E69F;}
	.st4{fill:#FFE783;}
</style>
<g>
	<g>
		<path class="st0" d="M557.07,883.68c-21.87,0-43.1-4.1-61.82-12c-8.23-3.47-12.09-12.95-8.62-21.18
			c3.47-8.23,12.95-12.09,21.18-8.62c16.28,6.86,36,10.18,55.53,9.32c24.13-1.06,47.44-8.7,73.36-24.06
			c19.44-11.52,36.43-25.41,50.51-41.29c2.44-2.75,4.69-5.48,6.69-8.1c20.83-27.26,37.4-59.8,52.15-102.4
			c17.33-50.04,39.9-98.49,67.08-144c2.31-3.87,4.39-7.3,6.35-10.48c13.02-21.09,31.33-48.52,57.58-73.58
			c3.53-3.37,7.13-6.63,10.7-9.69c12.93-11.06,30.75-24.99,54.08-34.58c19.45-8,43.08-13.47,68.34-15.83
			c25.73-2.4,51.77-1.56,75.31,2.42c12.29,2.08,24.25,5.07,35.53,8.89c48.54,16.45,79.05,47.6,100.2,72.9
			c17.42,20.84,30.73,42,41.45,59.95c27.18,45.51,49.74,93.96,67.08,144c14.76,42.6,31.33,75.14,52.15,102.4
			c2,2.62,4.25,5.35,6.69,8.1c14.07,15.88,31.06,29.77,50.51,41.29c25.92,15.36,49.23,23,73.36,24.06
			c19.52,0.85,39.25-2.45,55.53-9.32c8.23-3.47,17.71,0.39,21.18,8.62c3.47,8.23-0.39,17.71-8.62,21.18
			c-20.9,8.81-44.95,12.9-69.5,11.83c-29.65-1.3-57.75-10.37-88.43-28.54c-22.33-13.23-41.92-29.27-58.23-47.67
			c-2.95-3.34-5.71-6.67-8.19-9.91c-22.98-30.08-41.09-65.49-57.01-111.45c-16.61-47.96-38.24-94.39-64.28-138.01
			c-10.07-16.86-22.52-36.68-38.5-55.79c-19.59-23.42-45.09-49.23-85.77-63.01c-9.66-3.27-19.94-5.84-30.54-7.64
			c-20.81-3.52-43.95-4.25-66.92-2.1c-22.1,2.06-42.52,6.74-59.04,13.54c-19.08,7.85-34.26,19.75-45.35,29.25
			c-3.13,2.68-6.29,5.54-9.4,8.51c-23.45,22.38-39.65,46.52-52.4,67.17c-1.88,3.05-3.88,6.34-6.11,10.07
			c-26.04,43.62-47.67,90.05-64.29,138.01c-15.92,45.95-34.03,81.37-57.01,111.45c-2.48,3.24-5.23,6.58-8.19,9.91
			c-16.3,18.4-35.89,34.44-58.23,47.67c-30.68,18.17-58.77,27.24-88.43,28.54C562.19,883.62,559.63,883.68,557.07,883.68z"/>
	</g>
	<g>
		<g>
			<g>
				<path class="st0" d="M1775.83,1702.38H272.17c-8.93,0-16.17-7.24-16.17-16.17s7.24-16.17,16.17-16.17h1503.66
					c8.93,0,16.17,7.24,16.17,16.17S1784.76,1702.38,1775.83,1702.38z"/>
			</g>
			<g>
				<path class="st0" d="M1708.97,1769.23c-4.14,0-8.28-1.58-11.43-4.74c-6.31-6.31-6.31-16.55,0-22.87l55.43-55.43l-55.43-55.42
					c-6.31-6.31-6.31-16.55,0-22.87c6.31-6.31,16.55-6.31,22.87,0l66.86,66.86c3.03,3.03,4.74,7.14,4.74,11.43s-1.7,8.4-4.74,11.43
					l-66.86,66.86C1717.25,1767.65,1713.11,1769.23,1708.97,1769.23z"/>
			</g>
		</g>
		<g>
			<g>
				<path class="st0" d="M357.98,1792c-8.93,0-16.17-7.24-16.17-16.17V272.17c0-8.93,7.24-16.17,16.17-16.17s16.17,7.24,16.17,16.17
					v1503.66C374.15,1784.76,366.91,1792,357.98,1792z"/>
			</g>
			<g>
				<path class="st0" d="M424.84,355.19c-4.14,0-8.28-1.58-11.43-4.74l-55.43-55.43l-55.42,55.42c-6.31,6.31-16.55,6.31-22.87,0
					c-6.31-6.31-6.31-16.55,0-22.87l66.86-66.86c6.31-6.31,16.55-6.31,22.87,0l66.86,66.86c6.31,6.31,6.31,16.55,0,22.87
					C433.12,353.62,428.98,355.19,424.84,355.19z"/>
			</g>
		</g>
	</g>
	<rect x="493.31" y="1178.69" class="st1" width="165.89" height="377.61"/>
	<rect x="801.08" y="921.13" class="st2" width="165.89" height="635.18"/>
	<rect x="1108.84" y="853.46" class="st3" width="165.89" height="702.84"/>
	<rect x="1416.61" y="1019.35" class="st4" width="165.89" height="536.95"/>
</g>
</svg>
