<?xml version="1.0" encoding="utf-8"?>
<!-- Generator: Adobe Illustrator 23.0.2, SVG Export Plug-In . SVG Version: 6.00 Build 0)  -->
<svg version="1.1" id="Layer_1" xmlns="http://www.w3.org/2000/svg" xmlns:xlink="http://www.w3.org/1999/xlink" x="0px" y="0px"
	 viewBox="0 0 2048 2048" style="enable-background:new 0 0 2048 2048;" xml:space="preserve">
<style type="text/css">
	.st0{fill:#FFAA5F;}
	.st1{fill:#FF725C;}
	.st2{fill:#5A7A80;}
</style>
<g>
	<polygon class="st0" points="256,646.2 256,1620.62 1760.81,1620.62 	"/>
	<circle class="st1" cx="1125.33" cy="870.14" r="244.45"/>
	<g>
		<g>
			<g>
				<g>
					<path class="st2" d="M786.32,678.67c-4.41,0-8.88-1.2-12.9-3.71L449.36,472.44c-11.42-7.14-14.89-22.18-7.75-33.6
						c7.14-11.42,22.18-14.89,33.6-7.75l324.07,202.52c11.42,7.14,14.89,22.18,7.75,33.6C802.4,674.6,794.45,678.67,786.32,678.67z"
						/>
				</g>
				<g>
					<path class="st2" d="M648.47,694.38c-12.23,0-22.78-9.18-24.19-21.62c-1.52-13.38,8.08-25.46,21.46-26.99l107.39-12.24
						l-36.07-101.9c-4.49-12.69,2.15-26.63,14.85-31.12c12.69-4.49,26.63,2.15,31.12,14.85l46.29,130.78
						c2.48,7,1.63,14.76-2.31,21.06c-3.94,6.3-10.53,10.46-17.91,11.3l-137.84,15.71C650.33,694.33,649.39,694.38,648.47,694.38z"/>
				</g>
			</g>
		</g>
		<g>
			<g>
				<g>
					<path class="st2" d="M1767.59,1367.51c-4.41,0-8.88-1.2-12.9-3.71l-324.07-202.52c-11.42-7.14-14.89-22.18-7.75-33.6
						c7.13-11.42,22.18-14.89,33.6-7.75l324.07,202.52c11.42,7.14,14.89,22.18,7.76,33.6
						C1783.67,1363.44,1775.72,1367.51,1767.59,1367.51z"/>
				</g>
				<g>
					<path class="st2" d="M1629.74,1383.22c-12.23,0-22.77-9.18-24.19-21.62c-1.52-13.38,8.08-25.46,21.46-26.99l107.39-12.24
						l-36.07-101.9c-4.49-12.69,2.15-26.63,14.85-31.12c12.69-4.5,26.62,2.15,31.12,14.85l46.29,130.78
						c2.48,7,1.63,14.76-2.31,21.06c-3.94,6.3-10.53,10.46-17.91,11.3l-137.84,15.71
						C1631.6,1383.17,1630.66,1383.22,1629.74,1383.22z"/>
				</g>
			</g>
		</g>
	</g>
</g>
</svg>
