<?xml version="1.0" encoding="utf-8"?>
<!-- Generator: Adobe Illustrator 23.0.2, SVG Export Plug-In . SVG Version: 6.00 Build 0)  -->
<svg version="1.1" id="Layer_1" xmlns="http://www.w3.org/2000/svg" xmlns:xlink="http://www.w3.org/1999/xlink" x="0px" y="0px"
	 viewBox="0 0 2048 2048" style="enable-background:new 0 0 2048 2048;" xml:space="preserve">
<style type="text/css">
	.st0{fill:#EAF1FA;}
	.st1{fill:#5A7A80;}
	.st2{fill:#4E6B70;}
</style>
<g>
	<g>
		<g id="XMLID_2_">
			<path class="st0" d="M1348.01,408.96c79.81,0,144.51,64.7,144.51,144.52s-64.7,144.52-144.51,144.52
				c-79.82,0-144.52-64.7-144.52-144.52S1268.19,408.96,1348.01,408.96z"/>
			<path class="st1" d="M1645.49,506.33v94.32h-75.64c-5.85,27.64-16.73,53.42-31.65,76.35l53.5,53.5l-66.69,66.69l-53.5-53.5
				c-22.92,14.92-48.7,25.8-76.35,31.64v75.64h-94.32v-75.64c-27.64-5.84-53.43-16.72-76.35-31.64l-53.5,53.5l-66.69-66.69
				l53.5-53.5c-14.92-22.93-25.8-48.7-31.65-76.35h-75.64v-94.32h75.64c5.85-27.64,16.73-53.43,31.65-76.36l-53.5-53.5l66.69-66.69
				l53.5,53.5c22.92-14.91,48.7-25.8,76.35-31.64V256h94.32v75.64c27.64,5.84,53.43,16.73,76.35,31.64l53.5-53.5l66.69,66.69
				l-53.5,53.5c14.92,22.93,25.8,48.71,31.65,76.36H1645.49z M1458.32,553.49c0-60.93-49.39-110.33-110.32-110.33
				c-60.93,0-110.33,49.39-110.33,110.33s49.39,110.33,110.33,110.33C1408.93,663.81,1458.32,614.42,1458.32,553.49z"/>
			<path class="st0" d="M888.23,1089.51c119.71,0,216.77,97.05,216.77,216.78c0,119.71-97.05,216.77-216.77,216.77
				c-119.73,0-216.78-97.05-216.78-216.77C671.45,1186.57,768.5,1089.51,888.23,1089.51z"/>
			<path class="st2" d="M1373.94,1229.3v153.99h-123.5c-9.55,45.13-27.31,87.23-51.66,124.66l87.35,87.35l-108.89,108.89
				l-87.35-87.35c-37.43,24.35-79.53,42.12-124.66,51.66V1792H811.23v-123.5c-45.14-9.55-87.24-27.31-124.66-51.66l-87.36,87.35
				l-108.88-108.89l87.35-87.35c-24.35-37.43-42.12-79.53-51.66-124.66H402.51V1229.3h123.51c9.55-45.14,27.31-87.24,51.66-124.67
				l-87.35-87.35l108.88-108.89l87.36,87.36c37.42-24.35,79.51-42.13,124.66-51.66V820.57h153.99v123.51
				c45.13,9.54,87.23,27.31,124.66,51.66l87.35-87.36l108.89,108.89l-87.35,87.35c24.35,37.43,42.12,79.53,51.66,124.67H1373.94z
				 M1068.36,1306.29c0-99.49-80.65-180.14-180.13-180.14c-99.49,0-180.14,80.65-180.14,180.14c0,99.48,80.65,180.13,180.14,180.13
				C987.71,1486.42,1068.36,1405.77,1068.36,1306.29z"/>
		</g>
	</g>
</g>
</svg>
