<?xml version="1.0" encoding="utf-8"?>
<!-- Generator: Adobe Illustrator 23.0.2, SVG Export Plug-In . SVG Version: 6.00 Build 0)  -->
<svg version="1.1" id="Layer_1" xmlns="http://www.w3.org/2000/svg" xmlns:xlink="http://www.w3.org/1999/xlink" x="0px" y="0px"
	 viewBox="0 0 2048 2048" style="enable-background:new 0 0 2048 2048;" xml:space="preserve">
<style type="text/css">
	.st0{fill:#5B7980;}
	.st1{fill:#496066;}
	.st2{fill:#EAF1FA;}
	.st3{fill:#D8DEE6;}
</style>
<g>
	
		<rect x="927.31" y="572.22" transform="matrix(0.7071 -0.7071 0.7071 0.7071 -138.8803 1061.582)" class="st0" width="569.39" height="252.43"/>
	
		<rect x="1396.28" y="381.27" transform="matrix(-0.7071 0.7071 -0.7071 -0.7071 2805.3098 -249.9765)" class="st1" width="116.29" height="149.48"/>
	
		<rect x="1481.12" y="253.86" transform="matrix(-0.7071 0.7071 -0.7071 -0.7071 2881.2498 -433.312)" class="st0" width="98.5" height="252.43"/>
	
		<rect x="793.19" y="900.8" transform="matrix(-0.7071 0.7071 -0.7071 -0.7071 2271.4827 1038.7961)" class="st2" width="254.83" height="178.07"/>
	
		<rect x="657.2" y="1096.78" transform="matrix(-0.7071 0.7071 -0.7071 -0.7071 2109.6045 1429.6045)" class="st0" width="203.03" height="109.87"/>
	<path class="st3" d="M1100.21,1269.11l-166.48-166.48l87.37-87.37l228.59,228.59c62.04,62.04,62.04,162.63,0,224.67l-276.95,276.95
		c-62.04,62.04-162.63,62.04-224.67,0l-354.51-354.51l87.37-87.37l291.8,291.8c48.12,48.12,126.1,48.27,174.4,0.34l152.72-151.54
		C1148.45,1395.99,1148.6,1317.49,1100.21,1269.11z"/>
	
		<rect x="529.27" y="1278.09" transform="matrix(-0.7071 0.7071 -0.7071 -0.7071 1928.2921 1867.3315)" class="st0" width="96.27" height="109.87"/>
</g>
</svg>
