<?xml version="1.0" encoding="utf-8"?>
<!-- Generator: Adobe Illustrator 23.0.2, SVG Export Plug-In . SVG Version: 6.00 Build 0)  -->
<svg version="1.1" id="Layer_1" xmlns="http://www.w3.org/2000/svg" xmlns:xlink="http://www.w3.org/1999/xlink" x="0px" y="0px"
	 viewBox="0 0 2048 2048" style="enable-background:new 0 0 2048 2048;" xml:space="preserve">
<style type="text/css">
	.st0{fill:#FFE783;}
	.st1{fill:#496066;}
</style>
<g>
	<circle class="st0" cx="1024" cy="1024" r="768"/>
	<circle class="st1" cx="1024" cy="1024" r="48.61"/>
	<path class="st1" d="M1549.47,1327.38c-54.97,95.19-131.84,169.88-220.57,221.32l-235.28-404.9c41.1-23.94,68.77-68.43,68.91-119.4
		l468.33,1.31C1630.67,1128.27,1604.43,1232.19,1549.47,1327.38z"/>
	<path class="st1" d="M1325.96,497.6l-233.01,406.21c-20.3-11.66-43.84-18.34-68.94-18.34c-25.1,0-48.64,6.68-68.94,18.34
		L722.04,497.6c88.92-51.13,192.03-80.36,301.96-80.36S1237.04,446.47,1325.96,497.6z"/>
	<path class="st1" d="M954.38,1143.79L719.1,1548.7c-88.73-51.44-165.61-126.12-220.57-221.32
		c-54.96-95.19-81.2-199.11-81.38-301.68l468.33-1.31C885.62,1075.37,913.28,1119.86,954.38,1143.79z"/>
</g>
</svg>
