<?xml version="1.0" encoding="utf-8"?>
<!-- Generator: Adobe Illustrator 23.0.2, SVG Export Plug-In . SVG Version: 6.00 Build 0)  -->
<svg version="1.1" id="Layer_1" xmlns="http://www.w3.org/2000/svg" xmlns:xlink="http://www.w3.org/1999/xlink" x="0px" y="0px"
	 viewBox="0 0 2048 2048" style="enable-background:new 0 0 2048 2048;" xml:space="preserve">
<style type="text/css">
	.st0{fill:#496066;}
	.st1{fill:#6D9199;}
	.st2{fill:#B3E4FF;}
	.st3{fill:#DFEBFA;}
	.st4{fill:#FF725C;}
	.st5{fill:#62B8F5;}
</style>
<g>
	<g>
		<rect x="379.17" y="1543.97" class="st0" width="138.31" height="163.32"/>
		<rect x="1530.52" y="1543.97" class="st0" width="138.31" height="163.32"/>
	</g>
	<rect x="256" y="340.71" class="st1" width="1536" height="1229.86"/>
	<rect x="390.19" y="474.9" class="st2" width="932.29" height="629.95"/>
	<g>
		<circle class="st3" cx="1266.35" cy="1349.86" r="104.85"/>
		<g>
			<path class="st4" d="M1266.36,1366.38c-4.23,0-8.45-1.61-11.68-4.84c-6.45-6.45-6.45-16.91,0-23.36l46.58-46.58
				c6.45-6.45,16.91-6.45,23.36,0c6.45,6.45,6.45,16.91,0,23.36l-46.58,46.58C1274.81,1364.76,1270.58,1366.38,1266.36,1366.38z"/>
		</g>
	</g>
	<g>
		<rect x="371.03" y="1218.92" class="st0" width="114.27" height="252.3"/>
		<rect x="587.62" y="1218.92" class="st0" width="114.27" height="252.3"/>
	</g>
	<g>
		<g>
			<path class="st0" d="M1043.55,1251.96h-58.83c-9.12,0-16.52-7.39-16.52-16.52c0-9.12,7.39-16.52,16.52-16.52h58.83
				c9.12,0,16.52,7.39,16.52,16.52C1060.07,1244.56,1052.67,1251.96,1043.55,1251.96z"/>
		</g>
		<g>
			<path class="st0" d="M884.82,1251.96h-58.83c-9.12,0-16.52-7.39-16.52-16.52c0-9.12,7.39-16.52,16.52-16.52h58.83
				c9.12,0,16.52,7.39,16.52,16.52C901.34,1244.56,893.94,1251.96,884.82,1251.96z"/>
		</g>
		<g>
			<path class="st0" d="M1043.55,1361.59h-58.83c-9.12,0-16.52-7.39-16.52-16.52c0-9.12,7.39-16.52,16.52-16.52h58.83
				c9.12,0,16.52,7.39,16.52,16.52C1060.07,1354.19,1052.67,1361.59,1043.55,1361.59z"/>
		</g>
		<g>
			<path class="st0" d="M884.82,1361.59h-58.83c-9.12,0-16.52-7.39-16.52-16.52c0-9.12,7.39-16.52,16.52-16.52h58.83
				c9.12,0,16.52,7.39,16.52,16.52C901.34,1354.19,893.94,1361.59,884.82,1361.59z"/>
		</g>
		<g>
			<path class="st0" d="M1043.55,1471.22h-58.83c-9.12,0-16.52-7.39-16.52-16.52s7.39-16.52,16.52-16.52h58.83
				c9.12,0,16.52,7.39,16.52,16.52S1052.67,1471.22,1043.55,1471.22z"/>
		</g>
		<g>
			<path class="st0" d="M884.82,1471.22h-58.83c-9.12,0-16.52-7.39-16.52-16.52s7.39-16.52,16.52-16.52h58.83
				c9.12,0,16.52,7.39,16.52,16.52S893.94,1471.22,884.82,1471.22z"/>
		</g>
	</g>
	<g>
		<g>
			<path class="st0" d="M1681.99,1121.36h-76.4c-9.12,0-16.52-7.39-16.52-16.52s7.39-16.52,16.52-16.52h76.4
				c9.12,0,16.52,7.39,16.52,16.52S1691.11,1121.36,1681.99,1121.36z"/>
		</g>
		<g>
			<g>
				<circle class="st3" cx="1466.52" cy="525.44" r="50.54"/>
				<circle class="st3" cx="1647.96" cy="525.44" r="50.54"/>
			</g>
			<g>
				<circle class="st3" cx="1466.52" cy="730.54" r="50.54"/>
				<circle class="st3" cx="1647.96" cy="730.54" r="50.54"/>
			</g>
			<g>
				<circle class="st3" cx="1466.52" cy="935.64" r="50.54"/>
				<circle class="st3" cx="1647.96" cy="935.64" r="50.54"/>
			</g>
		</g>
		<g>
			<path class="st0" d="M1508.9,1121.36h-76.4c-9.12,0-16.52-7.39-16.52-16.52s7.39-16.52,16.52-16.52h76.4
				c9.12,0,16.52,7.39,16.52,16.52S1518.02,1121.36,1508.9,1121.36z"/>
		</g>
	</g>
	<g>
		<path class="st5" d="M1322.49,641.1v51.43c-14.1,26.42-25.84,66.79-36.07,101.96c-10.37,35.67-21.1,72.56-34.65,100.52
			c-6.45,13.32-26.09,53.83-64.05,53.83c-37.97,0-57.6-40.52-64.05-53.83c-13.55-27.96-24.28-64.85-34.65-100.52
			c-16.92-58.17-37.97-130.55-66.99-130.55c-29.02,0-50.07,72.38-66.98,130.55c-10.37,35.67-21.1,72.56-34.65,100.52
			c-6.45,13.32-26.09,53.83-64.05,53.83c-37.97,0-57.6-40.52-64.05-53.83c-13.55-27.96-24.28-64.85-34.65-100.52
			c-16.91-58.17-37.96-130.55-66.98-130.55s-50.07,72.38-66.98,130.55c-10.37,35.67-21.1,72.56-34.65,100.52
			c-6.45,13.32-26.09,53.83-64.05,53.83c-37.97,0-57.6-40.52-64.05-53.83c-13.55-27.96-24.28-64.85-34.65-100.52
			c-10.22-35.17-21.96-75.54-36.06-101.96V641.1c18.24,12.9,28.74,34.57,33.13,43.63c13.55,27.96,24.28,64.85,34.65,100.52
			c16.91,58.17,37.96,130.55,66.98,130.55s50.07-72.38,66.98-130.55c10.37-35.67,21.1-72.56,34.65-100.52
			c6.45-13.32,26.09-53.83,64.05-53.83c37.97,0,57.6,40.52,64.05,53.83c13.55,27.96,24.28,64.85,34.65,100.52
			c16.91,58.17,37.96,130.55,66.98,130.55s50.07-72.38,66.98-130.55c10.37-35.67,21.1-72.56,34.65-100.52
			c6.45-13.32,26.1-53.83,64.05-53.83c37.97,0,57.6,40.52,64.05,53.83c13.55,27.96,24.29,64.85,34.66,100.52
			c16.91,58.17,37.96,130.55,66.98,130.55s50.07-72.38,66.99-130.55c10.37-35.67,21.1-72.56,34.65-100.52
			C1293.75,675.67,1304.25,654.01,1322.49,641.1z"/>
	</g>
	<g>
		<circle class="st3" cx="1573.62" cy="1349.86" r="104.85"/>
		<g>
			<path class="st4" d="M1590.14,1349.85c0,4.23-1.61,8.45-4.84,11.68c-6.45,6.45-16.91,6.45-23.36,0l-46.58-46.58
				c-6.45-6.45-6.45-16.91,0-23.36c6.45-6.45,16.91-6.45,23.36,0l46.58,46.58C1588.53,1341.4,1590.14,1345.63,1590.14,1349.85z"/>
		</g>
	</g>
</g>
</svg>
