<?xml version="1.0" encoding="utf-8"?>
<!-- Generator: Adobe Illustrator 23.0.2, SVG Export Plug-In . SVG Version: 6.00 Build 0)  -->
<svg version="1.1" id="Layer_1" xmlns="http://www.w3.org/2000/svg" xmlns:xlink="http://www.w3.org/1999/xlink" x="0px" y="0px"
	 viewBox="0 0 2048 2048" style="enable-background:new 0 0 2048 2048;" xml:space="preserve">
<style type="text/css">
	.st0{fill:#D6DDE6;}
	.st1{fill:#F2F7FF;}
	.st2{fill:#5C9EFF;}
	.st3{fill:#FF725C;}
	.st4{fill:#E66753;}
	.st5{fill:#FFDA66;}
	.st6{fill:#5B7880;}
</style>
<g>
	<g>
		<g>
			<path class="st0" d="M1004.02,1366.34c-9.12,0-16.52-7.39-16.52-16.52v-516c0-9.12,7.39-16.52,16.52-16.52
				s16.52,7.39,16.52,16.52v516C1020.53,1358.95,1013.14,1366.34,1004.02,1366.34z"/>
		</g>
		<g>
			<g>
				<path class="st0" d="M597.06,1366.34c-9.12,0-16.52-7.39-16.52-16.52V417.62c0-9.12,7.39-16.52,16.52-16.52
					c9.12,0,16.52,7.39,16.52,16.52v932.21C613.57,1358.95,606.18,1366.34,597.06,1366.34z"/>
			</g>
		</g>
		<g>
			<circle class="st1" cx="800.54" cy="1349.83" r="115.05"/>
			<g id="XMLID_1_">
				<path class="st2" d="M800.54,1129.84c121.5,0,219.99,98.49,219.99,219.99c0,121.5-98.5,219.99-219.99,219.99
					s-219.99-98.5-219.99-219.99C580.54,1228.33,679.04,1129.84,800.54,1129.84z M882.98,1349.83c0-45.54-36.91-82.46-82.45-82.46
					s-82.45,36.91-82.45,82.46c0,45.53,36.91,82.45,82.45,82.45S882.98,1395.37,882.98,1349.83z"/>
			</g>
		</g>
		<g>
			<path class="st0" d="M1410.97,1466.15c-9.12,0-16.52-7.39-16.52-16.52v-615.8c0-9.12,7.39-16.52,16.52-16.52
				s16.52,7.39,16.52,16.52v615.8C1427.49,1458.76,1420.09,1466.15,1410.97,1466.15z"/>
		</g>
		<rect x="1205.84" y="1506.45" class="st3" width="410.26" height="231.89"/>
		<rect x="1314.35" y="1408.34" class="st4" width="193.24" height="98.11"/>
		<g>
			<circle class="st1" cx="1207.49" cy="836.75" r="115.05"/>
			<g id="XMLID_2_">
				<path class="st2" d="M1207.49,616.76c121.5,0,219.99,98.49,219.99,219.99c0,121.5-98.5,219.99-219.99,219.99
					c-121.5,0-219.99-98.5-219.99-219.99C987.5,715.24,1086,616.76,1207.49,616.76z M1289.94,836.75
					c0-45.54-36.91-82.46-82.45-82.46c-45.53,0-82.45,36.91-82.45,82.46c0,45.53,36.91,82.45,82.45,82.45
					C1253.03,919.2,1289.94,882.28,1289.94,836.75z"/>
			</g>
		</g>
		<path class="st5" d="M1164.02,802.23V363.64h86.96v438.59c0,24.01-19.47,43.48-43.48,43.48h0
			C1183.48,845.71,1164.02,826.24,1164.02,802.23z"/>
	</g>
	<rect x="256" y="309.67" class="st6" width="1536" height="107.96"/>
</g>
</svg>
