<?xml version="1.0" encoding="utf-8"?>
<!-- Generator: Adobe Illustrator 23.0.2, SVG Export Plug-In . SVG Version: 6.00 Build 0)  -->
<svg version="1.1" id="Layer_1" xmlns="http://www.w3.org/2000/svg" xmlns:xlink="http://www.w3.org/1999/xlink" x="0px" y="0px"
	 viewBox="0 0 2048 2048" style="enable-background:new 0 0 2048 2048;" xml:space="preserve">
<style type="text/css">
	.st0{fill:#E0E7F0;}
	.st1{fill:#E6D076;}
	.st2{fill:#FFE783;}
	.st3{fill:#72C5FF;}
	.st4{fill:#FF725C;}
	.st5{fill:#84E69F;}
</style>
<g>
	<g>
		<g>
			<path class="st0" d="M276.1,1792c-5.15,0-10.29-1.96-14.22-5.89c-7.85-7.85-7.85-20.58,0-28.43l269.12-269.12
				c7.85-7.85,20.58-7.85,28.43,0s7.85,20.58,0,28.43l-269.12,269.12C286.4,1790.04,281.25,1792,276.1,1792z"/>
		</g>
	</g>
	<g>
		<g>
			<path class="st0" d="M1521.77,546.33c-5.15,0-10.29-1.96-14.22-5.89c-7.85-7.85-7.85-20.58,0-28.43l250.12-250.12
				c7.85-7.85,20.58-7.85,28.43,0c7.85,7.85,7.85,20.58,0,28.43l-250.12,250.12C1532.06,544.37,1526.92,546.33,1521.77,546.33z"/>
		</g>
	</g>
	<g>
		<path class="st1" d="M541.2,1583.78c-21.26,21.26-55.72,21.26-76.98,0l0,0c-21.26-21.26-21.26-55.72,0-76.98L1506.8,464.22
			c21.26-21.26,55.72-21.26,76.98,0v0c21.26,21.26,21.26,55.72,0,76.98L541.2,1583.78z"/>
	</g>
	<path class="st2" d="M1555.57,769.59c-8.36,14.52-18.75,28.18-31.15,40.58c-7.39,7.39-15.36,14.16-23.81,20.27
		c-2.61,1.89-5.28,3.71-7.99,5.45c-6.04,3.93-12.3,7.51-18.76,10.75l-54.29,27.16c-47.52,23.77-92.76,51.89-134.9,84.26
		c-36.91,28.37-72.65,58.12-107.13,89.19c-45.66,41.15-89.12,84.62-130.28,130.28c-31.07,34.48-60.83,70.22-89.19,107.13
		c-32.37,42.14-60.49,87.39-84.26,134.9l-27.16,54.29c-3.24,6.45-6.82,12.72-10.75,18.76c-7.41,11.46-16.03,22.13-25.71,31.81
		c-12.4,12.4-26.07,22.79-40.58,31.15c-29.97,17.26-63.54,25.89-97.13,25.89c-49.85,0-99.69-19.02-137.72-57.05l-11.17-11.17
		c-63.65-63.65-74.04-160.4-31.15-234.84c8.36-14.52,18.75-28.18,31.15-40.58c7.39-7.39,15.36-14.16,23.81-20.27
		c2.61-1.89,5.28-3.71,7.99-5.45c6.04-3.93,12.3-7.51,18.76-10.75l54.29-27.16c47.52-23.77,92.76-51.89,134.9-84.26
		c36.91-28.37,72.65-58.12,107.13-89.19c45.66-41.15,89.12-84.62,130.28-130.28c31.07-34.48,60.83-70.22,89.19-107.13
		c32.37-42.14,60.48-87.39,84.26-134.9l27.16-54.29c3.24-6.45,6.82-12.72,10.75-18.76c7.41-11.46,16.03-22.13,25.71-31.81
		c12.4-12.4,26.07-22.79,40.58-31.15c29.97-17.26,63.54-25.89,97.13-25.89c49.85,0,99.69,19.02,137.72,57.05l11.17,11.17
		C1588.07,598.4,1598.45,695.15,1555.57,769.59z"/>
	<path class="st3" d="M1177.53,1047.25c-45.66,41.15-89.12,84.62-130.28,130.28l-176.78-176.78
		c45.66-41.15,89.12-84.62,130.28-130.28L1177.53,1047.25z"/>
	<path class="st4" d="M1555.57,769.59c-8.36,14.52-18.75,28.18-31.15,40.58c-7.39,7.39-15.36,14.16-23.81,20.27
		c-2.61,1.89-5.28,3.71-7.99,5.45l-280.5-280.5c7.41-11.46,16.03-22.13,25.71-31.81c12.4-12.4,26.07-22.79,40.58-31.15
		L1555.57,769.59z"/>
	<path class="st5" d="M835.89,1492.61l-280.5-280.5c-2.71,1.74-5.38,3.56-7.99,5.45c-8.45,6.1-16.43,12.88-23.81,20.27
		c-12.4,12.4-22.79,26.07-31.15,40.58l277.16,277.16L835.89,1492.61z"/>
</g>
</svg>
