<?xml version="1.0" encoding="utf-8"?>
<!-- Generator: Adobe Illustrator 23.0.2, SVG Export Plug-In . SVG Version: 6.00 Build 0)  -->
<svg version="1.1" id="Layer_1" xmlns="http://www.w3.org/2000/svg" xmlns:xlink="http://www.w3.org/1999/xlink" x="0px" y="0px"
	 viewBox="0 0 2048 2048" style="enable-background:new 0 0 2048 2048;" xml:space="preserve">
<style type="text/css">
	.st0{fill:#FFE783;}
	.st1{fill:#FF725C;}
</style>
<g>
	<polygon class="st0" points="256,635.42 256,1630.04 1792,1630.04 	"/>
	<circle class="st1" cx="1508.67" cy="1113.7" r="249.51"/>
	<g>
		<g>
			<path class="st1" d="M1077.67,1054.15c-3.89,0-7.83-1.1-11.32-3.4L573.02,726.32c-9.53-6.27-12.17-19.07-5.91-28.59
				c6.26-9.53,19.07-12.17,28.59-5.91l493.33,324.43c9.53,6.27,12.17,19.07,5.91,28.59
				C1090.97,1050.88,1084.39,1054.15,1077.67,1054.15z"/>
		</g>
		<g>
			<path class="st1" d="M1156.34,963.99c-3.89,0-7.83-1.1-11.32-3.4l-267.63-176c-9.53-6.26-12.17-19.07-5.91-28.59
				c6.26-9.53,19.07-12.17,28.59-5.91l267.63,176c9.53,6.26,12.17,19.07,5.91,28.59C1169.64,960.72,1163.05,963.99,1156.34,963.99z"
				/>
		</g>
		<g>
			<path class="st1" d="M809.34,735.8c-3.89,0-7.83-1.1-11.32-3.4l-146.34-96.23c-9.53-6.26-12.17-19.07-5.91-28.59
				c6.27-9.53,19.07-12.17,28.59-5.91L820.7,697.9c9.53,6.26,12.17,19.07,5.91,28.59C822.64,732.53,816.06,735.8,809.34,735.8z"/>
		</g>
		<g>
			<path class="st1" d="M1234.99,873.84c-3.89,0-7.83-1.1-11.32-3.4l-171.19-112.58c-9.53-6.27-12.17-19.07-5.91-28.59
				c6.26-9.53,19.07-12.17,28.59-5.91l171.19,112.58c9.53,6.27,12.17,19.07,5.91,28.59
				C1248.29,870.56,1241.71,873.84,1234.99,873.84z"/>
		</g>
		<g>
			<path class="st1" d="M985.16,709.54c-3.89,0-7.83-1.1-11.32-3.4L738.09,551.1c-9.53-6.27-12.17-19.07-5.91-28.59
				c6.27-9.53,19.07-12.17,28.59-5.91l235.75,155.04c9.53,6.27,12.17,19.07,5.91,28.59C998.46,706.26,991.87,709.54,985.16,709.54z"
				/>
		</g>
		<g>
			<path class="st1" d="M1308.8,780.49c-3.89,0-7.83-1.1-11.32-3.4L1145.1,676.88c-9.53-6.27-12.17-19.07-5.91-28.59
				c6.26-9.53,19.07-12.17,28.59-5.91l152.38,100.21c9.53,6.27,12.17,19.07,5.91,28.59C1322.1,777.22,1315.51,780.49,1308.8,780.49z
				"/>
		</g>
		<g>
			<path class="st1" d="M1079.87,629.94c-3.89,0-7.83-1.1-11.32-3.4L809.01,455.86c-9.53-6.27-12.17-19.07-5.91-28.59
				c6.26-9.53,19.07-12.17,28.59-5.91l259.54,170.68c9.53,6.27,12.17,19.07,5.91,28.59
				C1093.17,626.67,1086.59,629.94,1079.87,629.94z"/>
		</g>
	</g>
</g>
</svg>
