<?xml version="1.0" encoding="utf-8"?>
<!-- Generator: Adobe Illustrator 23.0.2, SVG Export Plug-In . SVG Version: 6.00 Build 0)  -->
<svg version="1.1" id="Layer_1" xmlns="http://www.w3.org/2000/svg" xmlns:xlink="http://www.w3.org/1999/xlink" x="0px" y="0px"
	 viewBox="0 0 2048 2048" style="enable-background:new 0 0 2048 2048;" xml:space="preserve">
<style type="text/css">
	.st0{fill:#5C9EFF;}
	.st1{fill:#FF725C;}
</style>
<g>
	<g>
		<path class="st0" d="M1655.77,1044.38H392.24c-11.25,0-20.38-9.13-20.38-20.38c0-11.25,9.13-20.38,20.38-20.38h1263.53
			c11.25,0,20.38,9.13,20.38,20.38C1676.15,1035.25,1667.02,1044.38,1655.77,1044.38z"/>
	</g>
	<g>
		<path class="st0" d="M1655.77,1044.38H392.24c-11.25,0-20.38-9.13-20.38-20.38c0-11.25,9.13-20.38,20.38-20.38h1263.53
			c11.25,0,20.38,9.13,20.38,20.38C1676.15,1035.25,1667.02,1044.38,1655.77,1044.38z"/>
	</g>
	<g>
		<path class="st1" d="M1339.88,1549.79c-26.65,0-50.29-18.13-70.24-53.89c-15.39-27.57-29.53-66.59-43.26-119.3
			c-24.94-95.75-45.09-224.73-64.58-349.46c-19.34-123.75-39.33-251.7-63.75-345.48c-33.54-128.79-62.96-142.7-74.05-142.7
			s-40.51,13.9-74.05,142.7c-24.42,93.78-44.42,221.74-63.75,345.48c-19.49,124.73-39.65,253.71-64.58,349.46
			c-13.73,52.71-27.88,91.73-43.26,119.3c-19.95,35.76-43.59,53.89-70.24,53.89c-26.65,0-50.29-18.13-70.23-53.89
			c-15.39-27.57-29.53-66.59-43.26-119.3c-24.93-95.75-45.09-224.73-64.58-349.46c-19.34-123.75-39.32-251.7-63.75-345.48
			c-33.53-128.79-62.96-142.69-74.05-142.69c-11.25,0-20.38-9.13-20.38-20.38c0-11.25,9.13-20.38,20.38-20.38
			c26.65,0,50.29,18.13,70.23,53.89c15.39,27.57,29.53,66.59,43.26,119.3c24.93,95.75,45.09,224.73,64.58,349.46
			c19.34,123.75,39.32,251.7,63.75,345.48c33.54,128.79,62.96,142.7,74.05,142.7s40.51-13.91,74.05-142.7
			c24.42-93.78,44.42-221.74,63.75-345.48c19.49-124.73,39.65-253.71,64.58-349.46c13.73-52.71,27.88-91.73,43.26-119.3
			c19.95-35.76,43.59-53.89,70.24-53.89s50.29,18.13,70.24,53.88c15.39,27.57,29.53,66.59,43.26,119.3
			c24.94,95.75,45.09,224.73,64.58,349.46c19.34,123.75,39.33,251.7,63.75,345.48c33.54,128.79,62.96,142.7,74.05,142.7
			c11.09,0,40.51-13.91,74.05-142.7c24.42-93.78,44.42-221.74,63.75-345.48c19.49-124.73,39.64-253.71,64.58-349.46
			c13.73-52.71,27.88-91.73,43.26-119.3c19.95-35.76,43.59-53.89,70.24-53.89c11.25,0,20.38,9.13,20.38,20.38
			c0,11.25-9.13,20.38-20.38,20.38c-11.09,0-40.51,13.9-74.05,142.7c-24.42,93.78-44.42,221.74-63.75,345.48
			c-19.49,124.73-39.64,253.71-64.58,349.46c-13.73,52.71-27.88,91.73-43.26,119.3C1390.17,1531.66,1366.54,1549.79,1339.88,1549.79
			z"/>
	</g>
	<g>
		<path class="st0" d="M392.24,1792.01c-11.25,0-20.38-9.13-20.38-20.38V276.37c0-11.25,9.13-20.38,20.38-20.38
			s20.38,9.13,20.38,20.38v1495.27C412.62,1782.89,403.49,1792.01,392.24,1792.01z"/>
	</g>
</g>
</svg>
