<?xml version="1.0" standalone="no"?>
<!DOCTYPE svg PUBLIC "-//W3C//DTD SVG 20010904//EN"
 "http://www.w3.org/TR/2001/REC-SVG-20010904/DTD/svg10.dtd">
<svg version="1.0" xmlns="http://www.w3.org/2000/svg"
 width="1024.000000pt" height="1024.000000pt" viewBox="0 0 1024.000000 1024.000000"
 preserveAspectRatio="xMidYMid meet">
<metadata>
Created by potrace 1.14, written by Peter Selinger 2001-2017
</metadata>
<g transform="translate(0.000000,1024.000000) scale(0.100000,-0.100000)"
fill="#000000" stroke="none">
<path d="M4725 10228 c-60 -4 -137 -12 -170 -16 l-60 -7 3 -55 c2 -30 7 -58
10 -61 4 -4 39 -3 77 2 39 5 134 13 213 18 78 4 145 10 148 13 2 3 2 31 -2 62
l-7 56 -51 -1 c-28 -1 -100 -6 -161 -11z"/>
<path d="M5384 10231 c-2 -2 -4 -30 -4 -61 l0 -57 108 -7 c59 -4 156 -14 217
-21 60 -8 111 -13 112 -11 1 1 4 29 5 61 l3 59 -98 13 c-118 15 -336 30 -343
24z"/>
<path d="M8845 10170 c-160 -29 -346 -106 -472 -196 -429 -306 -595 -848 -413
-1346 35 -95 104 -218 177 -313 l46 -60 -69 66 c-118 112 -414 364 -517 439
-27 19 -60 44 -75 56 -24 19 -193 134 -233 159 -295 184 -459 266 -747 374
-46 17 -90 31 -97 31 -8 0 -54 11 -102 25 -248 73 -675 72 -897 0 -139 -45
-183 -76 -160 -112 16 -26 57 -44 127 -53 80 -12 265 -55 397 -92 218 -63 433
-160 590 -266 109 -74 166 -120 135 -108 -781 297 -1616 343 -2420 131 -163
-43 -396 -123 -542 -186 -123 -54 -124 -54 -186 -3 -16 13 -33 24 -39 24 -5 0
-22 9 -38 20 -114 82 -402 188 -606 224 -247 44 -484 45 -568 4 -51 -25 -96
-94 -96 -149 0 -68 34 -110 325 -396 l285 -281 -98 -85 c-144 -126 -373 -364
-491 -512 -125 -157 -293 -408 -379 -568 -35 -64 -65 -117 -66 -117 -2 0 -160
156 -352 346 -348 346 -393 383 -456 384 -48 0 -109 -31 -137 -71 -20 -27 -31
-35 -42 -28 -8 5 -19 9 -26 9 -11 0 -98 -168 -172 -333 l-30 -68 56 -24 c31
-14 57 -24 58 -23 1 2 26 57 56 123 l54 120 7 -130 c3 -71 16 -173 27 -225 12
-52 24 -109 27 -126 17 -105 144 -411 212 -511 10 -16 36 -55 58 -88 21 -33
41 -62 44 -65 3 -3 31 -36 62 -75 31 -38 91 -104 133 -145 76 -73 77 -75 71
-115 -3 -22 -15 -101 -26 -175 -80 -537 -31 -1150 135 -1695 96 -316 297 -742
467 -992 l28 -42 -21 -15 c-12 -8 -43 -35 -68 -59 -25 -24 -68 -63 -96 -87
-27 -23 -84 -73 -125 -110 -41 -37 -133 -118 -205 -181 -71 -62 -134 -118
-140 -124 -26 -29 -153 -135 -161 -135 -5 0 -47 56 -93 125 l-83 126 -36 -22
c-74 -44 -76 -35 27 -186 74 -110 91 -141 82 -153 -6 -8 -28 -49 -49 -90 l-37
-75 0 -160 0 -160 38 -78 c35 -72 57 -97 275 -315 130 -131 255 -251 277 -268
22 -17 76 -47 120 -67 70 -31 95 -37 185 -43 140 -8 227 5 321 51 l76 36 80
-55 c45 -31 85 -56 91 -56 5 0 23 21 40 47 l31 47 -80 54 -79 54 21 26 c11 14
57 67 103 116 45 50 100 111 121 136 22 25 62 70 90 100 27 31 77 86 110 124
33 38 81 92 107 120 26 28 74 81 105 118 32 37 62 67 66 67 5 1 61 -31 125
-69 504 -304 1056 -488 1652 -552 148 -16 612 -16 760 0 474 51 948 185 1331
377 83 42 87 43 105 26 11 -10 129 -131 263 -269 134 -139 276 -276 315 -305
80 -60 182 -118 239 -137 28 -9 35 -15 28 -24 -8 -9 -2 -26 19 -59 16 -26 33
-47 37 -47 5 0 32 16 60 35 l52 35 148 4 c151 4 151 3 298 60 40 15 120 62
170 101 48 36 175 166 175 178 0 5 11 23 24 40 38 51 87 173 98 246 14 89 4
302 -17 366 -27 81 -101 225 -151 295 -42 60 -417 438 -491 496 l-32 25 63 82
c559 728 850 1666 798 2575 -12 202 -36 397 -68 556 l-16 79 296 296 c292 292
297 298 316 360 24 76 25 101 4 172 -23 79 -89 143 -174 170 -113 35 -203 8
-299 -90 -33 -34 -62 -61 -65 -61 -15 0 -124 169 -166 258 -26 53 -31 77 -34
155 -4 107 -19 162 -73 272 -91 185 -212 363 -425 630 -24 29 -26 34 -8 18 14
-12 65 -46 113 -77 255 -160 588 -211 882 -136 449 115 785 486 856 944 18
117 6 343 -25 460 -105 399 -422 717 -823 823 -83 22 -124 26 -263 29 -91 1
-187 -1 -215 -6z m-2070 -2322 c-14 -17 -42 -62 -61 -99 -30 -60 -34 -78 -34
-145 0 -67 4 -84 32 -134 l32 -58 -175 -179 c-96 -98 -227 -232 -290 -298 -64
-66 -181 -187 -260 -270 -80 -82 -187 -194 -239 -248 -52 -53 -97 -94 -101
-90 -30 33 -79 284 -79 410 0 618 503 1136 1108 1142 l94 1 -27 -32z m566
-1040 c14 -7 38 -23 55 -35 102 -73 277 -99 379 -56 28 12 62 24 78 27 l27 6
0 -63 c0 -182 -71 -401 -187 -575 -288 -433 -823 -617 -1316 -451 -157 52
-161 27 39 234 96 99 263 272 372 384 273 282 525 541 528 541 1 0 12 -6 25
-12z m-4552 -2215 l0 -848 -110 -95 c-60 -52 -132 -115 -159 -139 l-50 -44 0
977 0 976 68 1 c37 1 94 5 127 9 33 4 75 8 93 9 l32 1 -1 -847z m4426 457
c284 -32 457 -144 523 -338 14 -40 17 -134 22 -679 l5 -632 29 -30 c32 -34
108 -56 156 -46 l30 7 0 -109 0 -109 -58 -12 c-32 -7 -91 -12 -131 -12 l-73 0
-86 83 c-134 129 -142 138 -142 159 0 15 -5 18 -17 14 -12 -5 -36 12 -83 59
l-66 65 52 54 c89 92 89 90 92 339 3 213 3 218 -16 208 -43 -23 -177 -52 -367
-81 -110 -17 -215 -34 -232 -39 -30 -9 -35 -5 -135 89 l-103 97 90 21 c50 12
191 35 315 52 260 36 331 51 382 85 60 40 70 70 66 194 -4 124 -21 168 -86
218 -73 56 -142 75 -281 81 -153 6 -237 -8 -316 -52 -77 -42 -120 -98 -147
-192 l-22 -74 -143 0 -143 0 6 58 c27 260 158 412 420 487 146 41 297 53 459
35z m-1385 -105 c0 -30 -4 -55 -8 -55 -4 0 -32 25 -62 55 l-54 55 62 0 62 0 0
-55z m-1131 -1420 c17 -35 48 -78 68 -96 103 -90 279 -117 441 -68 l43 13 70
-75 69 -74 -27 -22 c-33 -26 -119 -69 -181 -90 -76 -24 -303 -29 -398 -8 -170
37 -294 127 -361 261 l-36 75 39 42 c21 23 41 44 44 47 3 3 39 43 79 90 111
126 105 124 113 40 4 -50 16 -91 37 -135z m3436 -1539 c83 -33 158 -111 185
-189 40 -121 17 -232 -68 -327 -149 -166 -407 -131 -520 70 -34 60 -37 71 -37
145 0 69 4 88 30 137 81 158 255 227 410 164z"/>
<path d="M3870 10089 c-218 -55 -252 -67 -246 -87 3 -10 10 -36 17 -60 8 -27
17 -41 25 -38 27 10 273 76 342 92 67 14 73 18 69 37 -3 12 -9 39 -12 60 -5
25 -12 37 -24 36 -9 0 -86 -18 -171 -40z"/>
<path d="M6265 10098 c-7 -19 -24 -102 -22 -104 1 -1 67 -19 147 -39 79 -21
169 -46 199 -56 30 -11 60 -19 67 -19 15 0 49 99 38 110 -12 11 -152 54 -294
90 -137 35 -129 34 -135 18z"/>
<path d="M3085 9821 c-61 -26 -152 -68 -203 -92 l-92 -44 24 -52 c14 -29 30
-53 36 -53 6 0 45 17 88 39 70 35 137 65 266 121 l45 19 -21 48 c-11 26 -23
51 -27 55 -3 4 -56 -14 -116 -41z"/>
<path d="M7094 9783 c-11 -27 -20 -51 -22 -54 -1 -3 28 -18 65 -34 37 -16 125
-57 195 -92 70 -35 130 -63 132 -63 7 0 56 85 56 97 0 15 -364 193 -395 193
-7 0 -21 -21 -31 -47z"/>
<path d="M2263 9372 c-168 -115 -222 -155 -223 -166 0 -12 60 -86 71 -86 5 0
51 30 101 67 51 36 130 91 175 120 53 35 81 59 76 66 -33 56 -55 87 -61 87 -5
0 -67 -40 -139 -88z"/>
<path d="M1541 8784 c-78 -75 -147 -146 -152 -157 -9 -17 -5 -26 30 -61 l41
-41 157 157 156 157 -34 40 c-19 21 -39 40 -45 40 -7 1 -75 -60 -153 -135z"/>
<path d="M997 8158 c-102 -138 -167 -234 -167 -246 0 -5 21 -23 46 -40 l47
-30 85 121 c47 67 105 148 129 179 l43 57 -43 35 c-24 20 -47 36 -51 36 -3 0
-44 -51 -89 -112z"/>
<path d="M9623 7417 c-24 -11 -43 -25 -43 -29 0 -5 15 -39 34 -76 18 -37 55
-116 81 -177 70 -162 56 -147 118 -123 28 12 54 23 55 24 2 1 -17 49 -41 106
-82 187 -138 298 -150 297 -7 0 -31 -10 -54 -22z"/>
<path d="M212 6593 c-55 -187 -84 -304 -79 -317 3 -7 23 -16 45 -20 22 -3 47
-8 54 -11 11 -4 18 9 28 52 7 32 32 127 56 211 24 83 44 154 44 156 0 5 -90
36 -105 36 -7 0 -26 -48 -43 -107z"/>
<path d="M9955 6600 c-32 -11 -49 -23 -46 -31 1 -8 25 -102 53 -209 27 -107
51 -196 53 -198 7 -7 115 19 115 28 0 11 -73 301 -94 373 -10 31 -20 57 -24
56 -4 0 -29 -9 -57 -19z"/>
<path d="M47 5824 c-6 -10 -34 -286 -39 -379 l-3 -60 61 -3 61 -3 7 108 c4 59
13 158 21 218 7 61 12 111 11 112 -8 8 -114 14 -119 7z"/>
<path d="M10137 5739 c-27 -4 -50 -9 -51 -11 -2 -2 3 -59 10 -128 7 -69 13
-153 13 -186 1 -34 4 -76 7 -93 6 -29 9 -31 53 -31 77 0 75 -4 62 176 -17 220
-24 277 -36 279 -5 2 -32 -1 -58 -6z"/>
<path d="M26 4943 l-28 -5 6 -101 c9 -134 26 -319 31 -333 3 -12 104 -7 116 5
3 3 0 60 -7 126 -7 66 -13 150 -13 186 -1 37 -4 81 -7 98 -7 33 -18 36 -98 24z"/>
<path d="M10106 4753 c-4 -60 -13 -157 -21 -218 -7 -60 -12 -111 -11 -112 1
-1 27 -6 58 -11 43 -7 58 -6 62 4 4 11 30 260 39 381 5 60 1 63 -72 63 l-48 0
-7 -107z"/>
<path d="M153 4067 c-24 -5 -43 -15 -43 -21 0 -17 78 -323 96 -379 12 -36 20
-47 32 -43 100 29 103 30 97 45 -11 27 -73 262 -90 339 -18 79 -16 78 -92 59z"/>
<path d="M9976 3923 c-9 -38 -35 -130 -57 -205 -21 -76 -39 -139 -39 -142 0
-5 89 -36 106 -36 7 0 32 75 62 183 73 262 71 244 25 256 -74 21 -79 18 -97
-56z"/>
<path d="M422 3225 l-52 -24 19 -48 c30 -77 151 -337 161 -347 11 -11 110 31
110 46 0 5 -17 43 -39 86 -21 42 -60 127 -86 187 -26 61 -50 113 -54 117 -3 3
-30 -5 -59 -17z"/>
<path d="M9695 3102 c-16 -37 -57 -124 -92 -194 -35 -70 -63 -132 -63 -136 0
-10 98 -58 104 -51 26 31 186 368 186 393 0 8 -8 16 -17 19 -10 3 -34 12 -54
20 l-35 16 -29 -67z"/>
<path d="M9288 2357 c-15 -23 -72 -104 -128 -181 -55 -76 -100 -139 -98 -140
2 -1 23 -17 47 -36 l44 -34 29 34 c33 40 191 261 216 303 16 27 16 29 -7 46
-14 11 -36 26 -51 34 -25 15 -26 15 -52 -26z"/>
<path d="M2742 655 c-12 -25 -22 -50 -22 -55 0 -9 184 -102 332 -168 l67 -30
26 55 c14 31 24 57 23 58 -2 1 -41 19 -88 40 -47 21 -133 62 -192 91 -59 30
-111 54 -116 54 -4 0 -18 -20 -30 -45z"/>
<path d="M7315 628 c-55 -29 -200 -95 -288 -131 l-36 -15 22 -56 c19 -47 25
-55 42 -50 42 13 376 167 381 176 8 13 -36 108 -50 108 -6 -1 -38 -15 -71 -32z"/>
<path d="M3556 313 c-9 -26 -16 -52 -16 -59 0 -13 349 -115 402 -118 30 -1 32
1 43 52 12 52 12 54 -12 63 -13 5 -28 9 -33 9 -4 0 -87 23 -184 50 -97 28
-178 50 -180 50 -2 0 -11 -21 -20 -47z"/>
<path d="M6539 325 c-20 -7 -112 -32 -205 -55 -93 -23 -171 -44 -172 -45 -9
-8 21 -115 31 -115 17 0 269 63 355 89 58 18 72 26 68 38 -4 9 -11 35 -17 59
-6 24 -14 44 -18 43 -3 0 -22 -6 -42 -14z"/>
<path d="M4415 115 c-4 -31 -4 -60 1 -65 9 -8 260 -36 379 -42 l60 -3 3 63 3
62 -46 0 c-49 0 -323 27 -367 36 -26 5 -27 3 -33 -51z"/>
<path d="M5605 144 c-60 -6 -142 -13 -181 -13 -39 -1 -86 -4 -104 -7 l-32 -7
4 -53 c3 -30 7 -57 11 -60 6 -6 279 11 387 24 l55 7 -3 45 c-4 53 -11 81 -20
79 -4 -1 -56 -8 -117 -15z"/>
</g>
</svg>
