<?xml version="1.0" encoding="UTF-8" standalone="no"?>
<!-- Created with Inkscape (http://www.inkscape.org/) -->

<svg
   xmlns:dc="http://purl.org/dc/elements/1.1/"
   xmlns:cc="http://creativecommons.org/ns#"
   xmlns:rdf="http://www.w3.org/1999/02/22-rdf-syntax-ns#"
   xmlns:svg="http://www.w3.org/2000/svg"
   xmlns="http://www.w3.org/2000/svg"
   xmlns:sodipodi="http://sodipodi.sourceforge.net/DTD/sodipodi-0.dtd"
   xmlns:inkscape="http://www.inkscape.org/namespaces/inkscape"
   width="16px"
   height="16px"
   viewBox="0 0 16 16"
   version="1.1"
   id="SVGRoot"
   inkscape:version="0.92.5 (2060ec1f9f, 2020-04-08)"
   sodipodi:docname="boxjelly.svg"
   inkscape:label="Background">
  <defs
     id="defs10">
    <inkscape:path-effect
       effect="taper_stroke"
       id="path-effect5381"
       is_visible="true"
       stroke_width="0.9"
       attach_start="1e-07"
       end_offset="0.99999"
       smoothing="1.1"
       jointype="extrapolated"
       miter_limit="100" />
    <inkscape:path-effect
       effect="taper_stroke"
       id="path-effect5381-3"
       is_visible="true"
       stroke_width="0.9"
       attach_start="1e-07"
       end_offset="1.4220094"
       smoothing="1.1"
       jointype="extrapolated"
       miter_limit="100" />
    <inkscape:path-effect
       effect="taper_stroke"
       id="path-effect5381-3-7"
       is_visible="true"
       stroke_width="1"
       attach_start="1e-07"
       end_offset="1.4220094"
       smoothing="1.1"
       jointype="extrapolated"
       miter_limit="100" />
    <inkscape:path-effect
       effect="taper_stroke"
       id="path-effect5381-2"
       is_visible="true"
       stroke_width="1"
       attach_start="1e-07"
       end_offset="0.99999"
       smoothing="1.1"
       jointype="extrapolated"
       miter_limit="100" />
    <inkscape:path-effect
       effect="taper_stroke"
       id="path-effect5381-3-1"
       is_visible="true"
       stroke_width="0.9"
       attach_start="1e-07"
       end_offset="1.4220094"
       smoothing="1.1"
       jointype="extrapolated"
       miter_limit="100" />
    <inkscape:path-effect
       effect="taper_stroke"
       id="path-effect5381-7"
       is_visible="true"
       stroke_width="0.9"
       attach_start="1e-07"
       end_offset="0.99999"
       smoothing="1.1"
       jointype="extrapolated"
       miter_limit="100" />
    <inkscape:path-effect
       effect="taper_stroke"
       id="path-effect5381-3-9"
       is_visible="true"
       stroke_width="0.9"
       attach_start="1e-07"
       end_offset="1.4220094"
       smoothing="1.1"
       jointype="extrapolated"
       miter_limit="100" />
    <inkscape:path-effect
       effect="taper_stroke"
       id="path-effect5381-6"
       is_visible="true"
       stroke_width="0.9"
       attach_start="1e-07"
       end_offset="0.99999"
       smoothing="1.1"
       jointype="extrapolated"
       miter_limit="100" />
  </defs>
  <sodipodi:namedview
     id="base"
     pagecolor="#ffffff"
     bordercolor="#666666"
     borderopacity="1.0"
     inkscape:pageopacity="0.0"
     inkscape:pageshadow="2"
     inkscape:zoom="45.254834"
     inkscape:cx="4.0809557"
     inkscape:cy="8.599358"
     inkscape:document-units="px"
     inkscape:current-layer="layer1"
     showgrid="false"
     inkscape:window-width="3440"
     inkscape:window-height="1321"
     inkscape:window-x="0"
     inkscape:window-y="24"
     inkscape:window-maximized="1"
     inkscape:grid-bbox="true"
     inkscape:snap-nodes="true" />
  <metadata
     id="metadata13">
    <rdf:RDF>
      <cc:Work
         rdf:about="">
        <dc:format>image/svg+xml</dc:format>
        <dc:type
           rdf:resource="http://purl.org/dc/dcmitype/StillImage" />
        <dc:title />
      </cc:Work>
    </rdf:RDF>
  </metadata>
  <ellipse
     style="fill:#0044aa;fill-opacity:1;stroke:#003380;stroke-width:1.01235175;stroke-linecap:butt;stroke-miterlimit:4;stroke-dasharray:none;stroke-opacity:1"
     id="path828"
     cx="8"
     cy="8"
     rx="7.4938245"
     ry="7.493824" />
  <g
     inkscape:label="Jelly"
     id="layer1"
     style="display:inline"
     inkscape:groupmode="layer">
    <g
       id="g841"
       transform="matrix(0.88427153,0,0,0.88427153,0.20815701,0.74267975)">
      <path
         sodipodi:nodetypes="sssssssss"
         inkscape:connector-curvature="0"
         id="rect205"
         d="m 11.215706,1.9120061 0.734457,0.3171315 c 0.813778,0.3513822 1.999042,1.3883301 1.497198,2.1852871 L 11.841163,6.9651611 C 11.339319,7.7621183 10.936828,8.3270286 9.5716728,7.7375668 L 8.8372166,7.4204353 C 7.4148365,6.8062645 7.7062405,6.1000279 8.0013654,5.2056624 L 8.9375172,2.3686873 C 9.2326419,1.4743224 10.401928,1.5606237 11.215706,1.9120061 Z"
         style="fill:none;stroke:#ffffff;stroke-width:1;stroke-linecap:butt;stroke-miterlimit:4;stroke-dasharray:none;stroke-opacity:1" />
      <path
         transform="translate(0.41207161,-1.4572415)"
         inkscape:original-d="M 7.3583299,8.1997283 C 6.6954173,9.1720001 5.0432714,9.0583449 5.5180296,9.9959487 6.059231,10.933337 4.6758073,11.541823 3.9774757,11.138641 3.2985641,10.746671 3.0888055,12.455773 1.789864,13.19367"
         inkscape:path-effect="#path-effect5381"
         sodipodi:nodetypes="cccc"
         inkscape:connector-curvature="0"
         id="path4935"
         d="M 6.9865275,7.9462269 C 6.7576897,8.2818555 6.2850439,8.4795777 5.8162402,8.7054345 5.5818384,8.8183629 5.336769,8.9305478 5.1472373,9.1930243 4.9577055,9.4555009 4.9520107,9.8742575 5.1165627,10.199233 a 1.0246008,1.0246008 0 0 0 0.00677,0.01314 1.8470722,1.8470722 0 0 1 0.00498,0.0086 c 0.1665043,0.288394 0.083604,0.32492 -0.1469522,0.463001 -0.2305562,0.138081 -0.6260511,0.153221 -0.7788902,0.06498 0,0 -3.61e-5,-2.1e-5 -3.61e-5,-2.1e-5 -0.3607209,-0.169507 -0.713155,-0.101631 -0.9621481,0.103131 -0.2582193,0.241416 -0.4007892,0.501547 -0.4858801,0.660025 -0.5629369,0.932049 -0.8104329,1.256455 -0.9241235,1.445586 -0.1153225,0.191846 -0.033931,0.232316 -0.033931,0.232316 0,0 -0.00988,0.116973 0.2335446,0.06658 0.2419479,-0.05009 0.7879669,-0.297852 1.448031,-1.283676 0.1230116,-0.167941 0.2414277,-0.371738 0.3455697,-0.443672 -0.019023,0.0066 -0.00718,-0.0026 -0.071031,-8.52e-4 0,0 4.6e-6,2e-6 4.7e-6,2e-6 0.5454924,0.314941 1.1908752,0.227429 1.6913134,-0.07229 C 5.9413252,11.158092 6.27851,10.428469 5.9141879,9.7822481 5.8478046,9.6528676 5.8696452,9.7299415 5.8768943,9.7199025 5.8843301,9.7096049 6.0047121,9.6136359 6.2068659,9.5162437 6.6111737,9.3214592 7.296057,9.0898732 7.7301319,8.4532303 Z"
         style="fill:#ffffff;fill-rule:nonzero;stroke:none;stroke-width:1px;stroke-linecap:butt;stroke-linejoin:miter;stroke-opacity:1" />
      <path
         transform="translate(2.5645175,-0.46053734)"
         inkscape:original-d="m 8.1759221,8.0340001 c 0,1.2619062 0.3530808,2.5377179 -0.8536482,2.5377179 -1.506584,0 -1.1581368,1.288061 -0.666418,2.139743 0.5749315,1.055703 -0.4123608,1.18991 -1.7113023,1.927807"
         inkscape:path-effect="#path-effect5381-3"
         sodipodi:nodetypes="cccc"
         inkscape:connector-curvature="0"
         id="path4935-6"
         d="m 7.7259221,8.0340005 c 0,0.6729229 0.078285,1.3120466 0.029527,1.6835084 -0.048758,0.3714621 0.011603,0.4042091 -0.4331747,0.4042091 -0.5095191,0 -0.9300197,0.131049 -1.2070942,0.419213 -0.2770745,0.288164 -0.3502947,0.677745 -0.3254878,1.021155 0.04987,0.570712 0.2806504,1.038483 0.4848175,1.363256 0.1565338,0.255105 0.1224749,0.501189 -0.00792,0.559921 -0.639886,0.582875 -1.1400791,0.793212 -1.2726614,0.957172 -0.1320357,0.163284 -0.040604,0.191866 -0.040604,0.191866 0,0 -0.021345,0.08471 0.1805273,0.07058 -0.014357,0.001 0.8381069,-0.0897 1.6053825,-0.601063 0.3893461,-0.340077 0.6264581,-0.972629 0.2979732,-1.606241 -0.1520777,-0.291958 -0.3337902,-0.660922 -0.3498495,-1.000339 -0.013308,-0.184229 0.019952,-0.273621 0.076584,-0.33252 0.056632,-0.0589 0.1970649,-0.143003 0.5583372,-0.143003 0.7619516,0 1.2491368,-0.605159 1.3255202,-1.1870789 0.076384,-0.5819204 -0.021872,-1.2116555 -0.021872,-1.8006386 z"
         style="fill:#ffffff;fill-rule:nonzero;stroke:none;stroke-width:1px;stroke-linecap:butt;stroke-linejoin:miter;stroke-opacity:1" />
      <path
         transform="matrix(0.74534391,-0.1007407,0.1007407,0.74534391,1.1696019,1.5804446)"
         inkscape:original-d="m 8.1759221,8.0340001 c 0,1.2619062 0.3530808,2.5377179 -0.8536482,2.5377179 -1.506584,0 -1.1581368,1.288061 -0.666418,2.139743 0.5749315,1.055703 -0.4123608,1.18991 -1.7113023,1.927807"
         inkscape:path-effect="#path-effect5381-3-9"
         sodipodi:nodetypes="cccc"
         inkscape:connector-curvature="0"
         id="path4935-6-3"
         d="m 7.7259221,8.0340005 c 0,0.6729229 0.078285,1.3120466 0.029527,1.6835084 -0.048758,0.3714621 0.011603,0.4042091 -0.4331747,0.4042091 -0.5095191,0 -0.9300197,0.131049 -1.2070942,0.419213 -0.2770745,0.288164 -0.3502947,0.677745 -0.3254878,1.021155 0.04987,0.570712 0.2806504,1.038483 0.4848175,1.363256 0.1565338,0.255105 0.1224749,0.501189 -0.00792,0.559921 -0.639886,0.582875 -1.1400791,0.793212 -1.2726614,0.957172 -0.1320357,0.163284 -0.040604,0.191866 -0.040604,0.191866 0,0 -0.021345,0.08471 0.1805273,0.07058 -0.014357,0.001 0.8381069,-0.0897 1.6053825,-0.601063 0.3893461,-0.340077 0.6264581,-0.972629 0.2979732,-1.606241 -0.1520777,-0.291958 -0.3337902,-0.660922 -0.3498495,-1.000339 -0.013308,-0.184229 0.019952,-0.273621 0.076584,-0.33252 0.056632,-0.0589 0.1970649,-0.143003 0.5583372,-0.143003 0.7619516,0 1.2491368,-0.605159 1.3255202,-1.1870789 0.076384,-0.5819204 -0.021872,-1.2116555 -0.021872,-1.8006386 z"
         style="fill:#ffffff;fill-rule:nonzero;stroke:none;stroke-width:1px;stroke-linecap:butt;stroke-linejoin:miter;stroke-opacity:1" />
      <path
         transform="matrix(-0.72842629,-0.48340861,-0.48912284,0.71991637,20.793324,5.5326792)"
         inkscape:original-d="M 7.3583299,8.1997283 C 6.6954173,9.1720001 5.0432714,9.0583449 5.5180296,9.9959487 6.059231,10.933337 4.6758073,11.541823 3.9774757,11.138641 3.2985641,10.746671 3.0888055,12.455773 1.789864,13.19367"
         inkscape:path-effect="#path-effect5381-6"
         sodipodi:nodetypes="cccc"
         inkscape:connector-curvature="0"
         id="path4935-0"
         d="M 6.9865275,7.9462269 C 6.7576897,8.2818555 6.2850439,8.4795777 5.8162402,8.7054345 5.5818384,8.8183629 5.336769,8.9305478 5.1472373,9.1930243 4.9577055,9.4555009 4.9520107,9.8742575 5.1165627,10.199233 a 1.0246008,1.0246008 0 0 0 0.00677,0.01314 1.8470722,1.8470722 0 0 1 0.00498,0.0086 c 0.1665043,0.288394 0.083604,0.32492 -0.1469522,0.463001 -0.2305562,0.138081 -0.6260511,0.153221 -0.7788902,0.06498 0,0 -3.61e-5,-2.1e-5 -3.61e-5,-2.1e-5 -0.3607209,-0.169507 -0.713155,-0.101631 -0.9621481,0.103131 -0.2582193,0.241416 -0.4007892,0.501547 -0.4858801,0.660025 -0.5629369,0.932049 -0.8104329,1.256455 -0.9241235,1.445586 -0.1153225,0.191846 -0.033931,0.232316 -0.033931,0.232316 0,0 -0.00988,0.116973 0.2335446,0.06658 0.2419479,-0.05009 0.7879669,-0.297852 1.448031,-1.283676 0.1230116,-0.167941 0.2414277,-0.371738 0.3455697,-0.443672 -0.019023,0.0066 -0.00718,-0.0026 -0.071031,-8.52e-4 0,0 4.6e-6,2e-6 4.7e-6,2e-6 0.5454924,0.314941 1.1908752,0.227429 1.6913134,-0.07229 C 5.9413252,11.158092 6.27851,10.428469 5.9141879,9.7822481 5.8478046,9.6528676 5.8696452,9.7299415 5.8768943,9.7199025 5.8843301,9.7096049 6.0047121,9.6136359 6.2068659,9.5162437 6.6111737,9.3214592 7.296057,9.0898732 7.7301319,8.4532303 Z"
         style="fill:#ffffff;fill-rule:nonzero;stroke:none;stroke-width:1px;stroke-linecap:butt;stroke-linejoin:miter;stroke-opacity:1" />
    </g>
  </g>
</svg>
