<?xml version="1.0" encoding="UTF-8"?>
<!DOCTYPE svg PUBLIC "-//W3C//DTD SVG 1.1//EN" "http://www.w3.org/Graphics/SVG/1.1/DTD/svg11.dtd">
<!-- Creator: CorelDRAW -->
<svg xmlns="http://www.w3.org/2000/svg" xml:space="preserve" width="7.83333in" height="7.83333in" style="shape-rendering:geometricPrecision; text-rendering:geometricPrecision; image-rendering:optimizeQuality; fill-rule:evenodd; clip-rule:evenodd"
viewBox="0 0 7.83333 7.83333"
 xmlns:xlink="http://www.w3.org/1999/xlink">
 <defs>
  <style type="text/css">
   <![CDATA[
    .fil0 {fill:#97999C}
    .fil6 {fill:#A8D9C8}
    .fil8 {fill:#AAB6BE}
    .fil2 {fill:#E4EFF7}
    .fil7 {fill:whitesmoke}
    .fil4 {fill:#FA96A2}
    .fil5 {fill:#FFF59D}
    .fil1 {fill:#413B32;fill-rule:nonzero}
    .fil3 {fill:#AAB6BE;fill-rule:nonzero}
   ]]>
  </style>
 </defs>
 <g id="Layer_x0020_1">
  <metadata id="CorelCorpID_0Corel-Layer"/>
  <circle class="fil0" cx="3.91667" cy="3.91667" r="3.91667"/>
  <g id="_319095048">
   <path id="_319096152" class="fil1" d="M4.66672 3.98904c0,-0.0441811 -0.0358189,-0.08 -0.08,-0.08 -0.0441811,0 -0.08,0.0358189 -0.08,0.08l0 0.629441c0,0.0441811 0.0358189,0.08 0.08,0.08 0.0441811,0 0.08,-0.0358189 0.08,-0.08l0 -0.629441z"/>
   <path id="_319095936" class="fil1" d="M5.18286 3.64914c0,-0.0441811 -0.0358189,-0.08 -0.08,-0.08 -0.0441811,0 -0.08,0.0358189 -0.08,0.08l0 0.969343c0,0.0441811 0.0358189,0.08 0.08,0.08 0.0441811,0 0.08,-0.0358189 0.08,-0.08l0 -0.969343z"/>
   <path id="_319095816" class="fil1" d="M5.699 3.35959c0,-0.0441811 -0.0358189,-0.08 -0.08,-0.08 -0.0441811,0 -0.08,0.0358189 -0.08,0.08l0 1.25889c0,0.0441811 0.0358189,0.08 0.08,0.08 0.0441811,0 0.08,-0.0358189 0.08,-0.08l0 -1.25889z"/>
   <path id="_319096128" class="fil1" d="M1.43667 1.82687l4.96 0c0.0441811,0 0.08,0.0358189 0.08,0.08l0 3.4953c0,0.0441811 -0.0358189,0.08 -0.08,0.08l-4.96 0c-0.0441811,0 -0.08,-0.0358189 -0.08,-0.08l0 -3.4953c0,-0.0441811 0.0358189,-0.08 0.08,-0.08zm4.88 0.16l-4.8 0 0 3.3353 4.8 0 0 -3.3353z"/>
   <path id="_319096176" class="fil1" d="M3.45063 5.32217l0.932079 0c0.0441811,0 0.08,0.0358189 0.08,0.08l0 0.524291c0,0.0441811 -0.0358189,0.08 -0.08,0.08l-0.932079 0c-0.0441811,0 -0.08,-0.0358189 -0.08,-0.08l0 -0.524291c0,-0.0441811 0.0358189,-0.08 0.08,-0.08zm0.852079 0.16l-0.772079 0 0 0.364291 0.772079 0 0 -0.364291z"/>
   <path id="_319096056" class="fil1" d="M2.67863 5.84646c-0.0441811,0 -0.08,0.0358189 -0.08,0.08 0,0.0441811 0.0358189,0.08 0.08,0.08l2.47607 0c0.0441811,0 0.08,-0.0358189 0.08,-0.08 0,-0.0441811 -0.0358189,-0.08 -0.08,-0.08l-2.47607 0z"/>
   <path id="_319095552" class="fil2" d="M3.95846 2.89894c0.19337,0.19337 0.31298,0.460512 0.31298,0.755579 0,0.295067 -0.11961,0.562209 -0.31298,0.755579 -0.19337,0.19337 -0.460516,0.31298 -0.755579,0.31298 -0.295067,0 -0.562209,-0.11961 -0.755579,-0.31298 -0.19337,-0.19337 -0.31298,-0.460512 -0.31298,-0.755579 0,-0.295067 0.11961,-0.562209 0.31298,-0.755579 0.19337,-0.19337 0.460512,-0.31298 0.755579,-0.31298 0.295063,0 0.562209,0.11961 0.755579,0.31298zm-2.44179 2.42323l1.93396 0 0.932079 0 1.93396 0 0 -3.3353 -4.8 0 0 3.3353zm3.07005 -1.41313c0.0441811,0 0.08,0.0358189 0.08,0.08l0 0.629441c0,0.0441811 -0.0358189,0.08 -0.08,0.08 -0.0441811,0 -0.08,-0.0358189 -0.08,-0.08l0 -0.629441c0,-0.0441811 0.0358189,-0.08 0.08,-0.08zm1.03228 -0.629445c0.0441811,0 0.08,0.0358189 0.08,0.08l0 1.25889c0,0.0441811 -0.0358189,0.08 -0.08,0.08 -0.0441811,0 -0.08,-0.0358189 -0.08,-0.08l0 -1.25889c0,-0.0441811 0.0358189,-0.08 0.08,-0.08zm-0.516142 0.289543c0.0441811,0 0.08,0.0358189 0.08,0.08l0 0.969343c0,0.0441811 -0.0358189,0.08 -0.08,0.08 -0.0441811,0 -0.08,-0.0358189 -0.08,-0.08l0 -0.969343c0,-0.0441811 0.0358189,-0.08 0.08,-0.08z"/>
   <path id="_319096296" class="fil3" d="M2.99337 2.63096c0.295063,0 0.562209,0.11961 0.755579,0.31298 0.19337,0.19337 0.31298,0.460512 0.31298,0.755579 0,0.295067 -0.11961,0.562209 -0.31298,0.755579 -0.19337,0.19337 -0.460516,0.31298 -0.755579,0.31298 -0.295067,0 -0.562209,-0.11961 -0.755579,-0.31298 -0.19337,-0.19337 -0.31298,-0.460512 -0.31298,-0.755579 0,-0.295067 0.11961,-0.562209 0.31298,-0.755579 0.19337,-0.19337 0.460512,-0.31298 0.755579,-0.31298z"/>
   <path id="_319095360" class="fil4" d="M3.12288 3.62139l0 -0.871961c-0.218984,0.0191063 -0.415709,0.11589 -0.562453,0.262634 -0.164409,0.164409 -0.266106,0.391555 -0.266106,0.642453 0,0.222094 0.079689,0.425579 0.212024,0.583409l0.616535 -0.616535z"/>
   <path id="_319095024" class="fil5" d="M3.28288 2.74943l0 0.871961 0.616535 0.616535c0.132335,-0.157831 0.212024,-0.361315 0.212024,-0.583409 0,-0.250898 -0.101697,-0.478043 -0.266106,-0.642453 -0.146744,-0.146744 -0.343472,-0.243528 -0.562453,-0.262634z"/>
   <path id="_319095144" class="fil6" d="M3.78629 4.35106l-0.583409 -0.583409 -0.583409 0.583409c0.157831,0.132335 0.361315,0.212024 0.583409,0.212024 0.222091,0 0.425579,-0.079689 0.583409,-0.212024z"/>
   <polygon id="_319094904" class="fil7" points="4.3027,5.48217 3.53063,5.48217 3.53063,5.84646 4.3027,5.84646 "/>
   <polygon id="_319094880" class="fil8" points="6.05167,1.98687 6.05167,5.32217 6.31667,5.32217 6.31667,1.98687 "/>
   <path id="_319095528" class="fil1" d="M3.20288 2.58596c0.295063,0 0.562209,0.11961 0.755579,0.31298 0.19337,0.19337 0.31298,0.460512 0.31298,0.755579 0,0.295067 -0.11961,0.562209 -0.31298,0.755579 -0.19337,0.19337 -0.460516,0.31298 -0.755579,0.31298 -0.295067,0 -0.562209,-0.11961 -0.755579,-0.31298 -0.19337,-0.19337 -0.31298,-0.460512 -0.31298,-0.755579 0,-0.295067 0.11961,-0.562209 0.31298,-0.755579 0.19337,-0.19337 0.460512,-0.31298 0.755579,-0.31298zm0.642453 0.426106c-0.164409,-0.164409 -0.391559,-0.266106 -0.642453,-0.266106 -0.250898,0 -0.478043,0.101697 -0.642453,0.266106 -0.164409,0.164409 -0.266106,0.391555 -0.266106,0.642453 0,0.250898 0.101697,0.478043 0.266106,0.642453 0.164409,0.164409 0.391555,0.266106 0.642453,0.266106 0.250894,0 0.478043,-0.101697 0.642453,-0.266106 0.164409,-0.164409 0.266106,-0.391555 0.266106,-0.642453 0,-0.250898 -0.101697,-0.478043 -0.266106,-0.642453z"/>
   <polygon id="_319094856" class="fil1" points="3.28288,2.66596 3.28288,3.62139 3.95845,4.29697 3.84533,4.41009 3.14631,3.71108 3.12288,3.68765 3.12288,3.65452 3.12288,2.66596 "/>
   <polygon id="_319095072" class="fil1" points="3.25944,3.71108 2.5605,4.41002 2.44738,4.29689 3.14631,3.59796 "/>
  </g>
 </g>
</svg>
