<?xml version="1.0" encoding="UTF-8" standalone="no"?>
<svg
   version="1.1"
   width="265"
   height="200"
   viewBox="0 0 265 200"
   xml:space="preserve"
   id="svg145"
   sodipodi:docname="FolderOpen.svg"
   inkscape:version="1.2.1 (9c6d41e410, 2022-07-14)"
   xmlns:inkscape="http://www.inkscape.org/namespaces/inkscape"
   xmlns:sodipodi="http://sodipodi.sourceforge.net/DTD/sodipodi-0.dtd"
   xmlns="http://www.w3.org/2000/svg"
   xmlns:svg="http://www.w3.org/2000/svg"><sodipodi:namedview
   id="namedview147"
   pagecolor="#ffffff"
   bordercolor="#000000"
   borderopacity="0.25"
   inkscape:showpageshadow="2"
   inkscape:pageopacity="0.0"
   inkscape:pagecheckerboard="0"
   inkscape:deskcolor="#d1d1d1"
   showgrid="false"
   inkscape:zoom="4.0117188"
   inkscape:cx="46.488802"
   inkscape:cy="95.71957"
   inkscape:window-width="2496"
   inkscape:window-height="1417"
   inkscape:window-x="56"
   inkscape:window-y="-8"
   inkscape:window-maximized="1"
   inkscape:current-layer="svg145" />

<defs
   id="defs137">
</defs>
<g
   style="opacity:1;fill:none;fill-rule:nonzero;stroke:none;stroke-width:0;stroke-linecap:butt;stroke-linejoin:miter;stroke-miterlimit:10;stroke-dasharray:none"
   transform="matrix(2.9340966,0,0,2.9340966,0,-32.034467)"
   id="g143">
	<path
   d="M 73.538,35.162 20.99,37.114 c -1.739,0 -2.753,0.651 -3.232,2.323 L 6.85,76.754 C 6.399,78.34 4.237,79.082 2.733,79.082 v 0 C 1.23,79.082 0,77.852 0,76.349 V 65.891 23.046 20.999 14.726 c 0,-2.103 1.705,-3.808 3.808,-3.808 h 27.056 c 1.01,0 1.978,0.401 2.692,1.115 l 7.85,7.85 c 0.714,0.714 1.683,1.115 2.692,1.115 H 69.73 c 2.103,0 3.808,1.705 3.808,3.808 v 1.301 c 0,-10e-4 0,9.055 0,9.055 z"
   style="opacity:1;fill:#1a394d;fill-rule:nonzero;stroke:none;stroke-width:1;stroke-linecap:butt;stroke-linejoin:miter;stroke-miterlimit:10;stroke-dasharray:none"
   stroke-linecap="round"
   id="path139" />
	<path
   d="m 2.733,79.082 v 0 c 1.503,0 2.282,-1.147 2.733,-2.733 L 16.462,37.987 c 0.479,-1.672 2.008,-2.824 3.748,-2.824 h 67.379 c 1.609,0 2.765,1.546 2.311,3.09 L 79.004,75.279 c -0.492,1.751 -1.571,3.818 -3.803,3.803 0,0 -72.468,0 -72.468,0 z"
   style="opacity:1;fill:#0b5486;fill-rule:nonzero;stroke:none;stroke-width:1;stroke-linecap:butt;stroke-linejoin:miter;stroke-miterlimit:10;stroke-dasharray:none"
   stroke-linecap="round"
   id="path141" />
</g>
</svg>
