<?xml version="1.0" encoding="UTF-8" standalone="no"?>
<!-- Generator: Adobe Illustrator 14.0.0, SVG Export Plug-In . SVG Version: 6.00 Build 43363)  -->

<svg
   version="1.0"
   id="Ebene_1"
   x="0px"
   y="0px"
   width="946.48126"
   height="946.47906"
   viewBox="0 0 946.48126 946.47906"
   enable-background="new 0 0 947 947"
   xml:space="preserve"
   sodipodi:docname="LuaFileLight.svg"
   inkscape:version="1.2.1 (9c6d41e410, 2022-07-14)"
   xmlns:inkscape="http://www.inkscape.org/namespaces/inkscape"
   xmlns:sodipodi="http://sodipodi.sourceforge.net/DTD/sodipodi-0.dtd"
   xmlns="http://www.w3.org/2000/svg"
   xmlns:svg="http://www.w3.org/2000/svg"><defs
   id="defs445" /><sodipodi:namedview
   id="namedview443"
   pagecolor="#ffffff"
   bordercolor="#000000"
   borderopacity="0.25"
   inkscape:showpageshadow="2"
   inkscape:pageopacity="0.0"
   inkscape:pagecheckerboard="0"
   inkscape:deskcolor="#d1d1d1"
   showgrid="false"
   inkscape:zoom="1.0844773"
   inkscape:cx="149.84177"
   inkscape:cy="447.22006"
   inkscape:window-width="2496"
   inkscape:window-height="1417"
   inkscape:window-x="56"
   inkscape:window-y="-8"
   inkscape:window-maximized="1"
   inkscape:current-layer="Ebene_1" />
<g
   id="g440"
   transform="translate(-0.26047279,-0.26338938)">
	<path
   id="path424"
   style="display:inline;fill:#0b5486;fill-opacity:1"
   d="M 473.50071 111.59933 C 273.70091 111.59933 111.50071 273.79953 111.50071 473.59933 C 111.50071 673.39913 273.70091 835.59933 473.50071 835.59933 C 673.30051 835.59933 835.50071 673.39913 835.50071 473.59933 C 835.50071 273.79953 673.30051 111.59933 473.50071 111.59933 z M 623.50071 217.59933 C 682.00065 217.59933 729.50071 265.09939 729.50071 323.59933 C 729.50071 382.09927 682.00065 429.59933 623.50071 429.59933 C 565.00077 429.59933 517.50071 382.09927 517.50071 323.59933 C 517.50071 265.09939 565.00077 217.59933 623.50071 217.59933 z " />
	
	<path
   fill="#000080"
   d="m 941.5,111.5 c 0,-58.5 -47.5,-106 -106,-106 -58.5,0 -106,47.5 -106,106 0,58.5 47.5,106 106,106 58.5,0 106,-47.4 106,-106"
   id="path428"
   style="display:inline;fill:#0b5486;fill-opacity:1" />
	
	<path
   fill="none"
   stroke="#808080"
   stroke-width="10.8612"
   stroke-miterlimit="10"
   stroke-dasharray="40.8475"
   d="m 890.6,261 c 33.5,65.8 51,138.6 51,212.5 0,258.4 -209.7,468.1 -468.1,468.1 C 215.1,941.6 5.4,731.9 5.4,473.5 5.4,215.1 215.1,5.4 473.5,5.4 c 83.1,0 164.6,22.1 236.2,63.9"
   id="path438"
   style="display:inline;stroke:#0b5486;stroke-opacity:1" />
</g>
</svg>
